{"glyphs":{"0":{"ha":778,"x_min":28,"x_max":750,"o":"m 403 0 q 110 111 221 4 q 28 317 28 196 l 28 454 q 33 618 28 544 q 67 840 39 692 q 176 1028 89 949 q 393 1111 276 1111 q 708 949 639 1111 q 749 744 749 860 l 749 728 q 750 632 749 675 l 750 631 q 743 364 750 461 q 629 83 729 178 q 403 0 539 0 m 403 96 q 647 371 625 96 q 654 567 654 456 l 653 629 l 653 743 q 622 906 653 840 q 413 1014 571 1014 l 393 1015 q 240 956 303 1015 q 163 824 176 896 q 129 604 135 681 q 125 460 125 544 l 125 417 l 124 317 q 179 179 124 235 q 403 96 261 99 m 378 297 l 375 297 q 329 349 329 303 q 335 560 335 454 q 339 775 335 665 q 355 808 340 796 q 390 821 369 821 q 435 774 435 814 l 435 769 q 431 558 431 664 q 425 343 431 453 q 410 310 424 324 q 378 297 396 297 z "},"1":{"ha":472,"x_min":28,"x_max":444,"o":"m 281 0 l 217 0 q 28 125 28 0 l 33 297 q 42 492 36 397 q 50 958 50 632 q 60 1028 50 990 q 208 1111 82 1111 q 311 1107 268 1111 q 433 961 433 1096 l 436 401 l 436 308 q 440 226 436 267 q 444 158 444 192 q 442 110 444 142 q 408 44 439 79 q 281 0 368 0 m 217 96 l 281 97 q 334 110 322 97 q 346 153 346 122 q 343 218 346 182 q 338 308 339 261 l 339 446 q 338 575 339 513 q 336 831 336 661 q 335 961 335 885 q 326 1003 335 992 l 321 1006 q 288 1013 310 1011 q 189 1014 265 1014 q 151 997 154 1013 q 147 867 147 981 q 139 488 147 628 q 131 294 133 394 q 126 133 129 206 l 126 124 q 129 110 126 113 q 217 96 143 96 z "},"2":{"ha":778,"x_min":28,"x_max":750,"o":"m 447 0 l 283 1 q 111 35 165 1 q 29 186 33 79 l 28 233 q 119 550 28 432 q 69 742 69 625 q 76 824 69 785 q 228 1060 113 1000 q 449 1111 338 1111 q 690 990 619 1111 q 743 833 733 910 q 750 701 750 769 q 717 487 750 547 q 632 383 683 426 l 626 379 q 679 343 656 367 q 735 197 735 289 q 596 10 735 32 q 447 0 539 0 m 438 97 q 547 100 494 97 q 619 121 600 103 q 639 197 639 139 q 511 313 639 301 q 425 317 468 317 l 339 317 q 306 330 321 317 q 292 364 292 343 q 306 398 292 385 q 339 411 321 411 l 407 414 q 518 408 461 414 l 565 454 q 631 530 610 492 q 653 690 653 568 q 647 822 653 764 q 607 942 640 879 q 451 1015 558 1015 q 269 972 360 1015 q 172 806 197 935 q 165 733 165 767 q 189 621 165 669 q 414 721 282 692 q 431 724 425 722 q 443 726 438 726 q 471 718 457 726 q 492 676 492 706 q 457 631 492 642 q 304 581 385 618 q 124 222 124 499 l 125 190 q 156 120 125 143 q 283 97 186 97 l 438 97 z "},"3":{"ha":778,"x_min":28,"x_max":750,"o":"m 431 1111 q 649 1032 571 1111 q 724 887 713 961 q 736 765 736 813 q 710 603 736 650 q 653 532 685 556 q 750 344 736 474 l 750 274 q 453 0 750 0 l 424 0 q 229 40 332 0 q 72 136 126 81 l 71 138 q 28 256 28 189 q 107 407 28 351 q 201 453 163 443 q 182 544 183 490 q 214 643 182 586 q 94 690 139 647 q 39 890 39 738 q 107 1032 39 975 q 431 1111 201 1111 m 431 1015 q 250 994 332 1015 q 135 890 135 965 q 163 758 135 785 q 289 736 193 736 l 394 738 q 428 723 414 738 q 442 689 442 708 q 428 655 442 669 q 394 640 414 640 l 338 640 q 278 538 279 589 q 314 460 278 496 q 378 457 342 457 q 411 443 397 457 q 425 410 425 429 q 411 375 425 389 q 378 361 397 361 q 274 365 336 361 q 235 361 251 365 q 160 325 206 356 q 124 256 124 300 q 142 201 124 225 q 265 129 182 163 q 432 96 347 96 q 547 107 499 96 q 624 155 596 118 q 653 274 653 192 l 653 338 q 544 483 646 447 q 518 492 526 490 q 485 508 499 493 q 471 540 471 524 q 522 589 471 589 l 532 589 q 604 618 569 589 q 640 726 640 653 l 640 754 q 632 850 640 796 q 431 1015 611 1015 z "},"4":{"ha":778,"x_min":28,"x_max":750,"o":"m 532 96 q 608 103 582 96 q 624 117 619 106 q 628 151 628 128 q 654 657 654 486 q 653 851 653 740 l 654 925 q 635 1004 654 983 q 603 1015 628 1015 q 488 996 513 1015 q 451 817 453 967 l 451 713 q 436 679 450 693 q 403 665 422 665 q 369 679 382 665 q 354 713 356 693 l 354 760 q 351 922 354 871 q 332 1007 347 993 q 285 1015 321 1015 q 165 972 194 1015 q 131 828 133 903 q 124 668 125 768 q 132 569 125 597 q 228 483 149 499 q 354 475 278 475 l 397 475 q 432 461 418 475 q 446 428 446 447 q 432 393 446 407 q 397 379 418 379 l 374 379 q 256 382 304 379 q 251 306 251 340 q 294 135 251 188 q 406 99 328 99 q 483 97 449 99 l 532 96 m 536 0 l 482 1 l 406 1 q 161 218 189 1 q 157 308 157 263 q 161 404 157 356 q 61 485 97 429 q 28 692 28 544 q 35 835 28 761 q 81 1017 35 919 q 285 1111 135 1111 q 414 1058 375 1111 q 501 1102 450 1093 q 603 1111 553 1111 q 703 1072 664 1111 q 750 933 750 1019 l 749 747 q 750 658 749 696 q 724 144 750 483 q 639 11 724 40 q 536 0 599 0 z "},"5":{"ha":778,"x_min":28,"x_max":750,"o":"m 325 97 l 410 99 q 533 101 471 101 q 601 138 575 101 q 654 333 654 210 q 644 422 654 379 q 557 544 624 525 q 474 564 511 561 q 410 565 449 565 l 368 565 q 263 563 325 563 q 228 576 242 563 q 214 610 214 589 q 227 644 214 631 q 261 658 240 658 l 415 663 q 535 651 494 663 q 583 776 565 693 q 606 946 601 860 l 606 947 q 607 960 606 954 l 608 976 q 604 992 608 983 q 585 1003 604 996 q 488 1013 550 1013 l 388 1015 q 274 1008 338 1015 q 179 958 211 1001 q 124 640 124 868 q 128 542 124 592 q 161 431 132 493 q 210 371 172 408 q 403 394 317 394 l 410 394 q 442 383 426 394 q 457 346 457 371 q 388 297 457 297 l 369 297 q 189 263 253 289 q 125 172 125 238 q 131 143 125 153 q 247 99 149 103 q 325 97 285 97 m 303 0 q 74 58 136 0 q 29 172 29 103 q 115 331 29 272 q 74 390 89 360 q 32 540 39 469 q 28 633 28 586 q 97 1008 28 896 q 246 1100 150 1085 q 378 1111 315 1111 l 467 1110 l 482 1110 q 590 1101 536 1110 q 678 1053 644 1092 q 704 974 704 1019 l 701 940 q 628 618 689 717 q 707 536 682 585 q 750 338 750 449 q 740 224 750 297 q 676 78 731 150 q 533 6 618 6 q 415 3 474 6 q 303 0 356 0 z "},"6":{"ha":778,"x_min":28,"x_max":750,"o":"m 385 175 q 349 191 363 175 q 336 226 336 207 q 338 290 338 257 q 335 382 338 335 q 331 490 331 438 q 344 524 331 510 q 378 538 358 538 q 412 524 397 538 q 426 490 426 510 q 431 386 426 442 q 433 289 433 338 l 432 219 q 417 188 431 200 q 385 175 403 175 m 379 0 q 181 49 274 0 q 56 201 79 106 q 28 472 28 339 l 29 536 l 29 607 q 68 846 29 736 q 351 1093 144 1042 q 497 1111 418 1111 q 574 1107 525 1111 q 672 1067 624 1103 q 724 958 724 1025 l 725 924 q 717 844 725 886 q 600 717 703 767 q 732 547 710 636 q 750 426 750 479 q 749 397 750 411 l 749 375 q 615 56 749 144 q 501 10 561 19 q 379 0 440 0 m 379 96 q 476 103 428 96 q 653 375 653 128 l 654 428 q 631 547 654 482 q 481 674 607 613 q 371 647 388 647 q 343 656 357 647 q 322 696 322 668 q 360 742 322 732 q 604 833 564 790 q 624 872 621 850 q 628 928 628 894 l 628 954 q 506 1015 628 1015 q 374 999 442 1015 q 125 604 125 936 l 125 535 l 124 476 q 149 224 124 347 q 237 128 167 161 q 379 96 307 96 z "},"7":{"ha":778,"x_min":28,"x_max":750,"o":"m 424 0 q 321 10 367 0 q 204 119 213 32 q 199 272 199 224 l 199 315 l 197 403 q 232 599 200 486 q 83 640 124 599 q 38 732 47 675 l 38 733 q 28 861 28 783 q 28 922 28 871 q 60 1035 29 972 l 60 1036 q 193 1100 88 1085 q 375 1111 264 1111 q 549 1104 468 1110 l 651 1092 q 732 994 711 1071 q 746 876 744 939 q 747 844 746 860 q 750 757 750 807 q 728 379 750 575 q 664 94 706 192 q 564 7 629 17 q 424 0 490 0 m 403 96 q 554 103 482 96 q 588 164 568 110 q 635 415 615 244 q 654 760 654 585 q 651 838 654 806 l 650 871 q 622 999 643 988 q 382 1015 567 1013 q 238 1010 289 1015 q 143 986 149 999 q 124 857 124 944 q 149 710 124 735 q 207 696 163 696 q 288 694 236 694 q 385 696 339 694 l 451 696 q 485 682 471 696 q 499 647 499 668 q 485 614 499 628 q 449 600 471 600 q 386 599 428 600 l 332 599 q 294 403 294 478 q 300 128 294 215 l 303 124 q 403 96 310 101 z "},"8":{"ha":778,"x_min":28,"x_max":750,"o":"m 393 189 q 360 203 374 189 q 346 236 346 217 l 346 424 q 360 458 346 443 q 393 472 374 472 q 428 458 414 472 q 442 424 442 443 l 442 236 q 428 203 442 217 q 393 189 414 189 m 392 0 q 140 64 235 0 q 43 213 53 124 q 42 214 42 213 q 36 267 40 238 q 28 374 28 318 q 115 576 28 506 q 63 794 63 685 q 93 949 63 857 q 97 964 93 957 q 372 1111 144 1103 l 382 1111 q 556 1083 474 1111 q 668 974 646 1053 q 704 817 693 917 l 706 793 q 640 600 706 704 q 735 418 706 539 q 750 294 750 353 q 589 39 750 103 l 588 39 q 392 0 483 0 m 393 96 q 463 103 426 96 q 597 151 547 117 q 653 293 653 192 l 651 336 q 636 419 650 368 q 525 549 599 549 l 522 549 q 486 563 501 549 q 471 599 471 576 q 485 631 471 615 q 525 646 499 646 q 553 643 539 646 q 610 794 610 725 q 578 942 610 868 l 571 961 q 513 996 565 976 q 375 1015 461 1015 q 189 938 218 1008 l 185 922 q 160 794 160 842 q 199 625 160 708 q 250 639 239 639 q 274 631 261 639 q 296 590 296 618 q 261 544 296 554 q 136 446 156 513 q 125 361 125 410 q 132 278 125 324 q 138 222 136 249 q 201 139 144 172 q 393 96 271 96 m 385 667 q 350 681 364 667 q 336 714 336 694 q 337 783 336 758 q 346 893 338 808 q 392 936 351 936 l 399 936 q 442 888 442 931 l 442 883 q 435 821 438 843 q 433 778 433 799 q 432 714 432 757 q 418 681 432 694 q 385 667 404 667 z "},"9":{"ha":778,"x_min":28,"x_max":750,"o":"m 393 936 q 429 920 417 936 q 442 885 442 904 q 440 821 440 853 q 443 729 440 776 q 447 621 447 674 q 433 588 447 601 q 400 574 419 574 q 366 588 381 574 q 351 621 351 601 q 347 725 351 669 q 344 821 344 774 l 346 892 q 361 924 347 911 q 393 936 375 936 m 399 1111 q 597 1063 504 1111 q 722 910 699 1006 q 750 639 750 772 l 749 575 l 749 504 q 710 265 749 375 q 426 18 633 69 q 281 0 360 0 q 203 4 253 0 q 106 44 154 8 q 54 153 54 86 l 54 188 q 61 267 54 225 q 178 394 75 344 q 46 564 68 475 q 28 683 28 631 q 29 714 28 700 l 29 736 q 163 1056 29 967 q 277 1101 217 1092 q 399 1111 338 1111 m 399 1015 q 303 1008 350 1015 q 125 736 125 982 l 124 683 q 147 564 124 629 q 297 438 171 499 q 408 464 390 464 q 435 456 421 464 q 456 415 456 443 q 418 369 456 379 q 174 278 214 321 q 153 239 157 261 q 150 183 150 217 l 150 157 q 272 96 150 96 q 404 113 336 96 q 653 506 653 175 l 653 576 l 654 635 q 629 888 654 764 q 541 983 611 950 q 399 1015 471 1015 z "},"\u0000":{"ha":778,"x_min":28,"x_max":750,"o":"m 28 0 l 28 1111 l 750 1111 l 750 0 l 28 0 z "},"\u001d":{"ha":778,"x_min":28,"x_max":750,"o":"m 28 0 l 28 1111 l 750 1111 l 750 0 l 28 0 z "}," ":{"ha":472,"x_min":0,"x_max":0,"o":""}," ":{"ha":472,"x_min":0,"x_max":0,"o":""},"�":{"ha":778,"x_min":28,"x_max":750,"o":"m 28 0 l 28 1111 l 750 1111 l 750 0 l 28 0 z "}," ":{"ha":236,"x_min":0,"x_max":0,"o":""},"​":{"ha":0,"x_min":0,"x_max":0,"o":""},"a":{"ha":778,"x_min":28,"x_max":750,"o":"m 375 539 q 340 553 354 539 q 326 586 326 567 l 329 871 q 343 904 329 890 q 378 918 357 918 q 411 904 397 918 q 425 871 425 890 l 422 586 q 408 553 422 567 q 375 539 394 539 m 256 0 q 64 72 111 0 q 63 74 63 72 q 31 192 35 125 q 28 269 28 231 l 31 369 l 29 415 q 163 1022 57 926 q 300 1099 214 1074 q 381 1111 342 1111 q 464 1097 424 1111 q 718 768 663 1028 l 719 767 q 747 425 747 604 l 747 424 q 749 378 747 403 q 750 326 750 353 q 737 176 750 261 q 643 33 724 90 q 542 10 600 10 q 498 10 535 10 q 410 44 461 11 q 256 0 360 0 m 272 97 q 353 129 344 103 q 342 243 342 185 q 343 290 342 267 q 344 332 344 314 q 358 363 344 350 q 393 376 372 376 q 426 363 413 376 q 440 329 440 350 l 439 231 q 440 185 439 215 q 458 131 440 154 l 458 129 q 518 107 467 117 l 543 106 q 649 226 635 106 q 653 319 653 274 q 624 749 653 592 q 432 1007 578 956 q 382 1015 422 1015 q 310 1001 354 1015 q 229 953 265 988 q 125 414 158 908 q 126 368 126 392 l 124 267 q 126 198 124 239 q 144 124 128 157 q 188 104 153 113 q 250 96 214 96 l 272 97 z "},"b":{"ha":778,"x_min":28,"x_max":750,"o":"m 367 682 q 332 696 346 682 q 318 731 318 710 q 317 822 318 775 q 315 915 315 868 q 329 950 315 936 q 363 964 343 964 q 397 950 383 964 q 411 915 411 936 q 413 824 411 871 q 414 731 414 778 q 400 696 414 710 q 367 682 386 682 m 343 165 q 328 168 336 165 q 296 213 296 182 q 299 231 296 222 q 311 335 311 279 q 310 374 311 353 q 308 421 308 396 q 322 454 308 440 q 357 468 336 468 q 390 454 376 468 q 404 419 404 440 q 406 376 404 399 q 408 332 408 354 q 389 199 408 267 q 343 165 374 165 m 349 0 q 101 67 188 0 q 29 204 33 122 q 28 313 28 242 q 29 394 29 338 l 29 447 q 37 689 29 563 q 83 947 44 815 q 333 1111 131 1111 q 510 1089 410 1111 q 699 908 675 1057 q 710 814 710 858 q 638 629 710 704 l 636 628 q 600 597 624 615 q 665 557 638 582 l 665 556 q 750 333 750 467 q 550 38 750 122 q 349 0 460 0 m 347 96 q 647 272 600 96 l 647 274 q 654 333 654 301 q 648 399 654 357 q 599 486 642 440 q 438 528 549 528 q 385 525 411 528 l 378 525 q 347 537 363 525 q 332 574 332 549 q 342 604 332 590 q 443 625 358 625 l 461 625 q 569 697 511 643 q 614 814 614 742 q 604 888 614 847 l 604 889 q 574 958 597 933 q 489 996 550 982 q 336 1015 396 1015 q 175 921 199 1015 l 175 919 q 132 668 139 797 q 125 446 125 556 l 125 311 q 124 265 124 289 l 125 208 q 167 138 129 164 q 253 104 204 111 l 254 104 q 347 96 301 96 z "},"c":{"ha":778,"x_min":28,"x_max":750,"o":"m 376 0 q 207 26 279 0 q 50 225 92 75 q 28 428 28 308 q 42 592 28 482 q 80 813 56 703 q 136 985 104 922 q 264 1083 178 1054 q 428 1111 350 1111 q 693 999 604 1111 q 750 838 750 929 q 615 599 750 688 q 656 561 638 585 q 715 339 715 472 q 703 207 715 268 q 536 24 675 74 q 376 0 474 0 m 376 96 q 501 114 456 97 l 503 114 q 582 167 560 136 q 618 342 618 218 q 617 401 618 356 q 578 504 615 446 q 468 532 557 532 q 357 529 421 532 q 324 543 338 529 q 308 576 310 557 q 322 611 308 597 q 356 626 335 625 q 582 693 500 631 q 654 835 654 750 q 620 937 654 886 q 501 1007 586 988 l 500 1007 q 428 1015 467 1015 q 298 994 356 1015 q 221 939 240 972 q 173 789 194 889 q 138 585 151 689 q 124 428 124 481 q 131 307 124 371 q 165 191 139 243 q 244 117 190 139 q 376 96 297 96 z "},"d":{"ha":778,"x_min":28,"x_max":750,"o":"m 329 274 q 294 288 308 274 q 281 321 281 301 q 290 566 281 431 q 299 806 299 701 q 313 840 299 826 q 347 854 328 854 q 382 840 368 854 q 396 806 396 826 q 386 562 396 697 q 376 321 376 426 q 363 288 376 301 q 329 274 349 274 m 301 0 q 181 8 239 0 q 28 186 28 32 l 29 208 l 28 601 q 42 953 28 869 q 115 1067 58 1033 q 346 1111 194 1111 q 561 1075 468 1111 l 563 1074 q 721 854 682 1007 q 750 629 750 756 q 743 458 750 544 q 696 214 743 335 q 474 24 632 76 q 301 0 400 0 m 301 96 q 442 115 388 96 l 443 115 q 607 252 569 160 q 646 457 644 344 l 647 472 q 653 621 653 543 l 653 690 q 629 824 653 744 l 629 825 q 522 986 593 947 q 346 1015 450 1015 q 269 1011 306 1015 l 269 1010 q 164 983 189 1001 q 136 935 139 964 q 125 651 125 865 l 126 219 l 125 196 q 135 133 125 156 q 194 104 144 111 l 196 104 q 301 96 246 96 z "},"e":{"ha":778,"x_min":28,"x_max":750,"o":"m 363 582 q 322 604 335 582 q 314 631 314 617 l 315 640 q 322 729 322 682 q 318 803 322 764 q 314 917 314 858 q 329 950 315 938 q 364 963 343 963 q 397 948 385 961 q 410 917 410 935 l 410 913 q 414 810 410 864 q 418 731 418 769 q 410 619 418 675 q 363 582 400 582 m 369 0 q 117 79 217 1 q 44 188 56 132 q 36 265 36 226 l 38 293 q 33 450 38 389 q 28 576 28 511 q 38 764 28 665 l 44 894 q 217 1092 53 1053 l 218 1092 q 392 1111 303 1111 q 457 1108 424 1111 q 669 990 633 1089 l 669 989 q 703 819 703 900 q 650 576 703 714 q 593 474 628 518 l 618 469 q 738 376 708 449 q 750 290 750 333 l 747 229 q 657 65 747 119 q 465 8 588 28 q 369 0 417 0 m 367 96 q 449 103 406 96 q 609 149 567 124 q 651 229 651 175 l 653 289 q 644 346 653 326 q 335 394 624 394 q 301 408 315 394 q 288 442 288 422 q 301 476 288 463 q 335 490 315 490 q 478 486 415 490 q 560 608 539 551 q 607 822 607 736 q 581 951 607 888 q 400 1015 547 1015 q 238 997 322 1015 q 161 958 181 985 q 140 890 142 932 l 133 757 q 124 576 124 660 q 128 455 124 517 q 133 328 133 393 l 132 263 q 138 208 132 235 q 176 154 143 182 q 367 96 253 96 z "},"f":{"ha":778,"x_min":28,"x_max":750,"o":"m 390 96 q 522 104 469 96 q 587 135 574 113 q 600 193 600 157 q 582 271 600 222 q 515 413 543 374 l 478 413 q 429 461 432 415 q 444 496 431 482 q 478 510 458 510 q 636 522 611 510 q 650 581 650 533 q 631 678 650 669 q 518 696 596 693 l 503 696 q 468 696 486 696 q 436 710 450 696 q 422 743 422 724 q 436 778 422 764 q 469 792 450 792 l 519 792 q 635 817 607 792 q 653 886 653 838 q 618 989 653 960 q 507 1015 582 1015 q 425 1008 467 1015 q 296 990 314 997 l 292 986 q 269 768 269 964 l 294 768 q 328 754 314 768 q 342 721 342 740 q 328 686 342 700 q 294 672 314 672 l 221 672 q 146 664 165 672 q 135 635 140 661 q 124 560 124 585 q 138 519 124 536 q 294 514 164 515 q 328 501 314 514 q 342 467 342 488 q 328 433 342 446 q 294 418 315 419 l 261 418 q 197 265 228 353 q 165 149 165 178 q 390 96 165 96 m 392 0 q 261 4 333 0 q 81 96 133 11 q 68 144 68 113 q 77 215 68 165 q 156 421 86 264 q 78 442 94 425 q 28 557 28 493 q 39 647 28 604 l 40 649 l 42 661 l 43 661 q 90 743 57 722 q 172 767 124 764 q 197 1017 172 954 q 365 1099 229 1096 q 508 1111 469 1111 q 578 1108 532 1111 q 678 1064 625 1104 q 750 888 746 1008 q 704 751 750 799 q 700 747 703 749 q 740 675 739 711 q 746 593 746 632 q 742 523 746 567 q 692 443 739 479 q 621 421 663 425 q 696 190 696 282 q 688 129 696 167 q 647 57 681 92 q 533 8 613 22 q 392 0 476 0 z "},"g":{"ha":778,"x_min":28,"x_max":750,"o":"m 453 0 l 372 0 q 139 72 235 4 q 28 290 28 154 q 31 476 28 425 q 179 1000 44 836 q 400 1111 278 1111 q 524 1097 472 1111 q 626 1039 576 1082 q 688 929 683 985 l 689 897 q 682 835 689 861 q 593 647 671 764 q 675 624 639 646 q 750 469 749 576 q 740 382 750 439 q 675 135 714 222 q 619 51 646 67 l 618 50 q 528 6 568 14 q 453 0 494 0 m 372 96 l 436 97 l 458 97 q 510 101 489 97 q 561 128 531 106 q 622 286 579 133 q 654 469 654 417 q 585 551 654 551 q 438 486 518 551 q 311 360 340 410 q 269 335 296 335 q 246 340 257 335 q 221 382 221 354 q 226 406 221 394 q 382 565 267 475 q 450 611 442 611 l 453 615 q 588 851 574 779 q 593 899 593 878 q 591 925 593 907 q 563 967 589 943 q 492 1006 529 996 q 396 1015 454 1015 q 290 974 339 1015 q 161 731 188 886 q 136 572 143 625 q 124 289 124 489 q 194 150 124 203 q 372 96 267 100 z "},"h":{"ha":778,"x_min":28,"x_max":750,"o":"m 201 96 l 269 100 q 324 135 308 106 q 340 188 340 164 q 343 203 340 196 q 346 396 346 217 q 360 429 346 415 q 393 443 374 443 q 428 429 414 443 q 442 396 442 415 q 439 186 442 210 q 433 124 433 156 q 435 106 433 114 q 513 100 453 100 q 599 118 593 103 q 607 190 607 140 l 606 224 q 608 304 608 263 q 639 746 608 507 q 654 917 654 856 q 638 1000 654 971 q 529 1015 621 1013 q 422 1000 440 1011 q 419 963 419 986 q 421 921 419 938 q 422 892 422 904 l 421 856 q 429 739 421 765 q 432 721 432 731 q 426 699 432 711 q 382 675 414 675 q 339 707 350 675 q 324 822 324 763 l 326 892 q 325 915 326 901 q 324 942 324 929 q 322 964 324 954 q 282 986 319 985 q 240 985 258 986 q 206 983 221 983 q 142 976 156 983 q 133 939 133 971 l 132 922 q 125 765 125 844 q 133 592 125 679 q 142 390 142 490 q 140 304 142 346 q 139 221 139 263 q 136 185 139 207 q 132 119 132 139 l 133 100 q 201 96 160 96 m 199 0 q 74 19 97 0 q 38 97 40 53 l 36 129 q 42 211 36 163 l 42 221 q 44 307 42 265 q 46 390 46 349 q 36 585 46 486 q 28 758 28 672 q 36 933 28 846 q 49 1008 36 968 q 136 1076 65 1061 q 232 1081 158 1081 q 271 1082 250 1082 q 353 1067 317 1082 q 522 1111 394 1110 q 626 1103 581 1111 q 750 926 750 1082 q 739 776 750 847 l 735 736 q 706 386 713 563 l 706 385 q 704 304 704 346 q 703 219 704 263 l 703 192 q 697 115 703 160 q 657 38 692 71 q 515 3 622 6 q 368 32 403 3 l 364 38 q 281 4 331 11 q 199 0 247 0 z "},"i":{"ha":472,"x_min":28,"x_max":444,"o":"m 217 0 q 35 110 63 4 q 28 179 28 144 q 30 221 28 201 q 33 256 32 240 q 47 379 36 319 q 63 493 58 439 l 63 604 l 61 664 q 68 808 61 736 l 69 833 q 68 863 69 847 q 67 894 67 878 q 74 974 67 928 q 131 1064 82 1021 q 269 1111 193 1111 q 403 1061 349 1111 q 444 954 444 1019 q 425 506 435 867 q 417 189 419 233 q 392 93 413 128 q 217 0 336 0 m 217 96 q 286 115 264 96 q 319 193 319 144 q 328 513 319 226 q 346 961 338 861 q 333 993 346 981 q 269 1015 310 1015 q 195 990 226 1015 q 164 901 164 964 l 167 832 l 165 799 q 160 654 160 728 l 160 490 q 144 366 156 425 q 131 251 133 307 q 128 215 131 233 l 126 171 q 131 128 126 146 q 160 106 136 110 l 161 104 q 217 96 189 96 z "},"j":{"ha":778,"x_min":28,"x_max":750,"o":"m 297 96 q 378 97 321 97 q 457 102 436 97 q 513 133 478 107 q 567 202 547 158 q 592 278 586 246 l 600 321 q 631 515 619 415 q 654 813 654 725 q 644 972 654 889 q 638 1001 642 993 q 554 1015 628 1015 q 463 1003 483 1013 q 438 750 443 993 q 433 440 433 621 q 418 406 432 419 q 385 393 404 393 q 351 407 364 393 q 336 440 338 421 l 336 532 q 289 725 333 693 q 246 739 269 739 q 133 679 169 739 q 125 588 125 667 q 132 443 125 533 q 178 168 151 253 l 178 167 q 208 119 185 142 q 297 96 231 96 m 392 0 l 299 0 q 86 139 133 0 q 58 265 72 183 q 28 596 28 444 q 50 728 28 699 q 238 835 117 835 l 243 835 q 343 807 304 835 q 356 994 347 910 q 543 1111 369 1111 q 683 1086 635 1111 q 740 983 731 1061 q 750 814 750 894 q 746 711 750 781 q 694 303 733 494 l 686 261 q 652 156 681 218 q 568 53 624 94 l 567 53 q 484 10 518 19 q 392 0 450 0 z "},"k":{"ha":778,"x_min":28,"x_max":750,"o":"m 243 97 q 292 115 264 97 q 328 200 328 139 l 326 256 q 329 347 326 299 l 331 393 q 345 428 331 414 q 379 442 360 442 q 413 428 399 442 q 428 393 428 414 q 425 343 428 374 q 424 264 424 306 q 436 147 424 160 q 546 108 471 108 q 606 118 576 108 q 644 156 635 128 q 654 238 654 185 q 610 428 651 346 l 610 429 q 562 497 590 475 q 468 533 533 518 q 432 581 432 546 q 461 625 432 610 l 481 633 q 511 646 497 639 q 513 647 513 646 q 589 707 556 669 q 635 783 622 744 q 647 875 647 829 q 617 988 647 964 l 615 988 q 543 1001 593 1001 q 451 988 492 1001 l 450 986 q 422 906 435 971 q 415 767 415 858 q 401 728 415 743 q 367 714 388 714 q 333 728 347 714 q 319 767 319 743 l 319 788 q 331 942 319 869 q 328 960 328 950 q 267 1015 328 1015 q 193 989 228 1015 q 163 903 163 963 q 165 867 163 885 q 167 832 167 849 l 165 799 q 160 654 160 728 l 160 490 q 144 366 156 425 q 129 251 132 307 l 124 169 q 129 128 124 146 q 161 106 135 111 l 163 106 q 219 97 188 97 l 243 97 m 219 0 q 35 110 65 0 q 28 179 28 144 q 31 222 28 201 q 49 381 39 326 q 65 550 65 464 l 63 664 q 69 808 63 736 l 71 833 q 69 863 71 847 q 68 894 68 878 q 76 975 68 928 q 133 1065 83 1022 q 263 1111 197 1111 q 388 1060 343 1111 q 551 1099 436 1099 q 672 1067 621 1099 q 742 882 742 1015 q 726 757 742 804 q 599 588 696 657 q 697 468 660 554 q 750 240 746 368 q 746 167 750 210 q 636 26 733 65 l 635 26 q 540 13 592 13 q 381 67 447 13 q 219 0 318 0 z "},"l":{"ha":778,"x_min":28,"x_max":750,"o":"m 479 96 q 643 135 617 96 q 654 190 654 157 q 649 247 654 207 q 624 371 639 319 q 615 403 619 399 l 613 404 q 571 410 596 410 l 372 411 l 300 410 q 267 424 281 410 q 253 458 253 438 q 267 492 253 478 q 300 506 281 506 l 436 507 q 478 708 475 618 q 471 992 478 908 l 471 994 l 468 994 q 364 1015 458 1013 q 157 1003 319 1015 q 138 956 147 997 q 124 765 124 890 q 150 369 131 553 l 163 231 q 194 99 167 114 q 222 97 204 97 q 299 99 261 97 q 349 101 328 101 q 411 99 376 101 q 479 96 446 96 m 478 0 q 408 2 442 0 q 349 4 374 4 l 303 3 q 231 0 263 0 q 168 6 193 0 q 167 7 168 7 q 82 104 104 26 q 65 225 68 161 l 65 226 q 54 360 65 260 q 28 789 28 622 q 82 1064 28 1004 q 147 1099 108 1096 l 186 1103 q 340 1111 269 1111 q 424 1109 367 1111 q 531 1068 482 1107 q 567 1000 563 1040 q 575 842 575 903 l 574 797 l 574 708 q 536 507 574 633 q 575 506 558 507 q 718 390 707 506 l 718 389 l 726 351 q 750 189 750 257 q 726 85 750 131 q 725 83 725 85 q 589 7 679 18 q 478 0 533 0 z "},"m":{"ha":1097,"x_min":28,"x_max":1069,"o":"m 575 0 l 556 0 q 421 38 488 0 q 386 69 401 51 q 238 3 333 3 q 29 136 42 3 l 28 174 q 32 238 28 211 l 39 374 q 101 976 54 822 q 200 1075 124 1038 q 354 1110 271 1110 l 418 1111 q 483 1108 447 1111 q 549 1081 518 1104 q 656 1110 585 1106 q 736 1107 722 1110 q 942 1053 868 1107 q 1011 944 996 1006 q 1028 831 1026 883 l 1029 804 q 1043 633 1035 746 q 1069 179 1069 233 q 1063 110 1069 146 q 876 1 1032 1 q 715 56 781 1 q 575 0 669 1 m 575 97 q 639 114 619 97 q 651 168 651 129 l 651 222 q 656 358 651 282 q 661 497 661 433 q 658 585 661 543 q 671 620 658 604 q 706 636 683 636 q 753 590 749 636 q 758 490 758 544 q 753 350 758 425 q 747 197 747 260 q 885 99 753 99 q 969 133 958 99 q 972 165 972 144 q 965 311 972 186 q 921 910 939 829 q 881 979 911 951 q 683 1014 842 1014 q 607 1004 626 1014 q 596 951 599 985 q 597 886 597 926 q 596 819 597 846 q 547 754 596 754 q 513 768 528 754 q 499 803 499 782 l 499 951 q 486 1007 496 988 q 432 1014 479 1014 l 356 1014 q 247 990 292 1014 q 193 946 201 967 q 135 369 156 822 q 126 204 132 283 l 125 151 q 136 122 125 135 q 246 100 150 100 q 306 125 285 101 q 340 229 340 165 q 347 456 347 300 q 344 586 347 524 q 358 621 344 607 q 390 636 371 635 q 426 623 413 636 q 440 590 440 610 q 443 469 443 532 q 438 225 443 324 q 470 122 438 146 q 561 97 503 97 l 575 97 z "},"n":{"ha":778,"x_min":28,"x_max":750,"o":"m 392 1015 q 256 990 325 1015 q 192 951 197 968 q 135 372 151 817 l 126 217 q 124 160 124 185 q 135 122 125 135 q 244 100 153 100 q 304 125 285 101 q 339 229 339 165 l 340 231 q 344 458 344 311 q 343 590 344 528 q 356 624 343 610 q 393 639 369 639 q 424 626 411 639 q 439 593 438 614 q 440 458 440 528 q 436 225 440 313 q 468 122 436 146 q 560 97 500 97 q 636 114 617 97 q 649 163 649 131 l 649 197 q 653 469 653 292 q 626 925 653 842 q 542 993 614 965 q 392 1015 485 1015 m 392 1111 q 696 1003 597 1111 q 750 475 750 949 q 744 194 750 303 l 746 164 q 741 113 746 144 q 704 47 736 82 q 571 0 660 0 l 553 0 q 419 38 486 0 q 385 71 400 51 q 239 3 331 3 q 29 136 42 3 l 28 174 q 32 239 28 211 l 39 376 q 100 982 54 832 q 223 1080 129 1049 q 392 1111 317 1111 z "},"o":{"ha":778,"x_min":28,"x_max":750,"o":"m 383 303 l 382 303 q 349 318 361 304 q 336 349 336 332 l 336 353 q 340 563 340 458 q 346 776 340 668 q 362 809 347 796 q 396 822 376 822 q 442 771 442 817 q 438 603 438 686 l 438 561 q 432 349 438 456 q 417 315 431 328 q 383 303 403 303 m 354 0 q 160 28 231 0 q 40 175 47 78 l 40 176 q 28 424 28 303 q 82 919 28 681 l 82 921 q 372 1111 138 1111 q 424 1108 397 1111 l 442 1108 q 545 1101 493 1108 q 651 1063 597 1093 q 742 944 722 1022 q 750 858 750 900 l 747 785 q 749 647 747 715 q 750 529 750 589 q 747 369 750 450 q 715 163 739 264 q 651 49 700 86 q 354 0 589 0 m 354 96 q 499 104 428 96 q 596 126 575 108 q 621 182 617 144 q 651 375 643 279 q 654 538 654 457 l 653 646 q 651 826 651 714 l 653 867 q 647 927 653 897 q 604 979 640 957 q 519 1007 564 1001 q 418 1013 475 1013 q 372 1015 393 1015 q 175 897 206 1015 q 125 426 125 671 q 136 186 125 308 q 168 133 136 156 q 354 96 218 96 z "},"p":{"ha":778,"x_min":28,"x_max":750,"o":"m 375 589 q 339 601 353 589 q 324 633 325 614 q 322 693 322 663 q 326 794 322 743 q 329 893 329 846 q 344 926 329 913 q 378 940 358 940 q 412 926 397 940 q 426 893 426 913 q 422 788 426 842 q 418 693 418 739 l 419 636 q 408 606 419 619 q 375 589 396 592 m 250 0 q 46 144 76 0 q 28 339 28 243 q 31 414 28 376 q 32 526 32 458 l 32 563 q 37 719 32 635 q 69 894 42 804 q 425 1111 135 1111 q 622 1044 549 1111 l 622 1043 q 731 867 708 956 q 750 732 750 794 l 749 693 q 700 519 749 597 q 472 396 631 411 l 472 365 q 475 265 475 315 q 475 207 475 249 q 463 117 475 165 q 380 28 443 57 q 250 0 317 0 m 250 96 q 331 110 297 96 q 369 142 364 125 q 379 242 379 181 q 376 361 379 303 l 375 440 q 388 475 375 461 q 422 489 401 489 q 647 640 619 493 q 653 731 653 678 q 556 974 653 883 q 425 1015 511 1015 q 332 1006 383 1015 q 214 957 250 992 q 128 561 128 871 l 128 526 q 126 413 128 456 q 124 340 124 375 q 139 165 124 250 q 140 164 140 165 q 161 120 143 139 q 233 97 179 101 l 250 96 z "},"q":{"ha":778,"x_min":28,"x_max":750,"o":"m 357 419 q 322 435 335 419 q 308 469 308 450 q 312 556 311 521 q 314 622 313 590 l 314 646 q 318 778 314 697 q 334 811 319 799 q 369 824 349 824 q 401 808 389 822 q 414 776 414 794 l 414 772 q 410 621 410 697 q 389 432 410 451 q 357 419 375 419 m 383 0 l 331 1 l 294 0 q 150 21 215 0 q 40 181 53 60 q 28 428 28 306 q 82 921 28 683 l 82 922 q 211 1079 110 1031 q 372 1111 279 1111 q 425 1108 397 1111 l 439 1108 q 514 1100 485 1108 q 681 943 658 1058 q 693 824 693 881 q 654 381 693 540 q 675 369 665 376 q 750 215 749 322 q 728 122 750 156 q 658 51 706 88 l 657 51 q 557 7 606 14 q 479 1 521 1 l 449 1 l 383 0 m 475 97 q 540 101 511 97 q 597 127 568 106 q 637 161 625 149 q 651 185 649 174 q 654 215 654 197 q 586 297 654 297 q 425 232 525 297 q 410 222 411 222 q 383 214 397 214 q 343 238 361 214 q 336 263 336 250 q 360 304 336 288 q 376 314 361 304 q 557 392 483 382 q 590 594 583 490 q 596 811 596 697 q 590 908 596 856 q 546 981 583 961 q 469 1011 494 1008 q 419 1013 453 1013 q 371 1015 394 1015 q 175 899 204 1015 q 125 429 125 672 q 136 190 125 311 q 182 113 140 129 q 303 97 217 97 l 475 97 z "},"r":{"ha":778,"x_min":28,"x_max":750,"o":"m 463 0 q 344 42 382 0 q 178 0 296 0 q 78 39 118 0 q 32 176 32 90 l 28 847 q 56 987 28 914 q 193 1093 85 1060 q 340 1111 260 1111 q 424 1108 361 1111 q 572 1076 488 1106 q 693 951 657 1046 q 711 846 711 901 q 704 775 711 811 q 615 589 682 656 q 717 504 679 564 q 750 369 750 450 q 743 274 750 339 l 743 272 q 697 94 740 185 q 597 22 667 43 q 463 0 526 0 m 463 96 q 564 111 522 96 q 647 281 642 139 l 650 311 q 654 388 654 351 q 636 453 653 424 l 635 453 q 557 506 608 496 q 451 514 517 514 l 396 514 q 363 528 376 514 q 349 563 349 543 q 363 597 349 582 q 396 611 376 611 l 442 611 l 456 613 q 551 663 510 613 q 614 840 614 738 q 601 921 614 876 q 344 1015 575 1015 q 150 956 190 1015 q 125 835 125 921 q 128 453 125 639 l 128 186 q 146 107 128 129 q 178 96 157 96 q 281 114 260 96 q 299 214 299 136 l 297 396 q 313 431 299 417 q 346 444 326 444 q 394 396 392 442 l 394 226 q 417 106 396 122 q 463 96 428 96 m 350 661 q 317 675 331 661 q 303 708 303 689 q 304 810 303 765 q 306 904 306 856 q 319 939 306 925 q 354 953 333 953 q 388 939 374 953 q 401 904 401 925 q 400 808 401 853 q 399 708 399 764 q 385 675 399 689 q 350 661 371 661 z "},"s":{"ha":778,"x_min":28,"x_max":750,"o":"m 349 0 q 110 64 194 0 q 42 199 49 114 l 42 217 q 100 354 42 294 q 28 607 28 479 l 28 646 q 35 792 28 717 q 82 944 42 867 q 269 1096 140 1054 q 371 1111 322 1111 q 647 864 597 1111 q 654 786 654 824 q 622 639 654 706 q 726 518 696 601 q 750 378 750 449 q 715 203 750 292 q 461 7 651 28 q 349 0 414 1 m 347 96 l 449 103 q 626 238 583 113 l 628 239 q 654 378 654 310 q 638 485 654 432 q 490 575 607 571 l 488 575 q 386 582 433 582 q 286 574 332 582 l 278 574 q 249 582 263 574 q 228 621 228 594 q 238 650 228 636 q 393 678 256 678 q 529 668 474 678 q 558 783 558 717 q 551 846 558 814 q 372 1015 518 1015 q 297 1003 336 1015 q 167 901 207 974 q 129 768 136 838 q 125 653 125 713 l 125 624 q 188 397 125 503 q 354 417 272 417 l 404 417 q 438 402 425 417 q 451 368 451 388 q 438 333 451 347 q 404 319 425 319 l 350 319 q 250 314 307 319 q 138 215 138 301 q 347 96 138 96 z "},"t":{"ha":778,"x_min":28,"x_max":750,"o":"m 399 96 q 519 108 474 96 q 521 110 521 108 q 589 172 572 122 q 606 310 606 222 q 517 599 601 431 l 479 599 q 446 613 460 599 q 432 647 432 626 q 446 681 432 667 q 479 694 460 694 l 582 694 q 622 700 614 697 l 626 701 q 633 733 631 714 q 638 753 636 742 q 654 886 654 832 q 639 967 654 938 q 551 1010 613 1003 q 464 1015 508 1015 l 428 1014 l 324 1015 q 221 1009 278 1015 q 138 967 164 1003 q 125 906 128 954 q 142 753 125 840 l 146 733 q 154 701 150 708 l 172 697 l 233 693 q 254 694 244 693 l 303 694 q 336 681 322 694 q 350 647 350 667 q 336 613 350 626 q 303 599 322 599 l 275 599 q 258 549 269 578 q 174 215 174 299 q 176 190 174 196 q 275 102 204 108 q 399 96 346 96 m 399 0 q 268 7 340 0 q 85 158 135 21 q 78 214 78 182 q 168 579 78 318 q 175 600 171 590 q 86 633 124 601 q 51 714 56 669 l 51 715 l 47 732 q 28 892 28 824 q 56 1017 28 971 q 192 1100 104 1086 q 324 1111 258 1111 l 361 1110 l 463 1111 q 599 1099 524 1111 q 721 1017 674 1086 l 722 1017 q 750 888 750 963 q 732 732 750 814 q 728 715 731 722 l 728 714 q 693 633 724 669 q 621 601 663 606 q 701 290 701 428 q 682 144 701 217 q 544 15 646 40 q 399 0 486 0 z "},"u":{"ha":778,"x_min":28,"x_max":750,"o":"m 386 96 q 522 121 453 96 q 586 160 581 143 q 643 739 626 294 l 651 894 q 654 951 654 926 q 643 989 653 976 q 533 1011 625 1011 q 474 986 493 1010 q 439 882 439 946 l 438 881 q 433 653 433 800 q 435 521 433 583 q 422 487 435 501 q 385 472 408 472 q 353 485 367 472 q 339 518 340 497 q 338 653 338 583 q 342 886 338 799 q 310 990 342 965 q 218 1014 278 1014 q 142 997 161 1014 q 129 949 129 981 l 129 914 q 125 642 125 819 q 151 186 125 269 q 236 118 164 146 q 386 96 293 96 m 386 0 q 82 108 181 0 q 28 636 28 163 q 33 917 28 808 l 32 947 q 37 998 32 967 q 74 1064 42 1029 q 207 1111 118 1111 l 225 1111 q 358 1074 292 1111 q 393 1040 378 1060 q 539 1108 447 1108 q 749 975 736 1108 l 750 938 q 746 872 750 900 l 739 735 q 678 129 724 279 q 555 31 649 63 q 386 0 461 0 z "},"v":{"ha":778,"x_min":28,"x_max":750,"o":"m 383 96 q 415 115 397 97 q 468 175 426 125 q 607 614 513 215 q 631 776 625 699 q 651 925 636 847 q 654 957 654 936 q 571 1014 654 1014 l 556 1014 q 462 990 494 1014 q 429 886 429 965 q 433 639 433 786 q 432 518 433 576 q 417 485 431 497 q 385 472 403 472 q 349 487 363 472 q 335 521 335 501 q 338 653 338 583 q 333 881 336 768 q 228 1011 329 994 q 206 1014 215 1014 q 122 890 122 1014 q 135 740 122 818 q 142 682 140 706 q 232 382 153 564 q 282 250 258 317 q 333 147 300 199 q 383 96 367 96 m 383 0 q 250 96 313 0 q 192 218 210 164 q 143 344 169 281 q 46 675 57 546 q 40 726 44 694 q 28 886 28 800 q 83 1063 28 999 q 204 1110 129 1110 l 239 1107 q 374 1036 325 1096 q 414 1074 390 1058 q 569 1111 482 1111 q 718 1053 671 1111 q 750 947 750 1008 q 746 906 750 924 q 726 768 732 836 q 701 592 721 686 q 543 114 608 189 q 465 31 492 54 q 383 0 432 1 z "},"w":{"ha":1097,"x_min":28,"x_max":1069,"o":"m 679 0 q 615 3 650 0 q 549 31 579 7 q 442 1 513 6 q 361 4 375 1 q 156 58 229 4 q 86 167 101 106 q 68 294 71 228 l 54 478 q 28 932 28 878 q 35 1001 28 965 q 221 1110 65 1110 q 382 1056 317 1110 q 522 1111 428 1110 l 542 1111 q 676 1074 610 1111 q 711 1042 696 1060 q 860 1108 764 1108 q 1068 975 1056 1108 l 1069 938 q 1065 874 1069 900 l 1058 738 q 996 135 1043 289 q 897 36 974 74 q 743 1 826 1 l 679 0 m 742 97 q 851 121 806 97 q 904 165 896 144 q 963 742 942 289 q 971 907 965 828 l 972 960 q 961 989 972 976 q 851 1011 947 1011 q 792 986 813 1010 q 757 882 757 946 q 750 656 750 811 q 753 525 750 588 q 740 490 753 504 q 707 475 726 476 q 671 488 685 475 q 657 521 657 501 q 654 642 654 579 q 660 886 654 788 q 627 990 660 965 q 536 1014 594 1014 q 458 997 476 1013 q 446 943 446 982 l 446 889 q 441 753 446 829 q 436 614 436 678 q 439 526 436 568 q 426 491 439 507 q 392 475 414 475 q 344 521 349 475 q 339 621 339 567 q 344 761 339 686 q 350 914 350 851 q 213 1013 344 1013 q 128 978 139 1013 q 125 946 125 967 q 132 800 125 925 q 176 201 158 282 q 217 132 186 160 q 414 97 256 97 q 490 107 471 97 q 501 160 499 126 q 500 225 500 185 q 501 292 500 265 q 550 357 501 357 q 584 343 569 357 q 599 308 599 329 l 599 160 q 611 104 601 124 q 665 97 618 97 l 742 97 z "},"x":{"ha":778,"x_min":28,"x_max":750,"o":"m 500 0 q 379 43 422 0 q 346 19 365 29 l 344 18 q 253 1 307 1 q 90 57 143 1 l 89 58 q 35 211 42 126 q 32 283 32 250 q 36 354 32 322 q 97 568 54 482 q 44 675 54 606 l 38 732 q 28 839 28 785 q 31 900 28 869 q 128 1065 44 1006 q 276 1111 190 1111 q 417 1060 369 1111 q 540 1096 475 1096 l 563 1094 q 732 974 700 1081 q 750 829 750 899 q 681 592 750 685 q 740 274 740 442 q 710 94 740 158 q 597 15 686 44 q 500 0 544 0 m 504 97 q 539 100 518 97 q 625 140 610 114 q 639 201 636 160 q 644 276 644 251 q 604 519 644 396 q 532 483 572 496 q 518 481 525 481 q 472 514 488 481 q 471 531 471 522 q 503 575 471 564 q 588 631 553 593 q 633 706 622 668 l 635 708 q 654 829 654 764 q 608 986 654 963 q 546 999 581 999 q 490 990 515 999 q 457 967 464 981 q 453 960 456 963 l 456 888 q 431 694 456 715 q 394 682 415 682 q 363 698 375 685 q 350 729 350 711 l 350 733 q 358 890 358 843 q 350 990 358 975 q 275 1015 335 1015 q 186 989 222 1015 l 185 988 q 126 889 133 949 q 124 846 124 869 q 133 744 124 801 q 141 683 138 714 q 172 631 144 651 q 254 585 199 610 l 281 571 q 308 529 308 556 q 303 507 308 518 q 260 481 286 481 q 238 486 249 481 q 214 497 226 492 l 213 497 q 178 515 194 506 q 132 343 147 451 q 128 271 128 304 q 165 118 128 171 q 226 99 171 108 l 256 97 q 301 104 288 97 q 325 185 325 114 q 351 374 325 351 q 383 385 365 385 q 419 367 404 385 q 431 336 431 353 l 431 332 q 422 214 422 260 q 436 128 422 160 q 438 124 438 126 q 504 97 453 97 z "},"y":{"ha":778,"x_min":28,"x_max":750,"o":"m 310 96 q 508 117 451 97 q 581 195 560 136 q 611 335 601 254 l 617 374 q 633 557 629 463 l 642 686 q 653 889 653 794 q 652 964 653 929 q 650 1002 651 999 q 642 1008 649 1006 q 592 1015 622 1015 q 525 1003 542 1015 l 521 1000 q 479 865 493 972 q 471 685 471 785 q 457 651 471 665 q 424 638 443 638 q 389 651 403 638 q 375 685 375 665 q 388 897 375 813 l 386 906 q 325 982 386 961 q 271 992 294 992 q 225 985 244 992 q 204 967 206 978 q 199 882 199 926 q 213 721 199 818 q 288 557 226 624 l 311 557 q 451 529 432 557 q 461 501 461 517 l 461 494 q 414 454 453 454 l 406 454 q 314 461 353 461 q 178 417 211 461 q 157 372 157 388 q 142 315 150 354 q 125 185 125 243 q 136 125 125 131 q 310 96 167 101 m 321 0 q 78 47 146 0 l 76 49 q 28 188 28 88 q 31 240 28 211 q 65 404 40 335 q 183 535 94 497 q 103 876 103 657 q 108 978 103 928 q 279 1088 132 1088 l 286 1088 q 426 1032 378 1081 q 464 1078 442 1061 q 593 1111 508 1111 q 625 1110 621 1111 l 626 1110 q 749 983 749 1097 l 750 893 q 738 675 750 792 q 729 551 732 617 q 713 360 725 454 l 707 321 q 539 26 685 76 q 321 0 453 0 z "},"z":{"ha":778,"x_min":28,"x_max":750,"o":"m 463 0 q 356 3 411 0 q 244 6 301 6 q 101 76 160 6 q 28 338 28 176 q 150 618 28 543 q 76 940 90 717 q 75 950 76 946 l 74 974 q 76 1005 74 985 q 100 1053 78 1025 q 192 1101 133 1092 q 294 1110 242 1110 l 356 1110 l 400 1111 q 545 1098 463 1111 q 681 1008 628 1085 q 750 633 750 896 q 744 541 750 588 q 704 419 739 494 q 678 376 693 396 l 692 365 q 749 199 749 315 q 699 63 749 113 q 463 0 629 0 m 444 97 q 542 100 485 97 q 653 197 653 106 q 628 293 651 271 q 578 307 610 307 q 509 301 546 307 q 438 296 472 296 l 361 299 q 321 346 321 307 q 339 385 321 371 q 368 394 351 394 q 418 393 397 394 l 432 393 q 498 397 463 393 q 571 403 533 401 q 617 458 604 433 l 617 460 q 650 565 644 519 q 654 640 654 597 q 599 958 654 868 q 494 1008 567 1001 q 390 1015 440 1015 q 356 1014 374 1015 q 319 1013 338 1013 l 290 1013 q 193 1003 228 1013 q 175 992 175 996 q 169 976 169 986 l 172 947 l 172 946 q 194 776 176 860 q 243 651 213 693 q 363 663 283 663 l 517 658 q 551 644 538 658 q 564 610 564 631 q 550 576 564 589 q 517 563 536 563 l 515 563 q 410 564 453 563 l 350 565 q 295 563 324 565 q 221 544 267 561 q 133 422 154 525 q 124 333 124 379 q 176 138 124 207 q 244 101 203 101 q 361 99 304 101 l 444 97 z "},"A":{"ha":778,"x_min":28,"x_max":750,"o":"m 375 539 q 340 553 354 539 q 326 586 326 567 l 329 871 q 343 904 329 890 q 378 918 357 918 q 411 904 397 918 q 425 871 425 890 l 422 586 q 408 553 422 567 q 375 539 394 539 m 256 0 q 64 72 111 0 q 63 74 63 72 q 31 192 35 125 q 28 269 28 231 l 31 369 l 29 415 q 163 1022 57 926 q 300 1099 214 1074 q 381 1111 342 1111 q 464 1097 424 1111 q 718 768 663 1028 l 719 767 q 747 425 747 604 l 747 424 q 749 378 747 403 q 750 326 750 353 q 737 176 750 261 q 643 33 724 90 q 542 10 600 10 q 498 10 535 10 q 410 44 461 11 q 256 0 360 0 m 272 97 q 353 129 344 103 q 342 243 342 185 q 343 290 342 267 q 344 332 344 314 q 358 363 344 350 q 393 376 372 376 q 426 363 413 376 q 440 329 440 350 l 439 231 q 440 185 439 215 q 458 131 440 154 l 458 129 q 518 107 467 117 l 543 106 q 649 226 635 106 q 653 319 653 274 q 624 749 653 592 q 432 1007 578 956 q 382 1015 422 1015 q 310 1001 354 1015 q 229 953 265 988 q 125 414 158 908 q 126 368 126 392 l 124 267 q 126 198 124 239 q 144 124 128 157 q 188 104 153 113 q 250 96 214 96 l 272 97 z "},"B":{"ha":778,"x_min":28,"x_max":750,"o":"m 367 682 q 332 696 346 682 q 318 731 318 710 q 317 822 318 775 q 315 915 315 868 q 329 950 315 936 q 363 964 343 964 q 397 950 383 964 q 411 915 411 936 q 413 824 411 871 q 414 731 414 778 q 400 696 414 710 q 367 682 386 682 m 343 165 q 328 168 336 165 q 296 213 296 182 q 299 231 296 222 q 311 335 311 279 q 310 374 311 353 q 308 421 308 396 q 322 454 308 440 q 357 468 336 468 q 390 454 376 468 q 404 419 404 440 q 406 376 404 399 q 408 332 408 354 q 389 199 408 267 q 343 165 374 165 m 349 0 q 101 67 188 0 q 29 204 33 122 q 28 313 28 242 q 29 394 29 338 l 29 447 q 37 689 29 563 q 83 947 44 815 q 333 1111 131 1111 q 510 1089 410 1111 q 699 908 675 1057 q 710 814 710 858 q 638 629 710 704 l 636 628 q 600 597 624 615 q 665 557 638 582 l 665 556 q 750 333 750 467 q 550 38 750 122 q 349 0 460 0 m 347 96 q 647 272 600 96 l 647 274 q 654 333 654 301 q 648 399 654 357 q 599 486 642 440 q 438 528 549 528 q 385 525 411 528 l 378 525 q 347 537 363 525 q 332 574 332 549 q 342 604 332 590 q 443 625 358 625 l 461 625 q 569 697 511 643 q 614 814 614 742 q 604 888 614 847 l 604 889 q 574 958 597 933 q 489 996 550 982 q 336 1015 396 1015 q 175 921 199 1015 l 175 919 q 132 668 139 797 q 125 446 125 556 l 125 311 q 124 265 124 289 l 125 208 q 167 138 129 164 q 253 104 204 111 l 254 104 q 347 96 301 96 z "},"C":{"ha":778,"x_min":28,"x_max":750,"o":"m 376 0 q 207 26 279 0 q 50 225 92 75 q 28 428 28 308 q 42 592 28 482 q 80 813 56 703 q 136 985 104 922 q 264 1083 178 1054 q 428 1111 350 1111 q 693 999 604 1111 q 750 838 750 929 q 615 599 750 688 q 656 561 638 585 q 715 339 715 472 q 703 207 715 268 q 536 24 675 74 q 376 0 474 0 m 376 96 q 501 114 456 97 l 503 114 q 582 167 560 136 q 618 342 618 218 q 617 401 618 356 q 578 504 615 446 q 468 532 557 532 q 357 529 421 532 q 324 543 338 529 q 308 576 310 557 q 322 611 308 597 q 356 626 335 625 q 582 693 500 631 q 654 835 654 750 q 620 937 654 886 q 501 1007 586 988 l 500 1007 q 428 1015 467 1015 q 298 994 356 1015 q 221 939 240 972 q 173 789 194 889 q 138 585 151 689 q 124 428 124 481 q 131 307 124 371 q 165 191 139 243 q 244 117 190 139 q 376 96 297 96 z "},"D":{"ha":778,"x_min":28,"x_max":750,"o":"m 329 274 q 294 288 308 274 q 281 321 281 301 q 290 566 281 431 q 299 806 299 701 q 313 840 299 826 q 347 854 328 854 q 382 840 368 854 q 396 806 396 826 q 386 562 396 697 q 376 321 376 426 q 363 288 376 301 q 329 274 349 274 m 301 0 q 181 8 239 0 q 28 186 28 32 l 29 208 l 28 601 q 42 953 28 869 q 115 1067 58 1033 q 346 1111 194 1111 q 561 1075 468 1111 l 563 1074 q 721 854 682 1007 q 750 629 750 756 q 743 458 750 544 q 696 214 743 335 q 474 24 632 76 q 301 0 400 0 m 301 96 q 442 115 388 96 l 443 115 q 607 252 569 160 q 646 457 644 344 l 647 472 q 653 621 653 543 l 653 690 q 629 824 653 744 l 629 825 q 522 986 593 947 q 346 1015 450 1015 q 269 1011 306 1015 l 269 1010 q 164 983 189 1001 q 136 935 139 964 q 125 651 125 865 l 126 219 l 125 196 q 135 133 125 156 q 194 104 144 111 l 196 104 q 301 96 246 96 z "},"E":{"ha":778,"x_min":28,"x_max":750,"o":"m 363 582 q 322 604 335 582 q 314 631 314 617 l 315 640 q 322 729 322 682 q 318 803 322 764 q 314 917 314 858 q 329 950 315 938 q 364 963 343 963 q 397 948 385 961 q 410 917 410 935 l 410 913 q 414 810 410 864 q 418 731 418 769 q 410 619 418 675 q 363 582 400 582 m 369 0 q 117 79 217 1 q 44 188 56 132 q 36 265 36 226 l 38 293 q 33 450 38 389 q 28 576 28 511 q 38 764 28 665 l 44 894 q 217 1092 53 1053 l 218 1092 q 392 1111 303 1111 q 457 1108 424 1111 q 669 990 633 1089 l 669 989 q 703 819 703 900 q 650 576 703 714 q 593 474 628 518 l 618 469 q 738 376 708 449 q 750 290 750 333 l 747 229 q 657 65 747 119 q 465 8 588 28 q 369 0 417 0 m 367 96 q 449 103 406 96 q 609 149 567 124 q 651 229 651 175 l 653 289 q 644 346 653 326 q 335 394 624 394 q 301 408 315 394 q 288 442 288 422 q 301 476 288 463 q 335 490 315 490 q 478 486 415 490 q 560 608 539 551 q 607 822 607 736 q 581 951 607 888 q 400 1015 547 1015 q 238 997 322 1015 q 161 958 181 985 q 140 890 142 932 l 133 757 q 124 576 124 660 q 128 455 124 517 q 133 328 133 393 l 132 263 q 138 208 132 235 q 176 154 143 182 q 367 96 253 96 z "},"F":{"ha":778,"x_min":28,"x_max":750,"o":"m 390 96 q 522 104 469 96 q 587 135 574 113 q 600 193 600 157 q 582 271 600 222 q 515 413 543 374 l 478 413 q 429 461 432 415 q 444 496 431 482 q 478 510 458 510 q 636 522 611 510 q 650 581 650 533 q 631 678 650 669 q 518 696 596 693 l 503 696 q 468 696 486 696 q 436 710 450 696 q 422 743 422 724 q 436 778 422 764 q 469 792 450 792 l 519 792 q 635 817 607 792 q 653 886 653 838 q 618 989 653 960 q 507 1015 582 1015 q 425 1008 467 1015 q 296 990 314 997 l 292 986 q 269 768 269 964 l 294 768 q 328 754 314 768 q 342 721 342 740 q 328 686 342 700 q 294 672 314 672 l 221 672 q 146 664 165 672 q 135 635 140 661 q 124 560 124 585 q 138 519 124 536 q 294 514 164 515 q 328 501 314 514 q 342 467 342 488 q 328 433 342 446 q 294 418 315 419 l 261 418 q 197 265 228 353 q 165 149 165 178 q 390 96 165 96 m 392 0 q 261 4 333 0 q 81 96 133 11 q 68 144 68 113 q 77 215 68 165 q 156 421 86 264 q 78 442 94 425 q 28 557 28 493 q 39 647 28 604 l 40 649 l 42 661 l 43 661 q 90 743 57 722 q 172 767 124 764 q 197 1017 172 954 q 365 1099 229 1096 q 508 1111 469 1111 q 578 1108 532 1111 q 678 1064 625 1104 q 750 888 746 1008 q 704 751 750 799 q 700 747 703 749 q 740 675 739 711 q 746 593 746 632 q 742 523 746 567 q 692 443 739 479 q 621 421 663 425 q 696 190 696 282 q 688 129 696 167 q 647 57 681 92 q 533 8 613 22 q 392 0 476 0 z "},"G":{"ha":778,"x_min":28,"x_max":750,"o":"m 453 0 l 372 0 q 139 72 235 4 q 28 290 28 154 q 31 476 28 425 q 179 1000 44 836 q 400 1111 278 1111 q 524 1097 472 1111 q 626 1039 576 1082 q 688 929 683 985 l 689 897 q 682 835 689 861 q 593 647 671 764 q 675 624 639 646 q 750 469 749 576 q 740 382 750 439 q 675 135 714 222 q 619 51 646 67 l 618 50 q 528 6 568 14 q 453 0 494 0 m 372 96 l 436 97 l 458 97 q 510 101 489 97 q 561 128 531 106 q 622 286 579 133 q 654 469 654 417 q 585 551 654 551 q 438 486 518 551 q 311 360 340 410 q 269 335 296 335 q 246 340 257 335 q 221 382 221 354 q 226 406 221 394 q 382 565 267 475 q 450 611 442 611 l 453 615 q 588 851 574 779 q 593 899 593 878 q 591 925 593 907 q 563 967 589 943 q 492 1006 529 996 q 396 1015 454 1015 q 290 974 339 1015 q 161 731 188 886 q 136 572 143 625 q 124 289 124 489 q 194 150 124 203 q 372 96 267 100 z "},"H":{"ha":778,"x_min":28,"x_max":750,"o":"m 201 96 l 269 100 q 324 135 308 106 q 340 188 340 164 q 343 203 340 196 q 346 396 346 217 q 360 429 346 415 q 393 443 374 443 q 428 429 414 443 q 442 396 442 415 q 439 186 442 210 q 433 124 433 156 q 435 106 433 114 q 513 100 453 100 q 599 118 593 103 q 607 190 607 140 l 606 224 q 608 304 608 263 q 639 746 608 507 q 654 917 654 856 q 638 1000 654 971 q 529 1015 621 1013 q 422 1000 440 1011 q 419 963 419 986 q 421 921 419 938 q 422 892 422 904 l 421 856 q 429 739 421 765 q 432 721 432 731 q 426 699 432 711 q 382 675 414 675 q 339 707 350 675 q 324 822 324 763 l 326 892 q 325 915 326 901 q 324 942 324 929 q 322 964 324 954 q 282 986 319 985 q 240 985 258 986 q 206 983 221 983 q 142 976 156 983 q 133 939 133 971 l 132 922 q 125 765 125 844 q 133 592 125 679 q 142 390 142 490 q 140 304 142 346 q 139 221 139 263 q 136 185 139 207 q 132 119 132 139 l 133 100 q 201 96 160 96 m 199 0 q 74 19 97 0 q 38 97 40 53 l 36 129 q 42 211 36 163 l 42 221 q 44 307 42 265 q 46 390 46 349 q 36 585 46 486 q 28 758 28 672 q 36 933 28 846 q 49 1008 36 968 q 136 1076 65 1061 q 232 1081 158 1081 q 271 1082 250 1082 q 353 1067 317 1082 q 522 1111 394 1110 q 626 1103 581 1111 q 750 926 750 1082 q 739 776 750 847 l 735 736 q 706 386 713 563 l 706 385 q 704 304 704 346 q 703 219 704 263 l 703 192 q 697 115 703 160 q 657 38 692 71 q 515 3 622 6 q 368 32 403 3 l 364 38 q 281 4 331 11 q 199 0 247 0 z "},"I":{"ha":472,"x_min":28,"x_max":444,"o":"m 217 0 q 35 110 63 4 q 28 179 28 144 q 30 221 28 201 q 33 256 32 240 q 47 379 36 319 q 63 493 58 439 l 63 604 l 61 664 q 68 808 61 736 l 69 833 q 68 863 69 847 q 67 894 67 878 q 74 974 67 928 q 131 1064 82 1021 q 269 1111 193 1111 q 403 1061 349 1111 q 444 954 444 1019 q 425 506 435 867 q 417 189 419 233 q 392 93 413 128 q 217 0 336 0 m 217 96 q 286 115 264 96 q 319 193 319 144 q 328 513 319 226 q 346 961 338 861 q 333 993 346 981 q 269 1015 310 1015 q 195 990 226 1015 q 164 901 164 964 l 167 832 l 165 799 q 160 654 160 728 l 160 490 q 144 366 156 425 q 131 251 133 307 q 128 215 131 233 l 126 171 q 131 128 126 146 q 160 106 136 110 l 161 104 q 217 96 189 96 z "},"J":{"ha":778,"x_min":28,"x_max":750,"o":"m 297 96 q 378 97 321 97 q 457 102 436 97 q 513 133 478 107 q 567 202 547 158 q 592 278 586 246 l 600 321 q 631 515 619 415 q 654 813 654 725 q 644 972 654 889 q 638 1001 642 993 q 554 1015 628 1015 q 463 1003 483 1013 q 438 750 443 993 q 433 440 433 621 q 418 406 432 419 q 385 393 404 393 q 351 407 364 393 q 336 440 338 421 l 336 532 q 289 725 333 693 q 246 739 269 739 q 133 679 169 739 q 125 588 125 667 q 132 443 125 533 q 178 168 151 253 l 178 167 q 208 119 185 142 q 297 96 231 96 m 392 0 l 299 0 q 86 139 133 0 q 58 265 72 183 q 28 596 28 444 q 50 728 28 699 q 238 835 117 835 l 243 835 q 343 807 304 835 q 356 994 347 910 q 543 1111 369 1111 q 683 1086 635 1111 q 740 983 731 1061 q 750 814 750 894 q 746 711 750 781 q 694 303 733 494 l 686 261 q 652 156 681 218 q 568 53 624 94 l 567 53 q 484 10 518 19 q 392 0 450 0 z "},"K":{"ha":778,"x_min":28,"x_max":750,"o":"m 243 97 q 292 115 264 97 q 328 200 328 139 l 326 256 q 329 347 326 299 l 331 393 q 345 428 331 414 q 379 442 360 442 q 413 428 399 442 q 428 393 428 414 q 425 343 428 374 q 424 264 424 306 q 436 147 424 160 q 546 108 471 108 q 606 118 576 108 q 644 156 635 128 q 654 238 654 185 q 610 428 651 346 l 610 429 q 562 497 590 475 q 468 533 533 518 q 432 581 432 546 q 461 625 432 610 l 481 633 q 511 646 497 639 q 513 647 513 646 q 589 707 556 669 q 635 783 622 744 q 647 875 647 829 q 617 988 647 964 l 615 988 q 543 1001 593 1001 q 451 988 492 1001 l 450 986 q 422 906 435 971 q 415 767 415 858 q 401 728 415 743 q 367 714 388 714 q 333 728 347 714 q 319 767 319 743 l 319 788 q 331 942 319 869 q 328 960 328 950 q 267 1015 328 1015 q 193 989 228 1015 q 163 903 163 963 q 165 867 163 885 q 167 832 167 849 l 165 799 q 160 654 160 728 l 160 490 q 144 366 156 425 q 129 251 132 307 l 124 169 q 129 128 124 146 q 161 106 135 111 l 163 106 q 219 97 188 97 l 243 97 m 219 0 q 35 110 65 0 q 28 179 28 144 q 31 222 28 201 q 49 381 39 326 q 65 550 65 464 l 63 664 q 69 808 63 736 l 71 833 q 69 863 71 847 q 68 894 68 878 q 76 975 68 928 q 133 1065 83 1022 q 263 1111 197 1111 q 388 1060 343 1111 q 551 1099 436 1099 q 672 1067 621 1099 q 742 882 742 1015 q 726 757 742 804 q 599 588 696 657 q 697 468 660 554 q 750 240 746 368 q 746 167 750 210 q 636 26 733 65 l 635 26 q 540 13 592 13 q 381 67 447 13 q 219 0 318 0 z "},"L":{"ha":778,"x_min":28,"x_max":750,"o":"m 479 96 q 643 135 617 96 q 654 190 654 157 q 649 247 654 207 q 624 371 639 319 q 615 403 619 399 l 613 404 q 571 410 596 410 l 372 411 l 300 410 q 267 424 281 410 q 253 458 253 438 q 267 492 253 478 q 300 506 281 506 l 436 507 q 478 708 475 618 q 471 992 478 908 l 471 994 l 468 994 q 364 1015 458 1013 q 157 1003 319 1015 q 138 956 147 997 q 124 765 124 890 q 150 369 131 553 l 163 231 q 194 99 167 114 q 222 97 204 97 q 299 99 261 97 q 349 101 328 101 q 411 99 376 101 q 479 96 446 96 m 478 0 q 408 2 442 0 q 349 4 374 4 l 303 3 q 231 0 263 0 q 168 6 193 0 q 167 7 168 7 q 82 104 104 26 q 65 225 68 161 l 65 226 q 54 360 65 260 q 28 789 28 622 q 82 1064 28 1004 q 147 1099 108 1096 l 186 1103 q 340 1111 269 1111 q 424 1109 367 1111 q 531 1068 482 1107 q 567 1000 563 1040 q 575 842 575 903 l 574 797 l 574 708 q 536 507 574 633 q 575 506 558 507 q 718 390 707 506 l 718 389 l 726 351 q 750 189 750 257 q 726 85 750 131 q 725 83 725 85 q 589 7 679 18 q 478 0 533 0 z "},"M":{"ha":1097,"x_min":28,"x_max":1069,"o":"m 575 0 l 556 0 q 421 38 488 0 q 386 69 401 51 q 238 3 333 3 q 29 136 42 3 l 28 174 q 32 238 28 211 l 39 374 q 101 976 54 822 q 200 1075 124 1038 q 354 1110 271 1110 l 418 1111 q 483 1108 447 1111 q 549 1081 518 1104 q 656 1110 585 1106 q 736 1107 722 1110 q 942 1053 868 1107 q 1011 944 996 1006 q 1028 831 1026 883 l 1029 804 q 1043 633 1035 746 q 1069 179 1069 233 q 1063 110 1069 146 q 876 1 1032 1 q 715 56 781 1 q 575 0 669 1 m 575 97 q 639 114 619 97 q 651 168 651 129 l 651 222 q 656 358 651 282 q 661 497 661 433 q 658 585 661 543 q 671 620 658 604 q 706 636 683 636 q 753 590 749 636 q 758 490 758 544 q 753 350 758 425 q 747 197 747 260 q 885 99 753 99 q 969 133 958 99 q 972 165 972 144 q 965 311 972 186 q 921 910 939 829 q 881 979 911 951 q 683 1014 842 1014 q 607 1004 626 1014 q 596 951 599 985 q 597 886 597 926 q 596 819 597 846 q 547 754 596 754 q 513 768 528 754 q 499 803 499 782 l 499 951 q 486 1007 496 988 q 432 1014 479 1014 l 356 1014 q 247 990 292 1014 q 193 946 201 967 q 135 369 156 822 q 126 204 132 283 l 125 151 q 136 122 125 135 q 246 100 150 100 q 306 125 285 101 q 340 229 340 165 q 347 456 347 300 q 344 586 347 524 q 358 621 344 607 q 390 636 371 635 q 426 623 413 636 q 440 590 440 610 q 443 469 443 532 q 438 225 443 324 q 470 122 438 146 q 561 97 503 97 l 575 97 z "},"N":{"ha":778,"x_min":28,"x_max":750,"o":"m 392 1015 q 256 990 325 1015 q 192 951 197 968 q 135 372 151 817 l 126 217 q 124 160 124 185 q 135 122 125 135 q 244 100 153 100 q 304 125 285 101 q 339 229 339 165 l 340 231 q 344 458 344 311 q 343 590 344 528 q 356 624 343 610 q 393 639 369 639 q 424 626 411 639 q 439 593 438 614 q 440 458 440 528 q 436 225 440 313 q 468 122 436 146 q 560 97 500 97 q 636 114 617 97 q 649 163 649 131 l 649 197 q 653 469 653 292 q 626 925 653 842 q 542 993 614 965 q 392 1015 485 1015 m 392 1111 q 696 1003 597 1111 q 750 475 750 949 q 744 194 750 303 l 746 164 q 741 113 746 144 q 704 47 736 82 q 571 0 660 0 l 553 0 q 419 38 486 0 q 385 71 400 51 q 239 3 331 3 q 29 136 42 3 l 28 174 q 32 239 28 211 l 39 376 q 100 982 54 832 q 223 1080 129 1049 q 392 1111 317 1111 z "},"O":{"ha":778,"x_min":28,"x_max":750,"o":"m 383 303 l 382 303 q 349 318 361 304 q 336 349 336 332 l 336 353 q 340 563 340 458 q 346 776 340 668 q 362 809 347 796 q 396 822 376 822 q 442 771 442 817 q 438 603 438 686 l 438 561 q 432 349 438 456 q 417 315 431 328 q 383 303 403 303 m 354 0 q 160 28 231 0 q 40 175 47 78 l 40 176 q 28 424 28 303 q 82 919 28 681 l 82 921 q 372 1111 138 1111 q 424 1108 397 1111 l 442 1108 q 545 1101 493 1108 q 651 1063 597 1093 q 742 944 722 1022 q 750 858 750 900 l 747 785 q 749 647 747 715 q 750 529 750 589 q 747 369 750 450 q 715 163 739 264 q 651 49 700 86 q 354 0 589 0 m 354 96 q 499 104 428 96 q 596 126 575 108 q 621 182 617 144 q 651 375 643 279 q 654 538 654 457 l 653 646 q 651 826 651 714 l 653 867 q 647 927 653 897 q 604 979 640 957 q 519 1007 564 1001 q 418 1013 475 1013 q 372 1015 393 1015 q 175 897 206 1015 q 125 426 125 671 q 136 186 125 308 q 168 133 136 156 q 354 96 218 96 z "},"P":{"ha":778,"x_min":28,"x_max":750,"o":"m 375 589 q 339 601 353 589 q 324 633 325 614 q 322 693 322 663 q 326 794 322 743 q 329 893 329 846 q 344 926 329 913 q 378 940 358 940 q 412 926 397 940 q 426 893 426 913 q 422 788 426 842 q 418 693 418 739 l 419 636 q 408 606 419 619 q 375 589 396 592 m 250 0 q 46 144 76 0 q 28 339 28 243 q 31 414 28 376 q 32 526 32 458 l 32 563 q 37 719 32 635 q 69 894 42 804 q 425 1111 135 1111 q 622 1044 549 1111 l 622 1043 q 731 867 708 956 q 750 732 750 794 l 749 693 q 700 519 749 597 q 472 396 631 411 l 472 365 q 475 265 475 315 q 475 207 475 249 q 463 117 475 165 q 380 28 443 57 q 250 0 317 0 m 250 96 q 331 110 297 96 q 369 142 364 125 q 379 242 379 181 q 376 361 379 303 l 375 440 q 388 475 375 461 q 422 489 401 489 q 647 640 619 493 q 653 731 653 678 q 556 974 653 883 q 425 1015 511 1015 q 332 1006 383 1015 q 214 957 250 992 q 128 561 128 871 l 128 526 q 126 413 128 456 q 124 340 124 375 q 139 165 124 250 q 140 164 140 165 q 161 120 143 139 q 233 97 179 101 l 250 96 z "},"Q":{"ha":778,"x_min":28,"x_max":750,"o":"m 357 419 q 322 435 335 419 q 308 469 308 450 q 312 556 311 521 q 314 622 313 590 l 314 646 q 318 778 314 697 q 334 811 319 799 q 369 824 349 824 q 401 808 389 822 q 414 776 414 794 l 414 772 q 410 621 410 697 q 389 432 410 451 q 357 419 375 419 m 383 0 l 331 1 l 294 0 q 150 21 215 0 q 40 181 53 60 q 28 428 28 306 q 82 921 28 683 l 82 922 q 211 1079 110 1031 q 372 1111 279 1111 q 425 1108 397 1111 l 439 1108 q 514 1100 485 1108 q 681 943 658 1058 q 693 824 693 881 q 654 381 693 540 q 675 369 665 376 q 750 215 749 322 q 728 122 750 156 q 658 51 706 88 l 657 51 q 557 7 606 14 q 479 1 521 1 l 449 1 l 383 0 m 475 97 q 540 101 511 97 q 597 127 568 106 q 637 161 625 149 q 651 185 649 174 q 654 215 654 197 q 586 297 654 297 q 425 232 525 297 q 410 222 411 222 q 383 214 397 214 q 343 238 361 214 q 336 263 336 250 q 360 304 336 288 q 376 314 361 304 q 557 392 483 382 q 590 594 583 490 q 596 811 596 697 q 590 908 596 856 q 546 981 583 961 q 469 1011 494 1008 q 419 1013 453 1013 q 371 1015 394 1015 q 175 899 204 1015 q 125 429 125 672 q 136 190 125 311 q 182 113 140 129 q 303 97 217 97 l 475 97 z "},"R":{"ha":778,"x_min":28,"x_max":750,"o":"m 463 0 q 344 42 382 0 q 178 0 296 0 q 78 39 118 0 q 32 176 32 90 l 28 847 q 56 987 28 914 q 193 1093 85 1060 q 340 1111 260 1111 q 424 1108 361 1111 q 572 1076 488 1106 q 693 951 657 1046 q 711 846 711 901 q 704 775 711 811 q 615 589 682 656 q 717 504 679 564 q 750 369 750 450 q 743 274 750 339 l 743 272 q 697 94 740 185 q 597 22 667 43 q 463 0 526 0 m 463 96 q 564 111 522 96 q 647 281 642 139 l 650 311 q 654 388 654 351 q 636 453 653 424 l 635 453 q 557 506 608 496 q 451 514 517 514 l 396 514 q 363 528 376 514 q 349 563 349 543 q 363 597 349 582 q 396 611 376 611 l 442 611 l 456 613 q 551 663 510 613 q 614 840 614 738 q 601 921 614 876 q 344 1015 575 1015 q 150 956 190 1015 q 125 835 125 921 q 128 453 125 639 l 128 186 q 146 107 128 129 q 178 96 157 96 q 281 114 260 96 q 299 214 299 136 l 297 396 q 313 431 299 417 q 346 444 326 444 q 394 396 392 442 l 394 226 q 417 106 396 122 q 463 96 428 96 m 350 661 q 317 675 331 661 q 303 708 303 689 q 304 810 303 765 q 306 904 306 856 q 319 939 306 925 q 354 953 333 953 q 388 939 374 953 q 401 904 401 925 q 400 808 401 853 q 399 708 399 764 q 385 675 399 689 q 350 661 371 661 z "},"S":{"ha":778,"x_min":28,"x_max":750,"o":"m 349 0 q 110 64 194 0 q 42 199 49 114 l 42 217 q 100 354 42 294 q 28 607 28 479 l 28 646 q 35 792 28 717 q 82 944 42 867 q 269 1096 140 1054 q 371 1111 322 1111 q 647 864 597 1111 q 654 786 654 824 q 622 639 654 706 q 726 518 696 601 q 750 378 750 449 q 715 203 750 292 q 461 7 651 28 q 349 0 414 1 m 347 96 l 449 103 q 626 238 583 113 l 628 239 q 654 378 654 310 q 638 485 654 432 q 490 575 607 571 l 488 575 q 386 582 433 582 q 286 574 332 582 l 278 574 q 249 582 263 574 q 228 621 228 594 q 238 650 228 636 q 393 678 256 678 q 529 668 474 678 q 558 783 558 717 q 551 846 558 814 q 372 1015 518 1015 q 297 1003 336 1015 q 167 901 207 974 q 129 768 136 838 q 125 653 125 713 l 125 624 q 188 397 125 503 q 354 417 272 417 l 404 417 q 438 402 425 417 q 451 368 451 388 q 438 333 451 347 q 404 319 425 319 l 350 319 q 250 314 307 319 q 138 215 138 301 q 347 96 138 96 z "},"T":{"ha":778,"x_min":28,"x_max":750,"o":"m 399 96 q 519 108 474 96 q 521 110 521 108 q 589 172 572 122 q 606 310 606 222 q 517 599 601 431 l 479 599 q 446 613 460 599 q 432 647 432 626 q 446 681 432 667 q 479 694 460 694 l 582 694 q 622 700 614 697 l 626 701 q 633 733 631 714 q 638 753 636 742 q 654 886 654 832 q 639 967 654 938 q 551 1010 613 1003 q 464 1015 508 1015 l 428 1014 l 324 1015 q 221 1009 278 1015 q 138 967 164 1003 q 125 906 128 954 q 142 753 125 840 l 146 733 q 154 701 150 708 l 172 697 l 233 693 q 254 694 244 693 l 303 694 q 336 681 322 694 q 350 647 350 667 q 336 613 350 626 q 303 599 322 599 l 275 599 q 258 549 269 578 q 174 215 174 299 q 176 190 174 196 q 275 102 204 108 q 399 96 346 96 m 399 0 q 268 7 340 0 q 85 158 135 21 q 78 214 78 182 q 168 579 78 318 q 175 600 171 590 q 86 633 124 601 q 51 714 56 669 l 51 715 l 47 732 q 28 892 28 824 q 56 1017 28 971 q 192 1100 104 1086 q 324 1111 258 1111 l 361 1110 l 463 1111 q 599 1099 524 1111 q 721 1017 674 1086 l 722 1017 q 750 888 750 963 q 732 732 750 814 q 728 715 731 722 l 728 714 q 693 633 724 669 q 621 601 663 606 q 701 290 701 428 q 682 144 701 217 q 544 15 646 40 q 399 0 486 0 z "},"U":{"ha":778,"x_min":28,"x_max":750,"o":"m 386 96 q 522 121 453 96 q 586 160 581 143 q 643 739 626 294 l 651 894 q 654 951 654 926 q 643 989 653 976 q 533 1011 625 1011 q 474 986 493 1010 q 439 882 439 946 l 438 881 q 433 653 433 800 q 435 521 433 583 q 422 487 435 501 q 385 472 408 472 q 353 485 367 472 q 339 518 340 497 q 338 653 338 583 q 342 886 338 799 q 310 990 342 965 q 218 1014 278 1014 q 142 997 161 1014 q 129 949 129 981 l 129 914 q 125 642 125 819 q 151 186 125 269 q 236 118 164 146 q 386 96 293 96 m 386 0 q 82 108 181 0 q 28 636 28 163 q 33 917 28 808 l 32 947 q 37 998 32 967 q 74 1064 42 1029 q 207 1111 118 1111 l 225 1111 q 358 1074 292 1111 q 393 1040 378 1060 q 539 1108 447 1108 q 749 975 736 1108 l 750 938 q 746 872 750 900 l 739 735 q 678 129 724 279 q 555 31 649 63 q 386 0 461 0 z "},"V":{"ha":778,"x_min":28,"x_max":750,"o":"m 383 96 q 415 115 397 97 q 468 175 426 125 q 607 614 513 215 q 631 776 625 699 q 651 925 636 847 q 654 957 654 936 q 571 1014 654 1014 l 556 1014 q 462 990 494 1014 q 429 886 429 965 q 433 639 433 786 q 432 518 433 576 q 417 485 431 497 q 385 472 403 472 q 349 487 363 472 q 335 521 335 501 q 338 653 338 583 q 333 881 336 768 q 228 1011 329 994 q 206 1014 215 1014 q 122 890 122 1014 q 135 740 122 818 q 142 682 140 706 q 232 382 153 564 q 282 250 258 317 q 333 147 300 199 q 383 96 367 96 m 383 0 q 250 96 313 0 q 192 218 210 164 q 143 344 169 281 q 46 675 57 546 q 40 726 44 694 q 28 886 28 800 q 83 1063 28 999 q 204 1110 129 1110 l 239 1107 q 374 1036 325 1096 q 414 1074 390 1058 q 569 1111 482 1111 q 718 1053 671 1111 q 750 947 750 1008 q 746 906 750 924 q 726 768 732 836 q 701 592 721 686 q 543 114 608 189 q 465 31 492 54 q 383 0 432 1 z "},"W":{"ha":1097,"x_min":28,"x_max":1069,"o":"m 679 0 q 615 3 650 0 q 549 31 579 7 q 442 1 513 6 q 361 4 375 1 q 156 58 229 4 q 86 167 101 106 q 68 294 71 228 l 54 478 q 28 932 28 878 q 35 1001 28 965 q 221 1110 65 1110 q 382 1056 317 1110 q 522 1111 428 1110 l 542 1111 q 676 1074 610 1111 q 711 1042 696 1060 q 860 1108 764 1108 q 1068 975 1056 1108 l 1069 938 q 1065 874 1069 900 l 1058 738 q 996 135 1043 289 q 897 36 974 74 q 743 1 826 1 l 679 0 m 742 97 q 851 121 806 97 q 904 165 896 144 q 963 742 942 289 q 971 907 965 828 l 972 960 q 961 989 972 976 q 851 1011 947 1011 q 792 986 813 1010 q 757 882 757 946 q 750 656 750 811 q 753 525 750 588 q 740 490 753 504 q 707 475 726 476 q 671 488 685 475 q 657 521 657 501 q 654 642 654 579 q 660 886 654 788 q 627 990 660 965 q 536 1014 594 1014 q 458 997 476 1013 q 446 943 446 982 l 446 889 q 441 753 446 829 q 436 614 436 678 q 439 526 436 568 q 426 491 439 507 q 392 475 414 475 q 344 521 349 475 q 339 621 339 567 q 344 761 339 686 q 350 914 350 851 q 213 1013 344 1013 q 128 978 139 1013 q 125 946 125 967 q 132 800 125 925 q 176 201 158 282 q 217 132 186 160 q 414 97 256 97 q 490 107 471 97 q 501 160 499 126 q 500 225 500 185 q 501 292 500 265 q 550 357 501 357 q 584 343 569 357 q 599 308 599 329 l 599 160 q 611 104 601 124 q 665 97 618 97 l 742 97 z "},"X":{"ha":778,"x_min":28,"x_max":750,"o":"m 500 0 q 379 43 422 0 q 346 19 365 29 l 344 18 q 253 1 307 1 q 90 57 143 1 l 89 58 q 35 211 42 126 q 32 283 32 250 q 36 354 32 322 q 97 568 54 482 q 44 675 54 606 l 38 732 q 28 839 28 785 q 31 900 28 869 q 128 1065 44 1006 q 276 1111 190 1111 q 417 1060 369 1111 q 540 1096 475 1096 l 563 1094 q 732 974 700 1081 q 750 829 750 899 q 681 592 750 685 q 740 274 740 442 q 710 94 740 158 q 597 15 686 44 q 500 0 544 0 m 504 97 q 539 100 518 97 q 625 140 610 114 q 639 201 636 160 q 644 276 644 251 q 604 519 644 396 q 532 483 572 496 q 518 481 525 481 q 472 514 488 481 q 471 531 471 522 q 503 575 471 564 q 588 631 553 593 q 633 706 622 668 l 635 708 q 654 829 654 764 q 608 986 654 963 q 546 999 581 999 q 490 990 515 999 q 457 967 464 981 q 453 960 456 963 l 456 888 q 431 694 456 715 q 394 682 415 682 q 363 698 375 685 q 350 729 350 711 l 350 733 q 358 890 358 843 q 350 990 358 975 q 275 1015 335 1015 q 186 989 222 1015 l 185 988 q 126 889 133 949 q 124 846 124 869 q 133 744 124 801 q 141 683 138 714 q 172 631 144 651 q 254 585 199 610 l 281 571 q 308 529 308 556 q 303 507 308 518 q 260 481 286 481 q 238 486 249 481 q 214 497 226 492 l 213 497 q 178 515 194 506 q 132 343 147 451 q 128 271 128 304 q 165 118 128 171 q 226 99 171 108 l 256 97 q 301 104 288 97 q 325 185 325 114 q 351 374 325 351 q 383 385 365 385 q 419 367 404 385 q 431 336 431 353 l 431 332 q 422 214 422 260 q 436 128 422 160 q 438 124 438 126 q 504 97 453 97 z "},"Y":{"ha":778,"x_min":28,"x_max":750,"o":"m 310 96 q 508 117 451 97 q 581 195 560 136 q 611 335 601 254 l 617 374 q 633 557 629 463 l 642 686 q 653 889 653 794 q 652 964 653 929 q 650 1002 651 999 q 642 1008 649 1006 q 592 1015 622 1015 q 525 1003 542 1015 l 521 1000 q 479 865 493 972 q 471 685 471 785 q 457 651 471 665 q 424 638 443 638 q 389 651 403 638 q 375 685 375 665 q 388 897 375 813 l 386 906 q 325 982 386 961 q 271 992 294 992 q 225 985 244 992 q 204 967 206 978 q 199 882 199 926 q 213 721 199 818 q 288 557 226 624 l 311 557 q 451 529 432 557 q 461 501 461 517 l 461 494 q 414 454 453 454 l 406 454 q 314 461 353 461 q 178 417 211 461 q 157 372 157 388 q 142 315 150 354 q 125 185 125 243 q 136 125 125 131 q 310 96 167 101 m 321 0 q 78 47 146 0 l 76 49 q 28 188 28 88 q 31 240 28 211 q 65 404 40 335 q 183 535 94 497 q 103 876 103 657 q 108 978 103 928 q 279 1088 132 1088 l 286 1088 q 426 1032 378 1081 q 464 1078 442 1061 q 593 1111 508 1111 q 625 1110 621 1111 l 626 1110 q 749 983 749 1097 l 750 893 q 738 675 750 792 q 729 551 732 617 q 713 360 725 454 l 707 321 q 539 26 685 76 q 321 0 453 0 z "},"Z":{"ha":778,"x_min":28,"x_max":750,"o":"m 463 0 q 356 3 411 0 q 244 6 301 6 q 101 76 160 6 q 28 338 28 176 q 150 618 28 543 q 76 940 90 717 q 75 950 76 946 l 74 974 q 76 1005 74 985 q 100 1053 78 1025 q 192 1101 133 1092 q 294 1110 242 1110 l 356 1110 l 400 1111 q 545 1098 463 1111 q 681 1008 628 1085 q 750 633 750 896 q 744 541 750 588 q 704 419 739 494 q 678 376 693 396 l 692 365 q 749 199 749 315 q 699 63 749 113 q 463 0 629 0 m 444 97 q 542 100 485 97 q 653 197 653 106 q 628 293 651 271 q 578 307 610 307 q 509 301 546 307 q 438 296 472 296 l 361 299 q 321 346 321 307 q 339 385 321 371 q 368 394 351 394 q 418 393 397 394 l 432 393 q 498 397 463 393 q 571 403 533 401 q 617 458 604 433 l 617 460 q 650 565 644 519 q 654 640 654 597 q 599 958 654 868 q 494 1008 567 1001 q 390 1015 440 1015 q 356 1014 374 1015 q 319 1013 338 1013 l 290 1013 q 193 1003 228 1013 q 175 992 175 996 q 169 976 169 986 l 172 947 l 172 946 q 194 776 176 860 q 243 651 213 693 q 363 663 283 663 l 517 658 q 551 644 538 658 q 564 610 564 631 q 550 576 564 589 q 517 563 536 563 l 515 563 q 410 564 453 563 l 350 565 q 295 563 324 565 q 221 544 267 561 q 133 422 154 525 q 124 333 124 379 q 176 138 124 207 q 244 101 203 101 q 361 99 304 101 l 444 97 z "},".":{"ha":472,"x_min":28,"x_max":444,"o":"m 181 0 q 110 8 138 0 l 108 8 q 49 47 74 17 q 28 167 28 85 q 35 233 28 199 q 38 235 38 233 q 101 315 54 283 q 206 347 149 347 q 288 344 246 347 q 424 275 385 338 q 444 183 444 239 q 438 110 444 150 q 363 17 424 40 q 219 1 319 1 l 181 0 m 215 99 l 247 100 q 326 107 306 100 q 340 126 338 111 l 340 128 q 346 181 346 160 q 338 228 346 217 q 335 232 338 229 q 211 250 311 250 q 159 237 181 250 q 132 206 138 224 q 126 168 126 188 l 131 104 q 139 101 133 104 q 215 99 153 99 z "},":":{"ha":472,"x_min":28,"x_max":444,"o":"m 181 0 q 110 8 138 0 l 108 8 q 49 47 74 17 q 28 167 28 85 q 35 233 28 199 q 101 315 54 283 q 206 347 149 347 q 288 344 246 347 q 424 275 385 338 q 444 183 444 239 q 438 110 444 150 q 363 17 424 40 q 219 1 319 1 l 181 0 m 215 99 l 247 100 q 326 107 306 100 q 340 126 338 111 l 340 128 q 346 181 346 160 q 338 228 346 217 q 335 232 338 229 q 211 250 311 250 q 159 237 181 250 q 132 206 138 224 q 126 168 126 188 l 131 104 q 139 101 133 104 q 215 99 153 99 m 292 833 q 363 825 335 833 l 364 825 q 424 786 399 817 q 444 667 444 749 q 435 599 444 635 q 371 518 418 550 q 267 486 324 486 q 185 489 226 486 q 49 558 88 496 q 28 650 28 594 q 35 724 28 683 q 110 817 49 793 q 253 832 153 832 l 292 833 m 257 735 l 225 733 q 146 726 167 733 q 132 707 135 722 l 132 706 q 126 653 126 674 q 135 606 126 617 q 138 601 135 604 q 261 583 161 583 q 313 597 292 583 q 340 628 335 610 q 346 665 346 646 l 342 729 q 333 732 339 729 q 257 735 319 735 z "},",":{"ha":472,"x_min":28,"x_max":444,"o":"m 190 -139 q 72 -92 117 -139 q 28 -1 28 -46 q 81 88 28 56 q 38 189 38 138 q 47 238 38 214 q 256 347 88 340 q 440 203 419 344 q 444 113 444 158 l 443 67 q 342 -96 438 -40 q 190 -139 267 -139 m 188 -39 q 293 -8 242 -39 q 332 22 325 10 q 346 103 346 58 q 343 194 346 158 q 258 247 333 247 q 136 189 136 240 q 176 131 136 168 q 221 143 206 143 q 268 93 268 143 q 236 46 268 60 q 128 -1 150 15 q 188 -39 142 -39 z "},";":{"ha":472,"x_min":28,"x_max":444,"o":"m 190 -139 q 72 -92 117 -139 q 28 -1 28 -46 q 81 88 28 56 q 38 189 38 138 q 47 238 38 214 q 256 347 88 340 q 440 203 419 344 q 444 113 444 158 l 443 67 q 342 -96 438 -40 q 190 -139 267 -139 m 188 -39 q 293 -8 242 -39 q 332 22 325 10 q 346 103 346 58 q 343 194 346 158 q 258 247 333 247 q 136 189 136 240 q 176 131 136 168 q 221 143 206 143 q 268 93 268 143 q 236 46 268 60 q 128 -1 150 15 q 188 -39 142 -39 m 292 486 l 253 488 q 110 503 153 488 q 35 596 49 526 q 28 669 28 636 q 49 761 28 725 q 185 831 88 824 q 267 833 226 833 q 371 801 324 833 q 435 721 418 769 q 444 653 444 685 q 424 533 444 571 q 364 494 399 503 l 363 494 q 292 486 335 486 m 257 585 q 333 588 319 585 q 342 590 339 590 l 346 654 q 340 692 346 674 q 313 723 335 710 q 261 736 292 736 q 138 718 161 736 q 135 714 135 715 q 126 667 126 703 q 132 614 126 646 l 132 613 q 146 593 135 597 q 225 586 167 586 l 257 585 z "},"'":{"ha":472,"x_min":28,"x_max":444,"o":"m 285 625 l 239 625 q 176 633 208 625 q 117 682 143 642 l 74 774 q 33 888 36 860 q 28 949 28 940 q 28 972 28 956 q 47 1022 29 989 q 108 1081 69 1061 q 184 1106 146 1100 q 244 1111 222 1111 q 362 1079 299 1111 q 440 986 425 1047 q 444 917 444 953 q 443 896 443 908 q 410 793 442 868 q 354 681 385 729 q 285 625 324 625 m 267 725 q 297 781 279 744 q 328 851 314 817 q 344 899 342 886 q 347 920 346 913 q 347 933 347 928 q 343 969 347 949 q 313 993 343 979 q 244 1011 275 1011 q 126 946 126 1011 q 128 924 126 936 q 131 897 129 913 q 150 849 135 883 q 201 735 189 753 q 211 726 204 726 q 267 725 218 725 z "},"\"":{"ha":778,"x_min":28,"x_max":750,"o":"m 621 625 l 581 625 q 485 688 514 625 q 467 738 481 696 q 422 889 428 846 q 421 915 422 901 q 419 944 419 929 q 432 1017 419 981 q 590 1111 478 1111 q 685 1078 633 1111 q 747 985 736 1046 q 750 917 750 961 q 749 896 749 908 q 743 863 749 883 q 720 781 726 800 q 714 760 714 763 q 685 685 701 725 q 621 625 661 625 m 597 725 q 640 853 615 765 q 653 919 653 896 l 654 944 q 651 970 653 954 q 628 999 649 986 q 590 1011 607 1011 q 540 999 564 1011 q 515 953 515 988 l 517 922 q 519 897 518 911 q 532 846 521 882 q 572 729 561 751 q 574 725 572 726 l 597 725 m 188 625 q 93 658 144 625 q 31 751 42 690 q 28 819 28 775 q 29 840 29 828 q 35 874 29 853 q 58 955 51 936 q 64 976 64 974 q 93 1051 76 1011 q 157 1111 117 1111 l 197 1111 q 293 1049 264 1111 l 313 999 q 356 847 350 892 q 357 821 356 835 q 358 792 358 807 q 346 719 358 756 q 188 625 300 625 m 188 725 q 238 738 214 725 q 263 783 263 750 l 261 814 q 258 840 260 825 q 246 890 257 854 q 206 1007 217 985 q 204 1011 206 1010 l 181 1011 q 138 883 164 971 q 125 817 125 840 l 125 803 q 125 790 125 797 q 127 766 125 782 q 150 738 129 750 q 188 725 171 725 z "},"(":{"ha":472,"x_min":28,"x_max":444,"o":"m 242 0 q 129 33 178 0 q 63 132 85 68 q 35 274 42 196 q 28 428 28 353 q 35 590 28 481 q 56 807 43 699 q 86 975 69 915 q 163 1078 110 1046 q 269 1111 217 1111 q 333 1100 304 1111 q 431 981 431 1064 q 403 840 431 921 q 349 581 365 740 l 347 521 q 404 324 347 388 q 444 225 444 272 l 444 211 q 349 29 432 89 q 242 0 303 0 m 242 96 q 292 108 276 96 l 293 108 q 346 221 338 136 l 346 226 q 326 265 346 239 q 250 522 250 350 l 251 588 q 308 868 269 765 q 333 979 333 940 q 299 1010 333 999 l 297 1010 q 269 1015 285 1015 q 219 1000 246 1015 q 181 947 192 985 q 153 794 165 896 q 134 588 142 693 q 126 428 126 482 q 136 244 126 344 q 188 110 156 131 q 242 96 210 96 z "},"!":{"ha":472,"x_min":28,"x_max":444,"o":"m 210 0 q 111 21 153 0 q 50 153 50 57 q 40 621 50 479 q 33 814 36 714 l 28 986 q 58 1067 28 1036 q 132 1104 89 1097 q 281 1111 175 1111 q 408 1067 368 1111 q 443 985 440 1032 l 444 949 q 440 885 444 918 q 436 803 436 844 l 436 710 q 435 534 436 618 q 433 282 433 450 l 433 150 q 368 21 433 56 q 246 1 333 1 l 210 0 m 246 97 q 325 108 315 97 q 335 150 335 118 l 336 297 q 253 314 313 311 q 147 297 183 314 l 147 153 q 151 115 147 131 q 189 99 156 100 q 246 97 207 97 m 147 399 q 244 410 197 410 q 336 400 289 410 q 338 534 336 469 q 339 664 339 599 l 338 801 q 343 893 339 851 l 347 960 q 335 1001 347 989 q 281 1014 324 1014 l 247 1014 q 246 1015 247 1015 q 129 1001 143 1015 q 126 990 126 999 l 126 979 q 131 817 129 906 q 147 399 146 457 z "},"?":{"ha":778,"x_min":28,"x_max":750,"o":"m 282 96 q 317 97 300 96 q 351 99 335 99 q 450 115 440 99 l 453 126 q 460 183 460 161 q 447 228 460 218 q 314 247 422 247 q 224 201 243 247 q 219 165 219 185 q 222 132 219 149 q 224 115 224 124 q 225 104 224 107 q 282 96 242 96 m 472 322 q 653 664 653 454 l 654 715 q 647 824 654 769 q 604 942 640 879 q 435 1015 553 1015 q 236 972 335 1015 q 129 800 156 932 q 124 735 124 765 q 150 619 124 669 q 394 721 236 689 q 414 724 407 722 q 426 726 421 726 q 453 717 439 726 q 474 678 474 704 q 436 631 474 642 q 176 499 222 594 q 169 463 169 482 q 225 326 169 406 q 314 343 264 343 q 472 322 419 343 m 282 0 q 208 8 236 0 l 207 8 q 146 46 171 17 q 128 107 128 71 q 126 122 128 115 l 124 161 q 132 231 124 194 q 133 232 132 232 q 150 265 139 250 q 74 464 74 374 q 89 539 74 508 q 28 733 28 618 q 35 817 28 774 q 197 1061 71 1000 q 426 1111 311 1111 q 686 992 610 1111 q 742 835 732 913 q 750 699 750 768 l 750 664 q 543 254 750 414 q 556 182 556 224 q 547 108 556 149 q 469 15 535 39 q 282 0 422 0 z "},")":{"ha":472,"x_min":28,"x_max":444,"o":"m 231 1111 q 343 1078 294 1111 q 409 979 388 1043 q 438 837 431 915 q 444 683 444 758 q 437 522 444 631 q 416 304 429 413 q 386 136 403 196 q 309 33 363 65 q 203 0 256 0 q 139 11 168 0 q 42 131 42 47 q 69 271 42 190 q 124 531 107 371 l 126 590 q 68 788 126 724 q 28 886 28 839 l 28 900 q 124 1082 40 1022 q 231 1111 169 1111 m 231 1015 q 181 1003 196 1015 l 179 1003 q 126 890 135 975 l 126 886 q 146 846 126 872 q 224 589 224 761 l 221 524 q 164 243 203 346 q 139 132 139 171 q 174 101 139 113 l 175 101 q 203 96 188 96 q 253 111 226 96 q 292 164 281 126 q 319 317 307 215 q 338 524 331 418 q 346 683 346 629 q 336 867 346 767 q 285 1001 317 981 q 231 1015 263 1015 z "},"+":{"ha":778,"x_min":28,"x_max":750,"o":"m 383 194 q 321 203 347 194 l 319 203 q 219 386 219 243 q 136 393 146 388 l 135 393 q 32 496 42 415 l 31 513 q 28 553 28 532 q 38 624 28 588 l 38 626 q 222 725 78 725 q 239 847 222 797 q 314 915 265 915 l 386 917 q 447 911 421 917 q 544 833 518 897 q 560 722 560 789 q 689 703 642 722 q 749 633 749 676 l 749 594 q 750 563 750 579 q 744 497 750 532 q 667 400 733 425 q 560 386 624 386 q 551 301 557 313 l 551 300 q 524 238 544 271 q 433 197 499 197 l 383 194 m 383 290 q 425 293 403 290 l 446 294 q 460 328 450 300 q 464 433 464 332 q 478 467 465 454 q 514 481 492 481 q 544 482 536 482 q 603 485 582 482 q 646 501 639 489 l 650 514 q 654 564 654 539 l 653 614 q 510 629 631 624 q 476 644 490 631 q 463 711 463 657 q 460 769 463 749 q 443 813 456 806 l 431 817 q 356 819 411 819 l 331 818 q 317 676 321 796 q 301 644 314 657 q 268 631 289 632 q 188 628 206 631 q 129 597 140 622 q 124 553 124 576 q 126 519 124 538 q 128 505 128 511 q 131 497 128 499 q 161 485 133 494 q 267 481 169 481 q 314 433 311 478 q 317 354 314 372 q 347 294 322 307 q 383 290 363 290 z "},"-":{"ha":472,"x_min":28,"x_max":444,"o":"m 292 729 q 363 721 335 729 l 364 721 q 424 682 399 713 q 444 563 444 644 q 438 496 444 531 q 371 414 418 446 q 267 382 324 382 q 185 385 226 382 q 49 454 88 392 q 28 546 28 490 q 35 619 28 579 q 110 713 49 689 q 253 728 153 728 l 292 729 m 257 631 l 225 629 q 146 622 167 629 q 132 603 135 618 l 132 601 q 126 549 126 569 q 135 501 126 513 q 138 497 135 500 q 261 479 161 479 q 313 492 292 479 q 340 524 335 506 q 346 561 346 542 l 342 625 l 333 628 q 257 631 319 631 z "},"*":{"ha":778,"x_min":28,"x_max":750,"o":"m 257 389 q 222 393 239 389 q 118 529 131 421 l 118 544 q 136 624 118 588 q 44 708 78 654 q 28 774 28 740 q 35 818 28 796 q 172 911 65 911 q 236 901 204 911 q 250 983 236 942 q 407 1111 299 1111 q 538 951 538 1111 l 538 939 l 539 911 q 626 932 585 932 q 731 881 696 932 q 750 797 750 849 q 715 707 750 744 q 635 661 679 672 q 656 565 656 613 q 579 428 656 465 l 578 428 q 513 414 544 414 q 386 472 438 414 q 257 389 339 389 m 256 485 q 278 492 267 485 q 329 599 317 521 q 376 640 336 640 q 424 601 417 640 q 481 518 436 544 q 513 510 496 510 q 539 515 525 510 q 558 567 558 525 q 549 617 558 589 q 523 662 540 644 q 506 699 506 679 q 508 715 506 707 q 554 746 524 746 q 644 772 614 746 q 654 801 654 782 l 654 803 q 644 833 651 831 q 626 836 644 836 q 522 799 588 831 q 500 793 511 793 q 456 824 469 793 q 442 937 442 874 q 432 1010 442 1000 q 410 1014 429 1014 l 399 1014 q 342 951 363 1011 q 332 900 332 924 q 350 847 332 864 q 368 807 368 829 q 355 772 368 788 q 318 757 342 757 q 288 768 301 757 q 233 801 268 786 q 168 815 199 815 q 124 775 124 815 q 174 714 124 743 q 233 685 203 694 q 267 643 264 676 q 238 596 267 610 q 214 546 214 585 q 222 507 214 521 q 256 485 232 485 z "},"/":{"ha":778,"x_min":28,"x_max":750,"o":"m 243 0 q 82 65 147 0 q 28 175 28 110 q 68 308 28 232 q 100 379 86 344 l 100 381 q 381 985 282 821 q 486 1103 447 1092 q 547 1111 515 1111 q 724 1024 653 1111 q 750 939 750 982 q 736 874 750 903 q 544 436 690 786 l 446 201 l 415 125 q 358 46 390 72 q 243 0 306 0 m 243 97 q 263 100 249 97 q 294 117 278 103 q 326 164 311 132 l 358 238 q 459 479 400 339 q 572 743 518 619 q 650 917 625 867 q 654 936 654 926 q 643 969 654 954 q 547 1015 613 1015 q 517 1010 532 1015 q 444 903 503 1006 q 258 508 375 776 q 172 303 179 322 q 156 267 164 283 q 124 175 124 204 q 143 139 124 154 q 144 138 144 139 q 243 97 193 97 z "},"=":{"ha":778,"x_min":28,"x_max":750,"o":"m 333 486 q 690 460 632 486 q 749 390 749 435 l 749 351 l 750 321 q 744 254 750 289 q 667 156 732 181 q 544 142 621 142 l 504 140 q 331 139 428 139 q 147 146 189 139 q 137 147 139 147 q 135 149 135 147 q 32 253 43 169 l 31 269 q 28 310 28 289 q 36 382 28 344 l 38 383 q 214 485 76 485 l 333 486 m 214 388 q 188 385 206 388 q 152 376 169 383 q 130 352 135 369 q 125 311 125 335 q 126 278 125 294 q 128 262 128 268 q 131 253 128 256 q 161 242 133 251 q 178 240 164 242 q 228 238 193 239 q 331 238 264 238 q 503 239 426 238 l 544 239 q 633 247 614 239 q 650 271 646 253 q 654 321 654 294 l 653 371 q 333 388 617 388 l 214 388 m 333 625 l 214 626 q 38 728 76 626 l 36 729 q 28 801 28 767 q 31 842 28 822 l 32 858 q 135 963 43 942 q 137 964 135 964 q 147 965 139 964 q 331 972 189 972 q 504 971 428 972 l 544 969 q 667 956 621 969 q 744 857 732 931 q 750 790 750 822 l 749 760 l 749 721 q 690 651 749 676 q 333 625 632 625 m 214 724 l 333 724 q 653 740 617 724 l 654 790 q 650 840 654 817 q 633 864 646 858 q 544 872 614 872 l 503 872 q 331 874 426 874 q 228 873 264 874 q 178 871 193 872 q 161 869 164 869 q 131 858 133 860 q 128 849 128 856 q 126 833 128 843 q 125 800 125 817 q 130 759 125 776 q 152 735 135 742 q 188 726 169 728 q 214 724 206 724 z "},"\\":{"ha":778,"x_min":28,"x_max":750,"o":"m 243 1111 q 358 1067 306 1111 q 415 986 390 1039 l 446 910 l 544 675 q 736 238 690 325 q 750 172 750 208 q 724 88 750 129 q 547 0 653 0 q 486 8 515 0 q 381 128 447 19 q 100 731 282 290 l 100 732 q 68 803 86 767 q 28 936 28 879 q 82 1046 28 1001 q 243 1111 147 1111 m 243 1014 q 144 974 193 1014 q 143 972 144 972 q 124 936 124 957 q 156 844 124 907 q 172 808 164 828 q 258 604 179 789 q 444 208 375 335 q 517 101 503 106 q 547 96 532 96 q 643 142 613 96 q 654 175 654 157 q 650 194 654 185 q 572 368 625 244 q 459 632 518 492 q 358 874 400 772 l 326 947 q 294 994 311 979 q 263 1011 278 1008 q 243 1014 249 1014 z "},"☡":{"ha":778,"x_min":28,"x_max":750,"o":"m 201 0 q 90 42 133 0 q 38 165 46 90 q 29 308 29 232 l 29 421 l 28 508 q 36 719 28 621 q 43 863 40 786 q 131 1033 47 964 q 333 1111 214 1103 l 363 1111 q 510 1096 451 1111 q 649 995 607 1068 q 692 754 692 922 q 653 476 692 601 l 664 474 q 736 394 722 450 q 750 263 750 338 q 654 22 750 65 q 600 9 629 11 q 525 7 571 7 q 349 61 403 7 q 269 15 311 31 q 201 0 228 0 m 201 96 q 244 110 213 97 q 313 164 296 131 l 311 218 q 307 394 307 313 q 310 519 307 461 q 313 604 313 568 l 311 676 l 311 768 q 325 801 311 788 q 358 815 339 815 q 393 801 379 815 q 407 768 407 788 q 408 678 407 714 q 406 515 408 567 q 403 407 403 464 q 408 222 403 321 l 408 182 q 411 143 408 164 q 482 106 418 111 q 543 103 508 103 q 623 115 611 103 q 639 153 635 126 q 640 157 640 154 q 654 265 654 206 q 636 379 654 361 q 590 386 629 386 q 544 383 571 386 l 513 382 q 465 426 471 382 q 511 478 465 472 l 553 481 q 594 736 590 581 q 571 942 593 908 q 569 943 569 942 q 372 1015 532 1015 q 199 965 263 1015 q 139 858 143 922 q 132 714 136 781 q 124 507 124 615 q 125 422 124 467 q 126 331 126 376 l 126 296 q 131 191 126 244 q 158 110 135 138 q 201 96 172 96 z "},"Ɔ":{"ha":778,"x_min":28,"x_max":750,"o":"m 401 0 q 242 24 304 0 q 75 207 103 74 q 63 339 63 268 q 122 561 63 472 q 163 599 140 585 q 28 838 28 688 q 85 999 28 929 q 350 1111 174 1111 q 514 1083 428 1111 q 642 985 600 1054 q 698 813 674 922 q 736 592 722 703 q 750 428 750 482 q 728 225 750 308 q 571 26 686 75 q 401 0 497 0 m 401 96 q 534 117 481 96 q 613 191 588 139 q 647 307 639 243 q 654 428 654 371 q 640 585 654 481 q 605 789 626 689 q 557 939 583 889 q 480 994 538 972 q 350 1015 422 1015 q 278 1007 311 1015 l 276 1007 q 158 937 192 988 q 124 835 124 886 q 196 693 124 750 q 422 626 278 631 q 456 611 443 625 q 469 576 469 597 q 454 543 468 557 q 421 529 440 529 q 310 532 357 532 q 200 504 219 532 q 160 401 163 446 q 158 342 158 356 q 196 167 158 218 q 275 114 218 136 l 276 114 q 401 96 322 97 z "},"ɔ":{"ha":778,"x_min":28,"x_max":750,"o":"m 401 0 q 242 24 304 0 q 75 207 103 74 q 63 339 63 268 q 122 561 63 472 q 163 599 140 585 q 28 838 28 688 q 85 999 28 929 q 350 1111 174 1111 q 514 1083 428 1111 q 642 985 600 1054 q 698 813 674 922 q 736 592 722 703 q 750 428 750 482 q 728 225 750 308 q 571 26 686 75 q 401 0 497 0 m 401 96 q 534 117 481 96 q 613 191 588 139 q 647 307 639 243 q 654 428 654 371 q 640 585 654 481 q 605 789 626 689 q 557 939 583 889 q 480 994 538 972 q 350 1015 422 1015 q 278 1007 311 1015 l 276 1007 q 158 937 192 988 q 124 835 124 886 q 196 693 124 750 q 422 626 278 631 q 456 611 443 625 q 469 576 469 597 q 454 543 468 557 q 421 529 440 529 q 310 532 357 532 q 200 504 219 532 q 160 401 163 446 q 158 342 158 356 q 196 167 158 218 q 275 114 218 136 l 276 114 q 401 96 322 97 z "},"…":{"ha":778,"x_min":28,"x_max":750,"o":"m 633 0 l 590 1 q 486 31 521 1 q 406 0 451 0 q 288 28 331 0 q 235 6 263 8 q 144 0 197 0 q 88 10 110 0 l 86 11 q 40 56 49 31 q 31 110 31 82 l 29 126 l 28 160 q 33 228 28 193 l 33 229 q 80 315 44 282 q 164 347 115 347 q 282 319 239 347 q 335 343 307 339 q 425 347 372 347 q 482 338 460 347 q 483 336 482 336 l 503 325 q 614 347 546 347 q 698 315 663 347 q 744 229 733 282 l 744 228 q 750 160 750 193 l 749 126 l 747 110 q 738 56 747 82 q 692 11 729 31 l 690 10 q 633 0 668 0 m 144 97 l 165 99 q 228 104 221 99 q 232 124 232 113 q 236 189 236 164 q 231 235 236 214 q 168 250 221 250 q 143 240 153 250 q 124 158 124 221 l 125 131 q 126 113 126 122 q 128 99 126 103 q 144 97 131 97 m 410 97 q 427 108 417 97 q 441 138 438 118 q 444 181 444 158 l 442 249 q 425 250 439 250 l 404 249 q 342 243 349 249 q 336 224 338 236 q 332 168 332 190 q 340 114 332 128 q 381 99 347 100 q 410 97 393 97 m 633 97 q 650 99 647 97 l 651 107 q 653 131 651 122 l 654 158 q 636 240 654 221 q 618 250 625 250 l 589 250 q 547 235 556 247 q 542 189 542 214 q 546 124 542 164 q 550 106 546 110 l 550 104 q 613 99 556 99 l 633 97 z "},"·":{"ha":472,"x_min":28,"x_max":444,"o":"m 181 382 q 110 390 138 382 l 108 390 q 49 429 74 399 q 28 549 28 467 q 35 615 28 581 q 101 697 54 665 q 206 729 149 729 q 288 726 246 729 q 424 657 385 719 q 444 565 444 621 q 438 492 444 532 q 363 399 424 422 q 219 383 319 383 l 181 382 m 215 481 l 247 482 q 326 489 306 482 q 340 508 338 493 l 340 510 q 346 563 346 542 q 338 610 346 599 q 335 614 338 611 q 211 632 311 632 q 159 619 181 632 q 132 588 138 606 q 126 550 126 569 l 131 486 l 139 483 q 215 481 153 481 z "},"∙":{"ha":472,"x_min":28,"x_max":444,"o":"m 292 729 q 363 721 335 729 l 364 721 q 424 682 399 713 q 444 563 444 644 q 438 496 444 531 q 371 414 418 446 q 267 382 324 382 q 185 385 226 382 q 49 454 88 392 q 28 546 28 490 q 35 619 28 579 q 110 713 49 689 q 253 728 153 728 l 292 729 m 257 631 l 225 629 q 146 622 167 629 q 132 603 135 618 l 132 601 q 126 549 126 569 q 135 501 126 513 q 138 497 135 500 q 261 479 161 479 q 313 492 292 479 q 340 524 335 506 q 346 561 346 542 l 342 625 l 333 628 q 257 631 319 631 z "},"•":{"ha":778,"x_min":28,"x_max":750,"o":"m 411 194 q 143 249 249 194 q 33 410 33 308 l 33 411 q 28 538 28 471 q 42 660 28 603 l 42 661 q 101 774 60 715 q 201 875 142 833 q 328 917 261 917 q 717 736 625 917 q 750 571 750 671 q 736 432 750 508 q 631 257 718 319 q 411 194 544 194 m 411 290 q 642 447 614 290 l 642 449 q 654 571 654 521 q 651 628 654 592 q 632 693 647 665 q 585 751 617 721 q 492 800 553 781 q 328 819 431 819 q 215 760 272 819 q 133 632 157 700 q 125 543 125 593 q 129 417 125 472 l 131 396 q 189 333 135 363 q 411 290 264 290 z "},"ʹ":{"ha":472,"x_min":28,"x_max":444,"o":"m 285 625 l 239 625 q 176 633 208 625 q 117 682 143 642 l 74 774 q 33 888 36 860 q 28 949 28 940 q 28 972 28 956 q 47 1022 29 989 q 108 1081 69 1061 q 184 1106 146 1100 q 244 1111 222 1111 q 362 1079 299 1111 q 440 986 425 1047 q 444 917 444 953 q 443 896 443 908 q 410 793 442 868 q 354 681 385 729 q 285 625 324 625 m 267 725 q 297 781 279 744 q 328 851 314 817 q 344 899 342 886 q 347 920 346 913 q 347 933 347 928 q 343 969 347 949 q 313 993 343 979 q 244 1011 275 1011 q 126 946 126 1011 q 128 924 126 936 q 131 897 129 913 q 150 849 135 883 q 201 735 189 753 q 211 726 204 726 q 267 725 218 725 z "},"ʺ":{"ha":778,"x_min":28,"x_max":750,"o":"m 621 625 l 581 625 q 485 688 514 625 q 467 738 481 696 q 422 889 428 846 q 421 915 422 901 q 419 944 419 929 q 432 1017 419 981 q 590 1111 478 1111 q 685 1078 633 1111 q 747 985 736 1046 q 750 917 750 961 q 749 896 749 908 q 743 863 749 883 q 720 781 726 800 q 714 760 714 763 q 685 685 701 725 q 621 625 661 625 m 597 725 q 640 853 615 765 q 653 919 653 896 l 654 944 q 651 970 653 954 q 628 999 649 986 q 590 1011 607 1011 q 540 999 564 1011 q 515 953 515 988 l 517 922 q 519 897 518 911 q 532 846 521 882 q 572 729 561 751 q 574 725 572 726 l 597 725 m 188 625 q 93 658 144 625 q 31 751 42 690 q 28 819 28 775 q 29 840 29 828 q 35 874 29 853 q 58 955 51 936 q 64 976 64 974 q 93 1051 76 1011 q 157 1111 117 1111 l 197 1111 q 293 1049 264 1111 l 313 999 q 356 847 350 892 q 357 821 356 835 q 358 792 358 807 q 346 719 358 756 q 188 625 300 625 m 188 725 q 238 738 214 725 q 263 783 263 750 l 261 814 q 258 840 260 825 q 246 890 257 854 q 206 1007 217 985 q 204 1011 206 1010 l 181 1011 q 138 883 164 971 q 125 817 125 840 l 125 803 q 125 790 125 797 q 127 766 125 782 q 150 738 129 750 q 188 725 171 725 z "},"ʻ":{"ha":472,"x_min":28,"x_max":444,"o":"m 285 625 l 239 625 q 176 633 208 625 q 117 682 143 642 l 74 774 q 33 888 36 860 q 28 949 28 940 q 28 972 28 956 q 47 1022 29 989 q 108 1081 69 1061 q 184 1106 146 1100 q 244 1111 222 1111 q 362 1079 299 1111 q 440 986 425 1047 q 444 917 444 953 q 443 896 443 908 q 410 793 442 868 q 354 681 385 729 q 285 625 324 625 m 267 725 q 297 781 279 744 q 328 851 314 817 q 344 899 342 886 q 347 920 346 913 q 347 933 347 928 q 343 969 347 949 q 313 993 343 979 q 244 1011 275 1011 q 126 946 126 1011 q 128 924 126 936 q 131 897 129 913 q 150 849 135 883 q 201 735 189 753 q 211 726 204 726 q 267 725 218 725 z "},"ʼ":{"ha":472,"x_min":28,"x_max":444,"o":"m 285 625 l 239 625 q 176 633 208 625 q 117 682 143 642 l 74 774 q 33 888 36 860 q 28 949 28 940 q 28 972 28 956 q 47 1022 29 989 q 108 1081 69 1061 q 184 1106 146 1100 q 244 1111 222 1111 q 362 1079 299 1111 q 440 986 425 1047 q 444 917 444 953 q 443 896 443 908 q 410 793 442 868 q 354 681 385 729 q 285 625 324 625 m 267 725 q 297 781 279 744 q 328 851 314 817 q 344 899 342 886 q 347 920 346 913 q 347 933 347 928 q 343 969 347 949 q 313 993 343 979 q 244 1011 275 1011 q 126 946 126 1011 q 128 924 126 936 q 131 897 129 913 q 150 849 135 883 q 201 735 189 753 q 211 726 204 726 q 267 725 218 725 z "},"ʽ":{"ha":472,"x_min":28,"x_max":444,"o":"m 285 625 l 239 625 q 176 633 208 625 q 117 682 143 642 l 74 774 q 33 888 36 860 q 28 949 28 940 q 28 972 28 956 q 47 1022 29 989 q 108 1081 69 1061 q 184 1106 146 1100 q 244 1111 222 1111 q 362 1079 299 1111 q 440 986 425 1047 q 444 917 444 953 q 443 896 443 908 q 410 793 442 868 q 354 681 385 729 q 285 625 324 625 m 267 725 q 297 781 279 744 q 328 851 314 817 q 344 899 342 886 q 347 920 346 913 q 347 933 347 928 q 343 969 347 949 q 313 993 343 979 q 244 1011 275 1011 q 126 946 126 1011 q 128 924 126 936 q 131 897 129 913 q 150 849 135 883 q 201 735 189 753 q 211 726 204 726 q 267 725 218 725 z "},"‘":{"ha":472,"x_min":28,"x_max":444,"o":"m 285 625 l 239 625 q 176 633 208 625 q 117 682 143 642 l 74 774 q 33 888 36 860 q 28 949 28 940 q 28 972 28 956 q 47 1022 29 989 q 108 1081 69 1061 q 184 1106 146 1100 q 244 1111 222 1111 q 362 1079 299 1111 q 440 986 425 1047 q 444 917 444 953 q 443 896 443 908 q 410 793 442 868 q 354 681 385 729 q 285 625 324 625 m 267 725 q 297 781 279 744 q 328 851 314 817 q 344 899 342 886 q 347 920 346 913 q 347 933 347 928 q 343 969 347 949 q 313 993 343 979 q 244 1011 275 1011 q 126 946 126 1011 q 128 924 126 936 q 131 897 129 913 q 150 849 135 883 q 201 735 189 753 q 211 726 204 726 q 267 725 218 725 z "},"’":{"ha":472,"x_min":28,"x_max":444,"o":"m 285 625 l 239 625 q 176 633 208 625 q 117 682 143 642 l 74 774 q 33 888 36 860 q 28 949 28 940 q 28 972 28 956 q 47 1022 29 989 q 108 1081 69 1061 q 184 1106 146 1100 q 244 1111 222 1111 q 362 1079 299 1111 q 440 986 425 1047 q 444 917 444 953 q 443 896 443 908 q 410 793 442 868 q 354 681 385 729 q 285 625 324 625 m 267 725 q 297 781 279 744 q 328 851 314 817 q 344 899 342 886 q 347 920 346 913 q 347 933 347 928 q 343 969 347 949 q 313 993 343 979 q 244 1011 275 1011 q 126 946 126 1011 q 128 924 126 936 q 131 897 129 913 q 150 849 135 883 q 201 735 189 753 q 211 726 204 726 q 267 725 218 725 z "},"‚":{"ha":472,"x_min":28,"x_max":444,"o":"m 285 -139 l 239 -139 q 176 -131 208 -139 q 117 -82 143 -122 l 74 10 q 33 124 36 96 q 28 185 28 176 q 28 208 28 192 q 47 258 29 225 q 108 317 69 297 q 184 342 146 336 q 244 347 222 347 q 362 315 299 347 q 440 222 425 283 q 444 153 444 189 q 443 132 443 144 q 410 29 442 104 q 354 -83 385 -35 q 285 -139 324 -139 m 267 -39 q 297 17 279 -19 q 328 88 314 53 q 344 135 342 122 q 347 156 346 149 q 347 169 347 164 q 343 206 347 185 q 313 229 343 215 q 244 247 275 247 q 126 182 126 247 q 128 160 126 172 q 131 133 129 149 q 150 85 135 119 q 201 -29 189 -11 q 211 -38 204 -37 q 267 -39 218 -39 z "},"‛":{"ha":472,"x_min":28,"x_max":444,"o":"m 285 625 l 239 625 q 176 633 208 625 q 117 682 143 642 l 74 774 q 33 888 36 860 q 28 949 28 940 q 28 972 28 956 q 47 1022 29 989 q 108 1081 69 1061 q 184 1106 146 1100 q 244 1111 222 1111 q 362 1079 299 1111 q 440 986 425 1047 q 444 917 444 953 q 443 896 443 908 q 410 793 442 868 q 354 681 385 729 q 285 625 324 625 m 267 725 q 297 781 279 744 q 328 851 314 817 q 344 899 342 886 q 347 920 346 913 q 347 933 347 928 q 343 969 347 949 q 313 993 343 979 q 244 1011 275 1011 q 126 946 126 1011 q 128 924 126 936 q 131 897 129 913 q 150 849 135 883 q 201 735 189 753 q 211 726 204 726 q 267 725 218 725 z "},"“":{"ha":778,"x_min":28,"x_max":750,"o":"m 621 625 l 581 625 q 485 688 514 625 q 467 738 481 696 q 422 889 428 846 q 421 915 422 901 q 419 944 419 929 q 432 1017 419 981 q 590 1111 478 1111 q 685 1078 633 1111 q 747 985 736 1046 q 750 917 750 961 q 749 896 749 908 q 743 863 749 883 q 720 781 726 800 q 714 760 714 763 q 685 685 701 725 q 621 625 661 625 m 597 725 q 640 853 615 765 q 653 919 653 896 l 654 944 q 651 970 653 954 q 628 999 649 986 q 590 1011 607 1011 q 540 999 564 1011 q 515 953 515 988 l 517 922 q 519 897 518 911 q 532 846 521 882 q 572 729 561 751 q 574 725 572 726 l 597 725 m 188 625 q 93 658 144 625 q 31 751 42 690 q 28 819 28 775 q 29 840 29 828 q 35 874 29 853 q 58 955 51 936 q 64 976 64 974 q 93 1051 76 1011 q 157 1111 117 1111 l 197 1111 q 293 1049 264 1111 l 313 999 q 356 847 350 892 q 357 821 356 835 q 358 792 358 807 q 346 719 358 756 q 188 625 300 625 m 188 725 q 238 738 214 725 q 263 783 263 750 l 261 814 q 258 840 260 825 q 246 890 257 854 q 206 1007 217 985 q 204 1011 206 1010 l 181 1011 q 138 883 164 971 q 125 817 125 840 l 125 803 q 125 790 125 797 q 127 766 125 782 q 150 738 129 750 q 188 725 171 725 z "},"”":{"ha":778,"x_min":28,"x_max":750,"o":"m 621 625 l 581 625 q 485 688 514 625 q 467 738 481 696 q 422 889 428 846 q 421 915 422 901 q 419 944 419 929 q 432 1017 419 981 q 590 1111 478 1111 q 685 1078 633 1111 q 747 985 736 1046 q 750 917 750 961 q 749 896 749 908 q 743 863 749 883 q 720 781 726 800 q 714 760 714 763 q 685 685 701 725 q 621 625 661 625 m 597 725 q 640 853 615 765 q 653 919 653 896 l 654 944 q 651 970 653 954 q 628 999 649 986 q 590 1011 607 1011 q 540 999 564 1011 q 515 953 515 988 l 517 922 q 519 897 518 911 q 532 846 521 882 q 572 729 561 751 q 574 725 572 726 l 597 725 m 188 625 q 93 658 144 625 q 31 751 42 690 q 28 819 28 775 q 29 840 29 828 q 35 874 29 853 q 58 955 51 936 q 64 976 64 974 q 93 1051 76 1011 q 157 1111 117 1111 l 197 1111 q 293 1049 264 1111 l 313 999 q 356 847 350 892 q 357 821 356 835 q 358 792 358 807 q 346 719 358 756 q 188 625 300 625 m 188 725 q 238 738 214 725 q 263 783 263 750 l 261 814 q 258 840 260 825 q 246 890 257 854 q 206 1007 217 985 q 204 1011 206 1010 l 181 1011 q 138 883 164 971 q 125 817 125 840 l 125 803 q 125 790 125 797 q 127 766 125 782 q 150 738 129 750 q 188 725 171 725 z "},"„":{"ha":778,"x_min":28,"x_max":750,"o":"m 621 -139 l 581 -139 q 485 -76 514 -139 q 467 -26 481 -68 q 422 125 428 82 q 421 151 422 138 q 419 181 419 165 q 432 253 419 217 q 590 347 478 347 q 685 315 633 347 q 747 221 736 282 q 750 153 750 197 q 749 132 749 144 q 743 99 749 119 q 720 17 726 36 q 714 -4 714 -1 q 685 -79 701 -39 q 621 -139 661 -139 m 597 -39 q 640 89 615 1 q 653 156 653 132 l 654 181 q 651 206 653 190 q 628 235 649 222 q 590 247 607 247 q 540 235 564 247 q 515 189 515 224 l 517 158 q 519 133 518 147 q 532 82 521 118 q 572 -35 561 -12 q 574 -39 572 -37 l 597 -39 m 188 -139 q 93 -106 144 -139 q 31 -12 42 -74 q 28 56 28 11 q 29 76 29 64 q 35 110 29 89 q 58 191 51 172 q 64 213 64 210 q 93 288 76 247 q 157 347 117 347 l 197 347 q 293 285 264 347 l 313 235 q 356 83 350 128 q 357 57 356 71 q 358 28 358 43 q 346 -44 358 -8 q 188 -139 300 -139 m 188 -39 q 238 -26 214 -39 q 263 19 263 -14 l 261 50 q 258 76 260 61 q 246 126 257 90 q 206 243 217 221 q 204 247 206 246 l 181 247 q 138 119 164 207 q 125 53 125 76 l 125 39 q 125 26 125 33 q 127 2 125 18 q 150 -26 129 -14 q 188 -39 171 -39 z "},"‟":{"ha":778,"x_min":28,"x_max":750,"o":"m 621 625 l 581 625 q 485 688 514 625 q 467 738 481 696 q 422 889 428 846 q 421 915 422 901 q 419 944 419 929 q 432 1017 419 981 q 590 1111 478 1111 q 685 1078 633 1111 q 747 985 736 1046 q 750 917 750 961 q 749 896 749 908 q 743 863 749 883 q 720 781 726 800 q 714 760 714 763 q 685 685 701 725 q 621 625 661 625 m 597 725 q 640 853 615 765 q 653 919 653 896 l 654 944 q 651 970 653 954 q 628 999 649 986 q 590 1011 607 1011 q 540 999 564 1011 q 515 953 515 988 l 517 922 q 519 897 518 911 q 532 846 521 882 q 572 729 561 751 q 574 725 572 726 l 597 725 m 188 625 q 93 658 144 625 q 31 751 42 690 q 28 819 28 775 q 29 840 29 828 q 35 874 29 853 q 58 955 51 936 q 64 976 64 974 q 93 1051 76 1011 q 157 1111 117 1111 l 197 1111 q 293 1049 264 1111 l 313 999 q 356 847 350 892 q 357 821 356 835 q 358 792 358 807 q 346 719 358 756 q 188 625 300 625 m 188 725 q 238 738 214 725 q 263 783 263 750 l 261 814 q 258 840 260 825 q 246 890 257 854 q 206 1007 217 985 q 204 1011 206 1010 l 181 1011 q 138 883 164 971 q 125 817 125 840 l 125 803 q 125 790 125 797 q 127 766 125 782 q 150 738 129 750 q 188 725 171 725 z "},"­":{"ha":472,"x_min":28,"x_max":444,"o":"m 292 729 q 363 721 335 729 l 364 721 q 424 682 399 713 q 444 563 444 644 q 438 496 444 531 q 371 414 418 446 q 267 382 324 382 q 185 385 226 382 q 49 454 88 392 q 28 546 28 490 q 35 619 28 579 q 110 713 49 689 q 253 728 153 728 l 292 729 m 257 631 l 225 629 q 146 622 167 629 q 132 603 135 618 l 132 601 q 126 549 126 569 q 135 501 126 513 q 138 497 135 500 q 261 479 161 479 q 313 492 292 479 q 340 524 335 506 q 346 561 346 542 l 342 625 l 333 628 q 257 631 319 631 z "},"−":{"ha":778,"x_min":28,"x_max":750,"o":"m 444 382 q 88 408 146 382 q 29 478 29 433 l 29 517 l 28 547 q 33 614 28 579 q 111 713 46 688 q 233 726 157 726 l 274 728 q 447 729 350 729 q 631 722 589 729 q 641 721 639 721 q 643 719 643 721 q 746 615 735 699 l 747 599 q 750 558 750 579 q 742 486 750 524 l 740 485 q 564 383 701 383 l 444 382 m 564 481 q 590 483 572 481 q 626 492 608 485 q 648 516 643 499 q 653 557 653 533 q 651 590 653 574 q 650 606 650 600 q 647 615 650 613 q 617 626 644 617 q 599 628 614 626 q 549 630 585 629 q 447 631 514 631 q 275 629 351 631 l 233 629 q 144 621 164 629 q 128 597 132 615 q 124 547 124 574 l 125 497 q 444 481 161 481 l 564 481 z "},"‒":{"ha":778,"x_min":28,"x_max":750,"o":"m 444 382 q 88 408 146 382 q 29 478 29 433 l 29 517 l 28 547 q 33 614 28 579 q 111 713 46 688 q 233 726 157 726 l 274 728 q 447 729 350 729 q 631 722 589 729 q 641 721 639 721 q 643 719 643 721 q 746 615 735 699 l 747 599 q 750 558 750 579 q 742 486 750 524 l 740 485 q 564 383 701 383 l 444 382 m 564 481 q 590 483 572 481 q 626 492 608 485 q 648 516 643 499 q 653 557 653 533 q 651 590 653 574 q 650 606 650 600 q 647 615 650 613 q 617 626 644 617 q 599 628 614 626 q 549 630 585 629 q 447 631 514 631 q 275 629 351 631 l 233 629 q 144 621 164 629 q 128 597 132 615 q 124 547 124 574 l 125 497 q 444 481 161 481 l 564 481 z "},"–":{"ha":778,"x_min":28,"x_max":750,"o":"m 444 382 q 88 408 146 382 q 29 478 29 433 l 29 517 l 28 547 q 33 614 28 579 q 111 713 46 688 q 233 726 157 726 l 274 728 q 447 729 350 729 q 631 722 589 729 q 641 721 639 721 q 643 719 643 721 q 746 615 735 699 l 747 599 q 750 558 750 579 q 742 486 750 524 l 740 485 q 564 383 701 383 l 444 382 m 564 481 q 590 483 572 481 q 626 492 608 485 q 648 516 643 499 q 653 557 653 533 q 651 590 653 574 q 650 606 650 600 q 647 615 650 613 q 617 626 644 617 q 599 628 614 626 q 549 630 585 629 q 447 631 514 631 q 275 629 351 631 l 233 629 q 144 621 164 629 q 128 597 132 615 q 124 547 124 574 l 125 497 q 444 481 161 481 l 564 481 z "},"—":{"ha":778,"x_min":28,"x_max":750,"o":"m 444 382 q 88 408 146 382 q 29 478 29 433 l 29 517 l 28 547 q 33 614 28 579 q 111 713 46 688 q 233 726 157 726 l 274 728 q 447 729 350 729 q 631 722 589 729 q 641 721 639 721 q 643 719 643 721 q 746 615 735 699 l 747 599 q 750 558 750 579 q 742 486 750 524 l 740 485 q 564 383 701 383 l 444 382 m 564 481 q 590 483 572 481 q 626 492 608 485 q 648 516 643 499 q 653 557 653 533 q 651 590 653 574 q 650 606 650 600 q 647 615 650 613 q 617 626 644 617 q 599 628 614 626 q 549 630 585 629 q 447 631 514 631 q 275 629 351 631 l 233 629 q 144 621 164 629 q 128 597 132 615 q 124 547 124 574 l 125 497 q 444 481 161 481 l 564 481 z "},"―":{"ha":1097,"x_min":28,"x_max":1069,"o":"m 417 481 l 883 481 q 910 483 892 481 q 945 492 928 485 q 967 516 963 499 q 972 557 972 533 q 971 590 972 574 q 969 606 969 600 q 967 615 969 613 q 936 626 964 617 q 919 628 933 626 q 869 630 904 629 q 628 631 833 631 l 417 631 q 275 629 339 631 l 233 629 q 144 621 164 629 q 128 597 132 615 q 124 547 124 574 l 125 497 q 417 481 160 482 m 569 729 l 767 729 q 950 722 908 729 q 960 721 958 721 q 963 719 963 721 q 1065 615 1054 699 l 1067 599 q 1069 558 1069 579 q 1061 486 1069 524 l 1060 485 q 883 383 1021 383 l 764 382 l 417 382 q 88 408 143 383 q 29 478 29 433 l 29 517 l 28 547 q 33 614 28 579 q 111 713 46 688 q 233 726 157 726 l 274 728 q 569 729 338 729 z "},"‑":{"ha":722,"x_min":0,"x_max":722,"o":"m 417 382 q 60 408 118 382 q 1 478 1 433 l 1 517 l 0 547 q 6 614 0 579 q 83 713 18 688 q 206 726 129 726 l 246 728 q 419 729 322 729 q 603 722 561 729 q 613 721 611 721 q 615 719 615 721 q 718 615 707 699 l 719 599 q 722 558 722 579 q 714 486 722 524 l 713 485 q 536 383 674 383 l 417 382 m 536 481 q 563 483 544 481 q 598 492 581 485 q 620 516 615 499 q 625 557 625 533 q 624 590 625 574 q 622 606 622 600 q 619 615 622 613 q 589 626 617 617 q 572 628 586 626 q 522 630 557 629 q 419 631 486 631 q 247 629 324 631 l 206 629 q 117 621 136 629 q 100 597 104 615 q 96 547 96 574 l 97 497 q 417 481 133 481 l 536 481 z "},"‾":{"ha":778,"x_min":28,"x_max":750,"o":"m 333 764 l 214 765 q 38 867 76 765 l 36 868 q 28 940 28 906 q 31 981 28 961 l 32 997 q 135 1101 43 1081 q 137 1103 135 1103 q 147 1104 139 1103 q 331 1111 189 1111 q 504 1110 428 1111 l 544 1108 q 667 1094 621 1108 q 744 996 732 1069 q 750 929 750 961 l 749 899 l 749 860 q 690 790 749 815 q 333 764 632 764 m 214 863 l 333 863 q 653 879 617 863 l 654 929 q 650 979 654 956 q 633 1003 646 997 q 544 1011 614 1011 l 503 1011 q 331 1013 426 1013 q 228 1012 264 1013 q 178 1010 193 1011 q 161 1008 164 1008 q 131 997 133 999 q 128 988 128 994 q 126 972 128 982 q 125 939 125 956 q 130 898 125 915 q 152 874 135 881 q 188 865 169 867 q 214 863 206 863 z "},"_":{"ha":778,"x_min":28,"x_max":750,"o":"m 444 0 q 88 26 146 0 q 29 96 29 51 l 29 135 l 28 165 q 33 232 28 197 q 111 331 46 306 q 233 344 157 344 l 274 346 q 447 347 350 347 q 631 340 589 347 q 641 339 639 339 q 643 338 643 339 q 746 233 735 317 l 747 217 q 750 176 750 197 q 742 104 750 142 l 740 103 q 564 1 701 1 l 444 0 m 564 99 q 590 101 572 99 q 626 110 608 103 q 648 134 643 117 q 653 175 653 151 q 651 208 653 192 q 650 224 650 218 q 647 233 650 231 q 617 244 644 235 q 599 246 614 244 q 549 248 585 247 q 447 249 514 249 q 275 247 351 249 l 233 247 q 144 239 164 247 q 128 215 132 233 q 124 165 124 192 l 125 115 q 444 99 161 99 l 564 99 z "},"|":{"ha":472,"x_min":28,"x_max":444,"o":"m 328 431 q 330 511 328 431 q 333 624 332 592 q 342 817 339 717 q 346 978 343 906 l 346 988 q 343 1001 346 999 q 256 1015 329 1015 l 192 1014 q 138 1001 150 1014 q 126 958 126 989 q 129 893 126 929 q 135 803 133 850 l 133 665 q 135 456 133 608 q 136 142 136 303 q 138 11 138 88 q 146 -31 138 -19 l 151 -33 q 185 -40 163 -39 q 283 -42 207 -42 q 322 -24 318 -40 q 325 106 325 -8 q 328 431 325 271 m 36 710 l 36 803 q 32 885 36 844 q 28 953 28 919 q 31 1001 28 969 q 64 1067 33 1032 q 192 1111 104 1111 l 256 1111 q 444 986 444 1111 l 439 814 q 431 619 436 714 q 426 421 429 592 q 422 14 422 250 q 413 -56 422 -18 q 264 -139 390 -139 q 161 -135 204 -139 q 39 11 39 -124 l 36 710 z "},"¡":{"ha":472,"x_min":28,"x_max":444,"o":"m 192 -139 q 64 -94 104 -139 q 29 -12 32 -60 l 28 24 q 32 88 28 54 q 36 217 36 128 q 38 438 36 354 q 39 822 39 522 q 104 951 39 917 q 226 971 139 971 l 264 972 q 422 819 422 972 q 432 351 422 493 q 444 -14 435 297 q 414 -94 444 -64 q 340 -132 383 -125 q 192 -139 297 -139 m 219 658 q 325 675 289 658 q 321 857 325 842 q 283 874 317 872 q 226 875 267 875 q 147 865 157 875 q 138 822 138 854 l 136 675 q 219 658 160 661 m 226 -43 q 347 -18 347 -43 l 346 -6 q 325 574 328 475 q 228 563 275 563 q 136 572 185 563 l 135 308 q 128 47 135 139 l 126 8 q 138 -30 126 -18 q 192 -42 149 -42 l 225 -42 q 226 -43 225 -43 z "},"¿":{"ha":778,"x_min":28,"x_max":750,"o":"m 496 876 q 460 875 478 876 q 426 874 443 874 q 328 857 338 874 l 325 846 q 318 789 318 811 q 331 744 318 754 q 464 725 356 725 q 554 771 535 725 q 558 807 558 788 q 556 840 558 824 q 554 857 554 849 q 553 868 554 865 q 496 876 536 876 m 306 650 q 125 308 125 518 l 124 257 q 131 148 124 203 q 174 31 138 93 q 343 -43 225 -43 q 542 0 443 -43 q 649 172 622 40 q 654 238 654 207 q 628 353 654 303 q 383 251 542 283 q 364 248 371 250 q 351 246 357 246 q 325 256 339 246 q 304 294 304 268 q 342 342 304 331 q 601 474 556 378 q 608 510 608 490 q 553 646 608 567 q 464 629 514 629 q 306 650 358 629 m 496 972 q 569 964 542 972 l 571 964 q 632 926 607 956 q 650 865 650 901 q 651 850 650 857 l 654 811 q 646 742 654 778 q 644 740 646 740 q 628 707 639 722 q 704 508 704 599 q 689 433 704 464 q 750 239 750 354 q 743 156 750 199 q 581 -89 707 -28 q 351 -139 467 -139 q 92 -19 168 -139 q 36 138 46 60 q 28 274 28 204 l 28 308 q 235 718 28 558 q 222 790 222 749 q 231 864 222 824 q 308 957 243 933 q 496 972 356 972 z "},"А":{"ha":778,"x_min":28,"x_max":750,"o":"m 375 539 q 340 553 354 539 q 326 586 326 567 l 329 871 q 343 904 329 890 q 378 918 357 918 q 411 904 397 918 q 425 871 425 890 l 422 586 q 408 553 422 567 q 375 539 394 539 m 256 0 q 64 72 111 0 q 63 74 63 72 q 31 192 35 125 q 28 269 28 231 l 31 369 l 29 415 q 163 1022 57 926 q 300 1099 214 1074 q 381 1111 342 1111 q 464 1097 424 1111 q 718 768 663 1028 l 719 767 q 747 425 747 604 l 747 424 q 749 378 747 403 q 750 326 750 353 q 737 176 750 261 q 643 33 724 90 q 542 10 600 10 q 498 10 535 10 q 410 44 461 11 q 256 0 360 0 m 272 97 q 353 129 344 103 q 342 243 342 185 q 343 290 342 267 q 344 332 344 314 q 358 363 344 350 q 393 376 372 376 q 426 363 413 376 q 440 329 440 350 l 439 231 q 440 185 439 215 q 458 131 440 154 l 458 129 q 518 107 467 117 l 543 106 q 649 226 635 106 q 653 319 653 274 q 624 749 653 592 q 432 1007 578 956 q 382 1015 422 1015 q 310 1001 354 1015 q 229 953 265 988 q 125 414 158 908 q 126 368 126 392 l 124 267 q 126 198 124 239 q 144 124 128 157 q 188 104 153 113 q 250 96 214 96 l 272 97 z "},"Б":{"ha":778,"x_min":28,"x_max":750,"o":"m 378 175 q 343 189 357 175 q 329 224 329 203 q 325 325 329 271 q 322 421 322 374 l 324 490 q 340 522 325 510 q 375 535 354 535 q 419 482 419 529 q 418 419 418 451 q 421 331 418 376 q 425 224 425 275 q 411 189 425 203 q 378 175 397 175 m 471 0 l 424 1 q 324 3 385 3 q 292 1 307 3 q 185 6 222 1 q 69 96 97 15 q 28 728 28 224 l 28 758 q 40 884 28 807 q 115 1032 51 961 q 335 1111 194 1111 q 657 1032 565 1111 q 725 892 725 974 q 660 682 725 725 q 617 657 640 665 q 678 593 654 625 q 749 404 746 497 l 750 374 q 729 229 750 311 q 622 60 708 147 q 553 13 585 25 q 471 0 522 0 m 471 96 q 519 102 504 96 q 556 129 533 108 q 654 379 654 222 l 653 400 q 600 536 653 464 q 369 640 525 638 q 335 655 349 642 q 322 689 322 668 q 336 723 322 710 q 371 736 350 736 l 467 736 q 599 757 569 736 q 629 892 629 778 q 515 994 629 964 q 335 1015 435 1015 q 132 851 154 1015 q 125 761 125 800 q 136 294 125 435 q 168 111 150 131 q 258 99 179 99 l 322 99 q 426 97 390 99 l 471 96 z "},"В":{"ha":778,"x_min":28,"x_max":750,"o":"m 367 682 q 332 696 346 682 q 318 731 318 710 q 317 822 318 775 q 315 915 315 868 q 329 950 315 936 q 363 964 343 964 q 397 950 383 964 q 411 915 411 936 q 413 824 411 871 q 414 731 414 778 q 400 696 414 710 q 367 682 386 682 m 343 165 q 328 168 336 165 q 296 213 296 182 q 299 231 296 222 q 311 335 311 279 q 310 374 311 353 q 308 421 308 396 q 322 454 308 440 q 357 468 336 468 q 390 454 376 468 q 404 419 404 440 q 406 376 404 399 q 408 332 408 354 q 389 199 408 267 q 343 165 374 165 m 349 0 q 101 67 188 0 q 29 204 33 122 q 28 313 28 242 q 29 394 29 338 l 29 447 q 37 689 29 563 q 83 947 44 815 q 333 1111 131 1111 q 510 1089 410 1111 q 699 908 675 1057 q 710 814 710 858 q 638 629 710 704 l 636 628 q 600 597 624 615 q 665 557 638 582 l 665 556 q 750 333 750 467 q 550 38 750 122 q 349 0 460 0 m 347 96 q 647 272 600 96 l 647 274 q 654 333 654 301 q 648 399 654 357 q 599 486 642 440 q 438 528 549 528 q 385 525 411 528 l 378 525 q 347 537 363 525 q 332 574 332 549 q 342 604 332 590 q 443 625 358 625 l 461 625 q 569 697 511 643 q 614 814 614 742 q 604 888 614 847 l 604 889 q 574 958 597 933 q 489 996 550 982 q 336 1015 396 1015 q 175 921 199 1015 l 175 919 q 132 668 139 797 q 125 446 125 556 l 125 311 q 124 265 124 289 l 125 208 q 167 138 129 164 q 253 104 204 111 l 254 104 q 347 96 301 96 z "},"Г":{"ha":778,"x_min":28,"x_max":750,"o":"m 329 0 q 163 8 240 0 q 103 40 125 13 q 57 147 67 83 q 28 533 28 268 q 39 844 28 694 q 40 876 40 860 q 58 1006 42 944 q 133 1092 74 1068 l 135 1092 q 407 1111 200 1108 q 586 1100 515 1111 q 718 1036 692 1085 l 718 1035 q 750 861 750 969 q 740 733 750 783 q 696 640 731 675 q 542 599 656 599 q 553 467 550 528 q 554 317 554 429 q 547 121 554 206 q 510 47 543 76 q 329 0 444 0 m 335 97 q 451 128 451 103 q 458 274 458 226 l 457 315 l 457 425 q 444 599 457 513 l 332 600 q 298 614 313 600 q 283 649 283 628 q 298 682 283 668 q 332 696 313 696 l 493 694 l 574 696 q 629 710 617 697 q 654 857 654 732 q 653 907 654 867 q 635 988 653 947 q 613 996 633 989 q 542 1009 592 1003 q 400 1015 492 1015 q 163 999 218 1013 q 136 871 143 988 l 135 838 q 124 524 124 697 q 140 225 124 325 q 175 104 157 117 q 308 97 232 97 l 335 97 z "},"Д":{"ha":1097,"x_min":28,"x_max":1069,"o":"m 546 454 q 511 468 525 454 q 497 503 497 482 q 499 647 497 568 q 501 788 501 726 q 516 822 501 807 q 550 836 531 836 q 585 822 571 836 q 599 788 599 807 q 597 645 599 724 q 594 503 594 567 q 580 468 594 482 q 546 454 565 454 m 776 0 q 546 43 600 0 q 289 0 463 0 q 96 26 151 0 q 33 96 43 60 q 28 140 28 119 q 29 159 28 150 q 31 176 31 168 q 30 183 31 181 q 29 201 29 186 q 160 371 29 315 l 176 378 q 124 529 124 449 q 139 617 124 569 q 332 993 231 871 q 349 1015 342 1004 q 420 1086 378 1061 q 568 1111 463 1111 q 672 1081 626 1111 q 822 914 740 1033 q 894 800 861 858 q 954 589 954 693 q 906 404 954 496 l 897 385 q 936 371 918 379 q 1067 193 1067 315 q 1068 176 1067 186 q 1069 156 1069 167 l 1068 125 q 901 10 1063 42 q 776 0 847 0 m 778 97 q 971 138 931 97 l 974 147 q 972 167 974 154 q 971 193 971 179 q 953 246 971 219 q 874 291 935 272 q 692 313 813 310 q 658 328 671 314 q 644 363 644 342 q 660 396 646 382 q 694 410 674 410 q 800 403 753 408 q 819 450 808 426 q 857 592 857 524 q 842 683 857 621 q 750 847 826 744 q 568 1015 644 1015 q 454 992 485 1015 q 408 933 440 979 q 232 583 317 822 q 221 528 221 554 q 281 400 221 474 q 401 410 333 407 q 451 363 449 410 q 404 313 451 315 q 125 197 125 306 l 126 172 q 125 150 126 160 l 125 126 q 143 111 128 119 q 329 97 167 97 q 501 129 478 104 l 503 129 l 501 158 q 504 203 501 179 q 554 261 504 261 q 589 247 575 261 q 603 214 603 233 l 601 188 q 599 154 599 168 q 614 114 599 122 q 778 97 654 97 z "},"Е":{"ha":778,"x_min":28,"x_max":750,"o":"m 363 582 q 322 604 335 582 q 314 631 314 617 l 315 640 q 322 729 322 682 q 318 803 322 764 q 314 917 314 858 q 329 950 315 938 q 364 963 343 963 q 397 948 385 961 q 410 917 410 935 l 410 913 q 414 810 410 864 q 418 731 418 769 q 410 619 418 675 q 363 582 400 582 m 369 0 q 117 79 217 1 q 44 188 56 132 q 36 265 36 226 l 38 293 q 33 450 38 389 q 28 576 28 511 q 38 764 28 665 l 44 894 q 217 1092 53 1053 l 218 1092 q 392 1111 303 1111 q 457 1108 424 1111 q 669 990 633 1089 l 669 989 q 703 819 703 900 q 650 576 703 714 q 593 474 628 518 l 618 469 q 738 376 708 449 q 750 290 750 333 l 747 229 q 657 65 747 119 q 465 8 588 28 q 369 0 417 0 m 367 96 q 449 103 406 96 q 609 149 567 124 q 651 229 651 175 l 653 289 q 644 346 653 326 q 335 394 624 394 q 301 408 315 394 q 288 442 288 422 q 301 476 288 463 q 335 490 315 490 q 478 486 415 490 q 560 608 539 551 q 607 822 607 736 q 581 951 607 888 q 400 1015 547 1015 q 238 997 322 1015 q 161 958 181 985 q 140 890 142 932 l 133 757 q 124 576 124 660 q 128 455 124 517 q 133 328 133 393 l 132 263 q 138 208 132 235 q 176 154 143 182 q 367 96 253 96 z "},"Ж":{"ha":1097,"x_min":28,"x_max":1069,"o":"m 863 0 q 703 51 765 0 q 558 25 638 25 q 415 65 474 25 q 363 22 394 35 q 222 1 310 1 q 36 221 36 1 q 51 349 36 300 q 181 524 83 451 q 81 644 119 557 q 28 878 32 747 l 28 879 q 33 952 28 910 q 62 1033 38 994 q 142 1094 86 1072 q 143 1096 143 1094 q 233 1110 186 1110 q 302 1103 254 1110 q 401 1053 350 1097 q 532 1111 446 1111 q 683 1044 632 1111 q 874 1108 724 1108 q 1061 889 1061 1108 q 1046 761 1061 810 q 917 586 1014 658 q 1017 465 978 553 q 1069 232 1065 363 l 1069 231 q 1065 158 1069 200 q 1035 76 1060 115 q 956 15 1011 38 q 954 14 954 15 q 863 0 910 0 m 861 96 q 964 146 947 96 q 972 217 972 171 q 928 425 972 335 l 928 426 q 880 495 908 474 q 785 533 851 517 q 749 576 753 544 q 799 632 749 618 q 828 646 815 639 l 831 647 q 908 708 874 669 q 953 788 942 747 q 965 892 965 825 q 935 997 965 974 q 933 999 935 999 q 861 1013 911 1013 q 769 997 810 1011 l 768 997 l 758 982 q 732 771 732 929 q 718 732 732 746 q 685 718 704 718 q 650 732 664 718 q 636 771 636 746 q 638 851 636 813 l 636 865 q 621 958 636 919 q 579 1006 606 996 q 531 1015 553 1015 q 463 965 476 1015 l 453 911 q 454 857 454 886 q 451 768 454 815 q 449 719 449 738 q 435 687 449 701 q 401 672 421 672 q 367 687 381 672 q 353 721 353 701 l 354 772 q 357 896 357 817 q 343 974 351 969 q 236 1014 308 1014 q 133 964 150 1014 q 125 893 125 939 q 169 685 125 775 l 169 683 q 217 615 189 636 q 313 576 246 593 q 349 533 344 565 q 299 478 349 492 q 269 464 282 471 l 267 463 q 190 401 224 440 q 144 322 156 363 q 132 218 132 285 q 163 113 132 136 q 164 111 163 111 q 228 99 185 99 q 329 113 288 99 l 339 128 q 365 340 365 181 q 379 378 365 364 q 413 392 393 392 q 447 378 433 392 q 461 340 461 364 q 450 163 461 236 q 560 121 490 121 q 653 136 606 121 q 643 260 643 190 q 646 342 643 299 q 649 390 649 372 q 663 423 649 408 q 696 438 676 438 q 731 423 717 438 q 744 389 744 408 l 743 338 q 740 214 740 294 q 754 136 746 140 q 861 96 789 96 z "},"З":{"ha":778,"x_min":28,"x_max":750,"o":"m 431 0 q 107 79 201 0 q 39 221 39 136 q 94 421 39 374 q 214 468 139 464 q 182 567 182 525 q 201 658 183 621 q 107 704 163 668 q 28 856 28 760 q 71 974 28 922 l 72 975 q 229 1071 126 1031 q 424 1111 332 1111 l 453 1111 q 750 838 750 1111 l 750 767 q 653 579 736 638 q 710 508 685 556 q 736 346 736 461 q 724 224 736 299 q 649 79 713 150 q 431 0 571 0 m 431 96 q 632 261 611 96 q 640 357 640 315 l 640 385 q 604 493 640 458 q 532 522 569 522 l 522 522 q 471 571 471 522 q 485 603 471 588 q 518 619 499 618 q 544 628 526 621 q 653 774 646 664 l 653 838 q 624 956 653 919 q 547 1004 596 993 q 432 1015 499 1015 q 265 982 347 1015 q 142 910 182 949 q 124 856 124 886 q 160 786 124 811 q 235 750 206 756 q 274 746 251 746 q 378 750 336 750 q 411 736 397 750 q 425 701 425 722 q 411 668 425 682 q 378 654 397 654 q 314 651 342 654 q 278 574 278 615 q 338 471 279 522 l 394 471 q 428 456 414 471 q 442 422 442 442 q 428 388 442 403 q 394 374 414 374 l 289 375 q 163 353 193 375 q 135 221 135 326 q 250 117 135 146 q 431 96 332 96 z "},"И":{"ha":778,"x_min":28,"x_max":750,"o":"m 206 0 q 28 175 28 0 l 33 243 l 36 256 q 50 358 43 314 q 65 492 63 425 q 72 801 72 582 l 67 894 q 74 973 67 928 q 135 1064 81 1018 q 263 1111 199 1111 q 335 1097 300 1111 q 407 1031 371 1083 q 576 1108 481 1108 q 647 1097 611 1108 q 743 997 722 1069 q 750 928 750 963 q 747 885 750 907 l 746 854 q 739 738 743 794 q 731 492 731 614 q 725 301 731 407 l 725 258 q 713 149 725 208 q 644 42 700 89 q 533 1 590 1 q 394 92 447 1 q 349 50 374 68 q 206 0 275 0 m 200 96 q 231 99 208 96 q 292 128 253 101 q 367 235 339 163 q 375 256 368 246 q 401 464 401 340 q 415 499 401 485 q 450 513 429 513 q 483 499 469 513 q 497 464 497 485 q 463 218 497 319 q 535 97 467 97 q 585 118 558 97 l 586 118 q 622 184 615 143 q 629 307 629 225 q 633 457 633 388 l 633 492 q 643 743 633 636 q 649 858 647 800 q 654 936 654 921 q 649 978 654 960 q 614 1006 643 997 q 571 1013 600 1013 q 506 989 542 1013 q 458 940 483 976 q 415 833 433 903 q 396 649 396 764 q 382 615 396 629 q 349 601 368 601 q 314 615 328 601 q 300 649 300 629 q 340 917 300 811 q 331 971 340 944 q 265 1014 313 1014 q 194 989 231 1014 q 165 938 169 968 q 164 901 164 922 q 165 856 164 882 q 168 803 167 831 q 146 343 168 469 q 131 244 138 299 l 129 229 q 124 164 124 189 q 128 127 124 146 q 163 101 133 108 l 164 101 q 200 96 178 96 z "},"К":{"ha":778,"x_min":28,"x_max":750,"o":"m 243 97 q 292 115 264 97 q 328 200 328 139 l 326 256 q 329 347 326 299 l 331 393 q 345 428 331 414 q 379 442 360 442 q 413 428 399 442 q 428 393 428 414 q 425 343 428 374 q 424 264 424 306 q 436 147 424 160 q 546 108 471 108 q 606 118 576 108 q 644 156 635 128 q 654 238 654 185 q 610 428 651 346 l 610 429 q 562 497 590 475 q 468 533 533 518 q 432 581 432 546 q 461 625 432 610 l 481 633 q 511 646 497 639 q 513 647 513 646 q 589 707 556 669 q 635 783 622 744 q 647 875 647 829 q 617 988 647 964 l 615 988 q 543 1001 593 1001 q 451 988 492 1001 l 450 986 q 422 906 435 971 q 415 767 415 858 q 401 728 415 743 q 367 714 388 714 q 333 728 347 714 q 319 767 319 743 l 319 788 q 331 942 319 869 q 328 960 328 950 q 267 1015 328 1015 q 193 989 228 1015 q 163 903 163 963 q 165 867 163 885 q 167 832 167 849 l 165 799 q 160 654 160 728 l 160 490 q 144 366 156 425 q 129 251 132 307 l 124 169 q 129 128 124 146 q 161 106 135 111 l 163 106 q 219 97 188 97 l 243 97 m 219 0 q 35 110 65 0 q 28 179 28 144 q 31 222 28 201 q 49 381 39 326 q 65 550 65 464 l 63 664 q 69 808 63 736 l 71 833 q 69 863 71 847 q 68 894 68 878 q 76 975 68 928 q 133 1065 83 1022 q 263 1111 197 1111 q 388 1060 343 1111 q 551 1099 436 1099 q 672 1067 621 1099 q 742 882 742 1015 q 726 757 742 804 q 599 588 696 657 q 697 468 660 554 q 750 240 746 368 q 746 167 750 210 q 636 26 733 65 l 635 26 q 540 13 592 13 q 381 67 447 13 q 219 0 318 0 z "},"Л":{"ha":778,"x_min":28,"x_max":750,"o":"m 394 1015 q 363 996 381 1014 q 310 936 351 986 q 171 497 265 896 q 147 335 153 413 q 126 186 142 264 q 124 154 124 175 q 207 97 124 97 l 222 97 q 316 122 283 97 q 349 225 349 146 q 344 472 344 325 q 346 593 344 535 q 361 626 347 614 q 393 639 375 639 q 429 624 415 639 q 443 590 443 610 q 440 458 440 528 q 445 230 442 343 q 550 100 449 117 q 572 97 563 97 q 656 221 656 97 q 643 371 656 293 q 636 429 638 406 q 546 729 625 547 q 496 861 519 794 q 444 964 478 913 q 394 1015 411 1015 m 394 1111 q 528 1015 465 1111 q 586 893 568 947 q 635 767 608 831 q 732 436 721 565 q 738 385 733 417 q 750 225 750 311 q 694 49 750 113 q 574 1 649 1 l 539 4 q 404 75 453 15 q 364 38 388 53 q 208 0 296 0 q 60 58 107 0 q 28 164 28 103 q 32 206 28 188 q 51 343 46 275 q 76 519 57 425 q 235 997 169 922 q 313 1081 286 1057 q 394 1111 346 1110 z "},"М":{"ha":1097,"x_min":28,"x_max":1069,"o":"m 575 0 l 556 0 q 421 38 488 0 q 386 69 401 51 q 238 3 333 3 q 29 136 42 3 l 28 174 q 32 238 28 211 l 39 374 q 101 976 54 822 q 200 1075 124 1038 q 354 1110 271 1110 l 418 1111 q 483 1108 447 1111 q 549 1081 518 1104 q 656 1110 585 1106 q 736 1107 722 1110 q 942 1053 868 1107 q 1011 944 996 1006 q 1028 831 1026 883 l 1029 804 q 1043 633 1035 746 q 1069 179 1069 233 q 1063 110 1069 146 q 876 1 1032 1 q 715 56 781 1 q 575 0 669 1 m 575 97 q 639 114 619 97 q 651 168 651 129 l 651 222 q 656 358 651 282 q 661 497 661 433 q 658 585 661 543 q 671 620 658 604 q 706 636 683 636 q 753 590 749 636 q 758 490 758 544 q 753 350 758 425 q 747 197 747 260 q 885 99 753 99 q 969 133 958 99 q 972 165 972 144 q 965 311 972 186 q 921 910 939 829 q 881 979 911 951 q 683 1014 842 1014 q 607 1004 626 1014 q 596 951 599 985 q 597 886 597 926 q 596 819 597 846 q 547 754 596 754 q 513 768 528 754 q 499 803 499 782 l 499 951 q 486 1007 496 988 q 432 1014 479 1014 l 356 1014 q 247 990 292 1014 q 193 946 201 967 q 135 369 156 822 q 126 204 132 283 l 125 151 q 136 122 125 135 q 246 100 150 100 q 306 125 285 101 q 340 229 340 165 q 347 456 347 300 q 344 586 347 524 q 358 621 344 607 q 390 636 371 635 q 426 623 413 636 q 440 590 440 610 q 443 469 443 532 q 438 225 443 324 q 470 122 438 146 q 561 97 503 97 l 575 97 z "},"Н":{"ha":778,"x_min":28,"x_max":750,"o":"m 201 96 l 269 100 q 324 135 308 106 q 340 188 340 164 q 343 203 340 196 q 346 396 346 217 q 360 429 346 415 q 393 443 374 443 q 428 429 414 443 q 442 396 442 415 q 439 186 442 210 q 433 124 433 156 q 435 106 433 114 q 513 100 453 100 q 599 118 593 103 q 607 190 607 140 l 606 224 q 608 304 608 263 q 639 746 608 507 q 654 917 654 856 q 638 1000 654 971 q 529 1015 621 1013 q 422 1000 440 1011 q 419 963 419 986 q 421 921 419 938 q 422 892 422 904 l 421 856 q 429 739 421 765 q 432 721 432 731 q 426 699 432 711 q 382 675 414 675 q 339 707 350 675 q 324 822 324 763 l 326 892 q 325 915 326 901 q 324 942 324 929 q 322 964 324 954 q 282 986 319 985 q 240 985 258 986 q 206 983 221 983 q 142 976 156 983 q 133 939 133 971 l 132 922 q 125 765 125 844 q 133 592 125 679 q 142 390 142 490 q 140 304 142 346 q 139 221 139 263 q 136 185 139 207 q 132 119 132 139 l 133 100 q 201 96 160 96 m 199 0 q 74 19 97 0 q 38 97 40 53 l 36 129 q 42 211 36 163 l 42 221 q 44 307 42 265 q 46 390 46 349 q 36 585 46 486 q 28 758 28 672 q 36 933 28 846 q 49 1008 36 968 q 136 1076 65 1061 q 232 1081 158 1081 q 271 1082 250 1082 q 353 1067 317 1082 q 522 1111 394 1110 q 626 1103 581 1111 q 750 926 750 1082 q 739 776 750 847 l 735 736 q 706 386 713 563 l 706 385 q 704 304 704 346 q 703 219 704 263 l 703 192 q 697 115 703 160 q 657 38 692 71 q 515 3 622 6 q 368 32 403 3 l 364 38 q 281 4 331 11 q 199 0 247 0 z "},"О":{"ha":778,"x_min":28,"x_max":750,"o":"m 383 303 l 382 303 q 349 318 361 304 q 336 349 336 332 l 336 353 q 340 563 340 458 q 346 776 340 668 q 362 809 347 796 q 396 822 376 822 q 442 771 442 817 q 438 603 438 686 l 438 561 q 432 349 438 456 q 417 315 431 328 q 383 303 403 303 m 354 0 q 160 28 231 0 q 40 175 47 78 l 40 176 q 28 424 28 303 q 82 919 28 681 l 82 921 q 372 1111 138 1111 q 424 1108 397 1111 l 442 1108 q 545 1101 493 1108 q 651 1063 597 1093 q 742 944 722 1022 q 750 858 750 900 l 747 785 q 749 647 747 715 q 750 529 750 589 q 747 369 750 450 q 715 163 739 264 q 651 49 700 86 q 354 0 589 0 m 354 96 q 499 104 428 96 q 596 126 575 108 q 621 182 617 144 q 651 375 643 279 q 654 538 654 457 l 653 646 q 651 826 651 714 l 653 867 q 647 927 653 897 q 604 979 640 957 q 519 1007 564 1001 q 418 1013 475 1013 q 372 1015 393 1015 q 175 897 206 1015 q 125 426 125 671 q 136 186 125 308 q 168 133 136 156 q 354 96 218 96 z "},"П":{"ha":778,"x_min":28,"x_max":750,"o":"m 392 1015 q 256 990 325 1015 q 192 951 197 968 q 135 372 151 817 l 126 217 q 124 160 124 185 q 135 122 125 135 q 244 100 153 100 q 304 125 285 101 q 340 231 339 165 q 344 597 344 311 q 343 771 344 708 q 356 805 343 790 q 393 819 369 819 q 424 807 411 819 q 439 774 438 794 q 440 597 440 708 q 436 225 440 313 q 468 122 436 146 q 560 97 500 97 q 636 114 617 97 q 649 163 649 131 l 649 197 q 653 469 653 292 q 626 925 653 842 q 542 993 614 965 q 392 1015 485 1015 m 392 1111 q 696 1003 597 1111 q 750 475 750 949 q 744 194 750 303 l 746 164 q 741 113 746 144 q 704 47 736 82 q 571 0 660 0 l 553 0 q 419 38 486 0 q 385 71 400 51 q 239 3 331 3 q 29 136 42 3 l 28 174 q 32 239 28 211 l 39 376 q 100 982 54 832 q 223 1080 129 1049 q 392 1111 317 1111 z "},"Р":{"ha":778,"x_min":28,"x_max":750,"o":"m 375 589 q 339 601 353 589 q 324 633 325 614 q 322 693 322 663 q 326 794 322 743 q 329 893 329 846 q 344 926 329 913 q 378 940 358 940 q 412 926 397 940 q 426 893 426 913 q 422 788 426 842 q 418 693 418 739 l 419 636 q 408 606 419 619 q 375 589 396 592 m 250 0 q 46 144 76 0 q 28 339 28 243 q 31 414 28 376 q 32 526 32 458 l 32 563 q 37 719 32 635 q 69 894 42 804 q 425 1111 135 1111 q 622 1044 549 1111 l 622 1043 q 731 867 708 956 q 750 732 750 794 l 749 693 q 700 519 749 597 q 472 396 631 411 l 472 365 q 475 265 475 315 q 475 207 475 249 q 463 117 475 165 q 380 28 443 57 q 250 0 317 0 m 250 96 q 331 110 297 96 q 369 142 364 125 q 379 242 379 181 q 376 361 379 303 l 375 440 q 388 475 375 461 q 422 489 401 489 q 647 640 619 493 q 653 731 653 678 q 556 974 653 883 q 425 1015 511 1015 q 332 1006 383 1015 q 214 957 250 992 q 128 561 128 871 l 128 526 q 126 413 128 456 q 124 340 124 375 q 139 165 124 250 q 140 164 140 165 q 161 120 143 139 q 233 97 179 101 l 250 96 z "},"С":{"ha":778,"x_min":28,"x_max":750,"o":"m 376 0 q 207 26 279 0 q 50 225 92 75 q 28 428 28 308 q 42 592 28 482 q 80 813 56 703 q 136 985 104 922 q 264 1083 178 1054 q 428 1111 350 1111 q 693 999 604 1111 q 750 838 750 929 q 615 599 750 688 q 656 561 638 585 q 715 339 715 472 q 703 207 715 268 q 536 24 675 74 q 376 0 474 0 m 376 96 q 501 114 456 97 l 503 114 q 582 167 560 136 q 618 342 618 218 q 617 401 618 356 q 578 504 615 446 q 468 532 557 532 q 357 529 421 532 q 324 543 338 529 q 308 576 310 557 q 322 611 308 597 q 356 626 335 625 q 582 693 500 631 q 654 835 654 750 q 620 937 654 886 q 501 1007 586 988 l 500 1007 q 428 1015 467 1015 q 298 994 356 1015 q 221 939 240 972 q 173 789 194 889 q 138 585 151 689 q 124 428 124 481 q 131 307 124 371 q 165 191 139 243 q 244 117 190 139 q 376 96 297 96 z "},"Т":{"ha":778,"x_min":28,"x_max":750,"o":"m 399 96 q 519 108 474 96 q 521 110 521 108 q 589 172 572 122 q 606 310 606 222 q 517 599 601 431 l 479 599 q 446 613 460 599 q 432 647 432 626 q 446 681 432 667 q 479 694 460 694 l 582 694 q 622 700 614 697 l 626 701 q 633 733 631 714 q 638 753 636 742 q 654 886 654 832 q 639 967 654 938 q 551 1010 613 1003 q 464 1015 508 1015 l 428 1014 l 324 1015 q 221 1009 278 1015 q 138 967 164 1003 q 125 906 128 954 q 142 753 125 840 l 146 733 q 154 701 150 708 l 172 697 l 233 693 q 254 694 244 693 l 303 694 q 336 681 322 694 q 350 647 350 667 q 336 613 350 626 q 303 599 322 599 l 275 599 q 258 549 269 578 q 174 215 174 299 q 176 190 174 196 q 275 102 204 108 q 399 96 346 96 m 399 0 q 268 7 340 0 q 85 158 135 21 q 78 214 78 182 q 168 579 78 318 q 175 600 171 590 q 86 633 124 601 q 51 714 56 669 l 51 715 l 47 732 q 28 892 28 824 q 56 1017 28 971 q 192 1100 104 1086 q 324 1111 258 1111 l 361 1110 l 463 1111 q 599 1099 524 1111 q 721 1017 674 1086 l 722 1017 q 750 888 750 963 q 732 732 750 814 q 728 715 731 722 l 728 714 q 693 633 724 669 q 621 601 663 606 q 701 290 701 428 q 682 144 701 217 q 544 15 646 40 q 399 0 486 0 z "},"У":{"ha":778,"x_min":28,"x_max":750,"o":"m 310 96 q 508 117 451 97 q 581 195 560 136 q 611 335 601 254 l 617 374 q 633 557 629 463 l 642 686 q 653 889 653 794 q 652 964 653 929 q 650 1002 651 999 q 642 1008 649 1006 q 592 1015 622 1015 q 525 1003 542 1015 l 521 1000 q 479 865 493 972 q 471 685 471 785 q 457 651 471 665 q 424 638 443 638 q 389 651 403 638 q 375 685 375 665 q 388 897 375 813 l 386 906 q 325 982 386 961 q 271 992 294 992 q 225 985 244 992 q 204 967 206 978 q 199 882 199 926 q 213 721 199 818 q 288 557 226 624 l 311 557 q 451 529 432 557 q 461 501 461 517 l 461 494 q 414 454 453 454 l 406 454 q 314 461 353 461 q 178 417 211 461 q 157 372 157 388 q 142 315 150 354 q 125 185 125 243 q 136 125 125 131 q 310 96 167 101 m 321 0 q 78 47 146 0 l 76 49 q 28 188 28 88 q 31 240 28 211 q 65 404 40 335 q 183 535 94 497 q 103 876 103 657 q 108 978 103 928 q 279 1088 132 1088 l 286 1088 q 426 1032 378 1081 q 464 1078 442 1061 q 593 1111 508 1111 q 625 1110 621 1111 l 626 1110 q 749 983 749 1097 l 750 893 q 738 675 750 792 q 729 551 732 617 q 713 360 725 454 l 707 321 q 539 26 685 76 q 321 0 453 0 z "},"Ф":{"ha":1097,"x_min":28,"x_max":1069,"o":"m 301 324 q 266 338 279 324 q 253 374 253 353 q 258 758 258 558 q 273 792 258 778 q 307 807 288 807 q 341 792 326 807 q 356 758 356 778 q 350 371 356 556 q 335 337 349 350 q 301 324 321 324 m 797 324 l 796 324 q 763 337 776 324 q 747 371 749 350 q 742 758 742 556 q 756 792 742 778 q 790 807 771 807 q 824 792 810 807 q 839 758 839 778 q 844 374 839 557 q 831 339 844 353 q 797 324 818 325 m 493 0 q 419 8 456 0 l 418 8 q 356 46 381 17 q 347 61 350 53 q 278 51 315 51 l 244 53 q 88 136 164 60 q 33 250 42 185 q 28 336 28 293 q 49 778 28 615 q 174 1024 67 965 q 294 1058 240 1058 q 349 1050 321 1058 q 436 1104 378 1096 q 596 1111 486 1111 q 678 1103 638 1111 l 679 1103 q 749 1053 729 1092 q 800 1058 774 1058 q 926 1022 863 1058 q 1021 909 999 976 q 1049 778 1043 842 q 1068 349 1068 607 l 1069 313 q 1063 229 1069 276 q 944 83 1051 156 q 819 51 896 51 q 749 63 782 51 q 732 39 742 50 q 585 1 690 1 l 533 1 l 493 0 m 569 97 q 663 107 643 97 l 664 110 q 650 188 664 146 q 636 275 636 229 q 652 307 638 294 q 688 319 667 319 q 732 268 732 314 q 743 213 732 253 l 750 188 q 799 149 774 150 l 849 149 q 942 206 888 150 q 974 310 974 239 q 972 347 974 326 q 971 389 971 367 q 965 607 971 499 q 932 874 953 811 q 878 939 917 915 q 803 963 839 963 q 754 953 779 963 l 746 913 q 731 838 733 869 q 717 803 731 817 q 683 790 703 790 q 648 804 661 790 q 635 839 635 818 q 651 936 638 886 q 663 1001 663 981 q 649 1011 663 1008 q 568 1014 636 1014 l 532 1013 l 508 1013 q 444 1008 457 1013 l 435 1004 l 433 994 q 447 925 435 961 q 461 836 461 881 q 446 803 460 815 q 414 792 432 792 q 378 806 390 792 q 365 837 365 821 q 363 868 365 853 q 342 949 350 911 q 294 963 317 963 q 217 938 265 963 q 145 765 164 907 q 126 419 126 622 l 125 375 q 128 272 125 314 q 156 206 132 231 q 249 149 210 150 l 275 147 q 316 151 300 147 q 347 175 332 156 l 351 199 q 367 274 364 242 q 381 307 367 293 q 414 321 394 321 l 415 321 q 463 272 463 318 q 446 175 460 225 q 438 136 440 143 q 435 114 435 122 l 435 104 l 446 100 q 508 97 465 97 l 569 97 z "},"Х":{"ha":778,"x_min":28,"x_max":750,"o":"m 500 0 q 379 43 422 0 q 346 19 365 29 l 344 18 q 253 1 307 1 q 90 57 143 1 l 89 58 q 35 211 42 126 q 32 283 32 250 q 36 354 32 322 q 97 568 54 482 q 44 675 54 606 l 38 732 q 28 839 28 785 q 31 900 28 869 q 128 1065 44 1006 q 276 1111 190 1111 q 417 1060 369 1111 q 540 1096 475 1096 l 563 1094 q 732 974 700 1081 q 750 829 750 899 q 681 592 750 685 q 740 274 740 442 q 710 94 740 158 q 597 15 686 44 q 500 0 544 0 m 504 97 q 539 100 518 97 q 625 140 610 114 q 639 201 636 160 q 644 276 644 251 q 604 519 644 396 q 532 483 572 496 q 518 481 525 481 q 472 514 488 481 q 471 531 471 522 q 503 575 471 564 q 588 631 553 593 q 633 706 622 668 l 635 708 q 654 829 654 764 q 608 986 654 963 q 546 999 581 999 q 490 990 515 999 q 457 967 464 981 q 453 960 456 963 l 456 888 q 431 694 456 715 q 394 682 415 682 q 363 698 375 685 q 350 729 350 711 l 350 733 q 358 890 358 843 q 350 990 358 975 q 275 1015 335 1015 q 186 989 222 1015 l 185 988 q 126 889 133 949 q 124 846 124 869 q 133 744 124 801 q 141 683 138 714 q 172 631 144 651 q 254 585 199 610 l 281 571 q 308 529 308 556 q 303 507 308 518 q 260 481 286 481 q 238 486 249 481 q 214 497 226 492 l 213 497 q 178 515 194 506 q 132 343 147 451 q 128 271 128 304 q 165 118 128 171 q 226 99 171 108 l 256 97 q 301 104 288 97 q 325 185 325 114 q 351 374 325 351 q 383 385 365 385 q 419 367 404 385 q 431 336 431 353 l 431 332 q 422 214 422 260 q 436 128 422 160 q 438 124 438 126 q 504 97 453 97 z "},"Ц":{"ha":778,"x_min":28,"x_max":750,"o":"m 513 0 l 460 0 q 197 16 276 0 q 75 81 117 32 q 53 132 63 94 q 28 476 28 217 q 38 910 28 683 l 38 940 q 42 996 38 961 q 78 1064 47 1031 q 208 1111 124 1111 l 228 1111 q 361 1074 296 1111 q 396 1042 381 1060 q 540 1108 450 1108 q 749 975 736 1108 l 750 940 q 746 874 750 893 q 742 650 743 808 q 732 249 740 424 q 750 165 750 213 q 743 106 750 139 q 711 44 736 72 q 635 8 682 17 q 513 0 588 0 m 525 97 q 592 99 556 97 q 641 113 628 100 q 654 165 654 125 q 647 204 654 192 q 561 244 626 239 q 488 247 524 247 l 431 247 q 397 261 411 247 q 383 294 383 275 q 397 329 383 315 q 431 343 411 343 l 503 344 q 639 326 571 344 q 646 650 644 483 q 650 879 646 811 l 651 894 q 654 951 654 926 q 643 989 653 976 q 535 1011 625 1011 q 476 986 496 1010 q 440 882 440 944 q 436 654 436 799 q 438 522 436 585 q 424 488 438 501 q 390 472 411 474 q 356 485 371 472 q 342 518 342 497 q 339 639 339 576 q 344 886 339 786 q 313 990 344 965 q 222 1014 281 1014 l 208 1014 q 149 999 164 1014 q 133 932 133 983 l 133 906 q 124 486 124 683 q 144 158 128 222 q 216 110 154 124 q 389 97 278 97 l 525 97 z "},"Ч":{"ha":778,"x_min":28,"x_max":750,"o":"m 557 0 q 299 10 354 0 q 197 143 208 24 q 190 414 190 214 q 82 514 125 446 q 28 832 32 588 q 32 1001 28 893 l 32 1004 q 50 1053 32 1025 q 238 1103 83 1103 q 328 1096 289 1103 q 396 1051 367 1089 q 488 1101 433 1092 q 596 1111 542 1111 q 697 1072 657 1111 q 744 933 744 1019 l 743 747 q 746 599 743 668 q 750 301 750 425 q 746 131 750 200 q 661 11 739 38 q 557 0 621 0 m 546 97 q 642 110 631 97 q 654 272 654 124 l 650 596 q 647 849 647 665 l 649 925 q 629 1004 649 981 q 596 1015 624 1015 q 475 994 503 1015 q 432 747 432 961 l 432 713 q 418 678 432 692 q 383 665 404 665 q 350 679 364 665 q 336 713 336 693 l 336 760 q 333 919 336 869 q 314 1000 329 986 q 258 1007 304 1007 q 128 994 144 1007 q 124 833 124 894 q 163 565 131 597 q 243 495 193 515 q 388 475 293 475 q 422 461 407 475 q 436 428 436 447 q 422 393 436 407 q 388 379 407 379 q 286 385 329 379 l 288 306 l 288 282 q 303 110 288 143 q 390 99 313 99 l 418 99 q 504 97 468 99 l 546 97 z "},"Ш":{"ha":1097,"x_min":28,"x_max":1069,"o":"m 575 1110 q 708 1063 663 1110 l 715 1054 l 732 1067 q 876 1108 801 1108 q 1063 1000 1033 1108 q 1069 931 1069 965 q 1064 854 1069 914 q 1043 475 1061 749 q 1029 304 1035 361 q 1028 278 1028 292 q 1011 163 1026 225 q 943 54 996 101 q 788 6 886 13 q 603 0 690 0 q 482 1 546 0 l 393 3 q 224 34 318 3 q 101 131 129 65 q 39 735 54 285 l 32 872 q 28 938 28 896 q 29 974 28 956 q 240 1107 42 1107 q 386 1039 332 1107 q 421 1072 401 1058 q 556 1111 488 1111 l 575 1110 m 575 1013 l 561 1013 q 470 988 503 1013 q 438 885 438 964 q 443 639 443 785 q 440 518 443 576 q 426 485 440 499 q 390 472 411 472 q 358 488 371 474 q 344 522 344 501 q 346 654 346 585 q 340 881 346 811 l 333 932 q 246 1010 315 1007 q 136 988 150 1010 q 125 958 125 975 q 125 933 125 942 l 126 893 q 135 739 131 872 q 193 163 156 286 q 257 124 193 147 q 393 99 326 99 l 483 97 q 603 96 543 96 q 881 129 856 96 q 920 197 911 156 q 931 283 929 239 l 933 314 q 960 704 947 451 l 969 894 q 972 944 972 925 q 969 976 972 965 q 939 1004 963 999 l 938 1004 q 885 1013 915 1013 q 747 913 753 1013 q 753 758 747 849 q 758 619 758 683 q 753 518 758 564 q 706 472 749 472 q 671 488 683 472 q 658 522 658 504 l 658 526 q 661 611 661 565 q 656 753 661 676 q 651 888 651 829 l 651 942 q 639 996 651 979 q 575 1013 619 1013 z "},"Щ":{"ha":1097,"x_min":28,"x_max":1069,"o":"m 404 0 q 154 58 228 0 q 86 166 101 106 q 69 279 71 226 l 68 304 q 56 476 63 363 q 33 856 36 750 q 28 932 28 915 q 35 1001 28 967 q 219 1108 63 1108 q 267 1107 229 1108 q 365 1068 306 1106 l 382 1056 l 389 1064 q 524 1111 435 1111 l 542 1111 q 676 1074 610 1111 q 711 1040 696 1060 q 857 1108 765 1108 q 1068 975 1056 1108 l 1069 940 q 1065 874 1069 893 l 1058 736 q 1026 283 1047 457 q 1069 164 1069 238 q 1031 67 1069 106 q 909 13 986 25 q 731 1 832 1 l 653 3 q 492 1 535 3 q 404 0 449 0 m 426 96 l 490 97 q 571 100 532 100 q 654 99 614 100 l 704 99 q 854 103 779 99 q 972 164 972 110 q 965 204 972 192 q 879 244 944 239 q 806 247 842 247 l 749 246 q 715 260 729 246 q 700 294 700 275 q 715 328 700 314 q 749 343 729 343 l 814 344 q 935 332 874 344 q 961 740 954 542 q 969 881 965 826 l 969 894 l 971 896 l 972 935 q 972 960 972 943 q 961 989 972 976 q 851 1011 943 1011 q 792 986 811 1010 q 757 883 757 946 q 756 882 757 882 q 751 654 751 801 q 753 524 751 586 q 740 489 753 503 q 707 474 726 475 q 672 486 686 474 q 656 519 657 499 q 654 654 654 585 q 660 886 654 772 q 627 990 660 965 q 536 1014 594 1014 l 515 1014 q 458 997 475 1014 q 446 943 446 981 l 446 889 q 441 753 446 831 q 436 613 436 676 q 439 526 436 565 l 439 522 q 426 490 439 506 q 392 474 414 474 q 344 519 349 474 q 339 621 339 565 q 344 760 339 685 q 350 914 350 850 q 213 1013 344 1013 q 160 1006 182 1013 l 158 1006 q 129 978 135 1000 q 125 940 125 965 q 128 896 125 922 l 129 860 q 138 705 132 814 q 151 483 143 596 l 164 314 q 178 200 172 221 q 217 133 186 160 l 217 132 q 333 99 257 103 q 426 96 379 96 z "},"Ъ":{"ha":778,"x_min":28,"x_max":750,"o":"m 469 0 l 322 3 l 261 1 q 160 10 201 1 q 69 94 89 28 q 50 253 50 160 q 124 638 50 479 q 51 696 69 646 q 28 856 28 754 q 79 1050 28 993 q 313 1111 133 1111 l 338 1111 q 547 989 519 1111 l 549 976 q 528 849 549 942 q 503 711 514 781 q 711 596 650 696 q 749 435 749 529 l 750 374 q 729 228 750 310 q 622 60 708 147 l 621 60 q 549 11 582 22 q 469 0 517 0 m 497 97 q 556 129 521 97 q 653 379 653 222 l 653 435 q 650 486 653 456 q 450 618 633 617 q 416 633 429 619 q 403 665 403 647 q 446 931 403 714 q 451 975 451 963 q 379 1013 442 1007 q 310 1014 350 1014 q 139 965 139 1014 q 138 961 138 964 q 124 853 124 913 q 129 772 124 814 q 139 732 133 743 l 150 732 l 197 733 l 233 736 q 266 724 251 736 q 281 688 281 711 q 247 642 281 654 l 243 639 q 157 403 185 589 q 147 244 147 311 q 172 108 147 124 q 257 99 188 99 l 497 97 m 378 164 q 343 178 357 164 q 329 211 329 192 q 325 311 329 260 q 321 413 321 363 q 322 472 321 443 q 339 505 325 493 q 371 517 353 517 q 406 502 393 517 q 418 469 418 488 l 417 417 q 421 316 417 368 q 425 211 425 264 q 411 178 425 192 q 378 164 397 164 z "},"Ы":{"ha":1097,"x_min":28,"x_max":1069,"o":"m 378 164 q 344 178 358 164 q 329 211 329 192 q 326 312 329 260 q 322 414 322 364 q 324 474 322 444 q 339 505 325 493 q 371 517 353 517 q 407 502 394 517 q 419 469 419 488 l 418 413 q 422 315 418 367 q 426 211 426 264 q 412 178 426 192 q 378 164 397 164 m 471 96 q 519 102 504 96 q 556 129 533 108 q 653 375 653 221 q 646 465 653 428 q 422 619 619 615 q 388 633 401 619 q 375 667 375 647 l 376 747 q 379 868 379 807 q 369 969 379 929 q 331 1001 364 986 q 250 1015 297 1015 q 164 994 188 1015 q 140 946 144 976 l 140 944 q 124 767 124 858 q 126 696 124 732 q 128 597 128 651 l 128 544 q 161 125 128 251 q 168 111 163 117 q 258 99 181 99 l 324 99 q 426 97 390 99 l 471 96 m 842 1015 q 754 1001 768 1015 q 751 988 751 999 l 751 978 q 756 817 754 906 q 764 624 758 717 q 772 244 772 483 q 776 115 772 131 q 814 97 779 99 q 913 99 890 97 q 946 106 935 100 l 951 108 q 960 150 960 119 q 961 281 960 226 q 963 536 961 450 q 964 665 964 599 l 963 803 q 968 893 964 850 q 971 958 971 929 q 959 1001 971 989 q 906 1014 947 1014 l 842 1015 m 676 124 q 622 60 654 92 q 554 13 586 25 q 471 0 522 0 l 424 1 q 324 3 385 3 q 292 1 307 3 q 183 6 222 1 q 69 96 96 15 q 32 542 32 231 l 32 597 q 30 690 32 650 q 28 768 28 731 q 104 1069 28 1010 q 250 1111 156 1111 q 381 1083 318 1111 q 463 994 443 1054 q 475 844 475 943 q 472 744 475 794 l 472 713 q 667 629 597 700 q 658 814 661 719 l 653 986 q 842 1111 653 1111 l 906 1111 q 1033 1067 993 1111 q 1067 1001 1064 1032 q 1069 953 1069 969 q 1065 885 1069 919 q 1061 803 1061 844 l 1061 710 l 1058 150 q 936 4 1058 15 q 833 0 893 0 q 685 83 707 0 q 676 124 679 104 z "},"Ь":{"ha":778,"x_min":28,"x_max":750,"o":"m 471 0 l 424 1 q 324 3 385 3 q 292 1 307 3 q 183 6 222 1 q 69 96 96 15 q 32 542 32 231 l 32 597 q 30 690 32 650 q 28 768 28 731 q 104 1069 28 1010 q 250 1111 156 1111 q 381 1083 318 1111 q 463 994 443 1054 q 475 844 475 943 q 472 744 475 794 l 472 713 q 700 588 631 696 q 749 413 749 510 l 750 374 q 729 229 750 311 q 622 60 708 147 q 554 13 586 25 q 471 0 522 0 m 471 96 q 519 102 504 96 q 556 129 533 108 q 653 375 653 221 q 646 465 653 428 q 422 619 619 615 q 388 633 401 619 q 375 667 375 647 l 376 747 q 379 868 379 807 q 369 969 379 929 q 331 1001 364 986 q 250 1015 297 1015 q 164 994 188 1015 q 140 946 144 976 l 140 944 q 124 767 124 858 q 126 696 124 732 q 128 597 128 651 l 128 544 q 161 125 128 251 q 168 111 163 117 q 258 99 181 99 l 324 99 q 426 97 390 99 l 471 96 m 378 164 q 344 178 358 164 q 329 211 329 192 q 326 312 329 260 q 322 414 322 364 q 324 474 322 444 q 339 505 325 493 q 371 517 353 517 q 407 502 394 517 q 419 469 419 488 l 418 413 q 422 315 418 367 q 426 211 426 264 q 412 178 426 192 q 378 164 397 164 z "},"Э":{"ha":778,"x_min":28,"x_max":750,"o":"m 401 0 q 242 24 304 0 q 76 206 101 74 q 74 207 76 207 q 63 303 63 282 q 67 350 63 319 q 122 449 71 381 q 142 469 131 460 q 99 576 99 519 q 117 647 99 617 q 60 726 81 681 q 28 854 28 799 q 53 957 28 913 q 258 1101 114 1069 q 350 1111 301 1111 q 497 1091 407 1111 q 642 985 586 1071 q 719 760 688 894 q 750 540 750 626 q 571 28 750 101 q 401 0 492 0 m 410 97 q 535 117 482 97 q 622 252 590 140 q 653 540 653 364 q 625 738 653 617 q 557 938 597 860 q 444 1004 532 983 q 353 1015 397 1015 q 199 978 263 1015 q 125 854 125 933 q 147 767 125 814 q 174 724 163 733 q 214 715 186 715 q 404 765 283 721 q 419 768 413 768 q 446 761 432 768 q 468 721 468 749 q 436 674 468 688 q 225 619 290 622 q 196 576 196 613 q 216 533 196 554 q 285 510 236 513 l 296 511 q 467 482 386 511 q 497 438 497 469 q 494 419 497 428 q 449 388 482 388 q 432 392 440 388 q 289 415 367 415 q 200 392 211 413 q 158 304 158 335 q 169 226 158 285 q 275 114 181 150 q 410 97 322 97 z "},"Ю":{"ha":1097,"x_min":28,"x_max":1069,"o":"m 200 0 q 114 18 154 0 q 28 157 28 63 q 47 607 38 244 q 56 922 53 881 l 56 924 q 133 1078 63 1033 q 247 1111 186 1111 q 410 1049 364 1111 q 563 1103 474 1093 q 688 1110 624 1110 q 861 1101 794 1110 q 971 1063 917 1093 q 1061 944 1042 1022 q 1069 858 1069 900 l 1067 785 q 1063 582 1067 717 q 1035 163 1049 235 q 1015 104 1029 135 q 829 7 976 18 q 650 1 736 1 q 351 61 435 1 q 338 47 346 53 q 200 0 275 0 m 200 96 q 275 121 243 96 q 303 289 290 136 l 310 354 q 363 468 318 436 q 417 488 392 488 q 468 482 468 488 l 478 481 q 513 467 499 481 q 526 432 526 453 q 512 399 526 413 q 478 385 497 385 q 439 390 461 385 l 428 392 q 420 391 422 392 q 415 382 418 390 q 406 343 407 363 l 400 281 l 399 279 q 386 160 393 210 l 394 151 q 436 125 399 140 q 676 97 500 97 q 914 126 881 97 q 941 181 935 144 q 954 335 947 218 q 969 785 969 631 q 971 826 969 806 q 972 867 972 847 q 966 928 972 897 q 924 979 960 958 l 922 979 q 765 1013 854 1013 l 688 1014 q 537 1001 606 1014 q 439 940 468 988 q 436 889 439 914 l 435 856 l 433 833 q 429 765 429 810 l 429 725 q 490 721 457 725 q 533 671 533 715 l 533 667 q 483 625 528 625 l 443 628 q 332 703 338 632 l 332 739 q 336 843 332 792 l 338 860 l 343 942 q 338 983 343 965 q 308 1006 332 1001 q 307 1007 308 1007 q 246 1015 279 1015 q 151 918 156 1013 q 143 599 151 885 q 125 150 133 250 l 125 146 q 131 126 125 138 q 156 106 136 115 q 200 96 176 96 m 703 303 q 669 317 683 303 q 654 350 654 331 q 681 810 654 786 q 715 822 694 822 q 749 806 736 819 q 761 771 761 792 q 751 350 751 601 q 737 317 751 331 q 703 303 722 303 z "},"Я":{"ha":778,"x_min":28,"x_max":750,"o":"m 599 0 q 432 42 481 0 q 314 0 396 0 q 180 22 250 0 q 79 94 110 43 q 28 369 28 204 q 161 589 28 536 q 72 775 96 656 q 67 846 67 811 q 83 951 67 901 q 204 1076 119 1046 q 353 1108 289 1106 q 436 1111 417 1111 q 583 1093 517 1111 q 721 987 692 1060 q 750 847 750 914 l 746 176 q 699 39 746 90 q 599 0 658 0 m 599 96 q 649 186 649 96 l 649 453 q 651 835 651 639 q 628 956 651 921 q 433 1015 586 1015 q 175 921 203 1015 q 163 840 163 876 q 225 663 163 738 q 321 613 267 613 q 381 611 335 611 q 414 597 400 611 q 428 563 428 582 q 414 528 428 543 q 381 514 400 514 q 219 506 260 514 q 124 369 124 488 q 129 281 124 346 q 214 111 135 139 q 314 96 254 96 q 360 106 350 96 q 382 226 381 122 l 382 396 q 431 444 386 442 q 464 431 450 444 q 479 396 478 417 l 478 214 q 496 114 478 136 q 599 96 517 96 m 426 661 q 393 675 407 661 q 379 708 379 689 q 377 808 379 764 q 375 904 375 853 q 390 939 375 925 q 424 953 404 953 q 458 939 443 953 q 472 904 472 925 l 475 708 q 461 675 475 689 q 426 661 447 661 z "},"а":{"ha":778,"x_min":28,"x_max":750,"o":"m 375 539 q 340 553 354 539 q 326 586 326 567 l 329 871 q 343 904 329 890 q 378 918 357 918 q 411 904 397 918 q 425 871 425 890 l 422 586 q 408 553 422 567 q 375 539 394 539 m 256 0 q 64 72 111 0 q 63 74 63 72 q 31 192 35 125 q 28 269 28 231 l 31 369 l 29 415 q 163 1022 57 926 q 300 1099 214 1074 q 381 1111 342 1111 q 464 1097 424 1111 q 718 768 663 1028 l 719 767 q 747 425 747 604 l 747 424 q 749 378 747 403 q 750 326 750 353 q 737 176 750 261 q 643 33 724 90 q 542 10 600 10 q 498 10 535 10 q 410 44 461 11 q 256 0 360 0 m 272 97 q 353 129 344 103 q 342 243 342 185 q 343 290 342 267 q 344 332 344 314 q 358 363 344 350 q 393 376 372 376 q 426 363 413 376 q 440 329 440 350 l 439 231 q 440 185 439 215 q 458 131 440 154 l 458 129 q 518 107 467 117 l 543 106 q 649 226 635 106 q 653 319 653 274 q 624 749 653 592 q 432 1007 578 956 q 382 1015 422 1015 q 310 1001 354 1015 q 229 953 265 988 q 125 414 158 908 q 126 368 126 392 l 124 267 q 126 198 124 239 q 144 124 128 157 q 188 104 153 113 q 250 96 214 96 l 272 97 z "},"б":{"ha":778,"x_min":28,"x_max":750,"o":"m 378 175 q 343 189 357 175 q 329 224 329 203 q 325 325 329 271 q 322 421 322 374 l 324 490 q 340 522 325 510 q 375 535 354 535 q 419 482 419 529 q 418 419 418 451 q 421 331 418 376 q 425 224 425 275 q 411 189 425 203 q 378 175 397 175 m 471 0 l 424 1 q 324 3 385 3 q 292 1 307 3 q 185 6 222 1 q 69 96 97 15 q 28 728 28 224 l 28 758 q 40 884 28 807 q 115 1032 51 961 q 335 1111 194 1111 q 657 1032 565 1111 q 725 892 725 974 q 660 682 725 725 q 617 657 640 665 q 678 593 654 625 q 749 404 746 497 l 750 374 q 729 229 750 311 q 622 60 708 147 q 553 13 585 25 q 471 0 522 0 m 471 96 q 519 102 504 96 q 556 129 533 108 q 654 379 654 222 l 653 400 q 600 536 653 464 q 369 640 525 638 q 335 655 349 642 q 322 689 322 668 q 336 723 322 710 q 371 736 350 736 l 467 736 q 599 757 569 736 q 629 892 629 778 q 515 994 629 964 q 335 1015 435 1015 q 132 851 154 1015 q 125 761 125 800 q 136 294 125 435 q 168 111 150 131 q 258 99 179 99 l 322 99 q 426 97 390 99 l 471 96 z "},"в":{"ha":778,"x_min":28,"x_max":750,"o":"m 367 682 q 332 696 346 682 q 318 731 318 710 q 317 822 318 775 q 315 915 315 868 q 329 950 315 936 q 363 964 343 964 q 397 950 383 964 q 411 915 411 936 q 413 824 411 871 q 414 731 414 778 q 400 696 414 710 q 367 682 386 682 m 343 165 q 328 168 336 165 q 296 213 296 182 q 299 231 296 222 q 311 335 311 279 q 310 374 311 353 q 308 421 308 396 q 322 454 308 440 q 357 468 336 468 q 390 454 376 468 q 404 419 404 440 q 406 376 404 399 q 408 332 408 354 q 389 199 408 267 q 343 165 374 165 m 349 0 q 101 67 188 0 q 29 204 33 122 q 28 313 28 242 q 29 394 29 338 l 29 447 q 37 689 29 563 q 83 947 44 815 q 333 1111 131 1111 q 510 1089 410 1111 q 699 908 675 1057 q 710 814 710 858 q 638 629 710 704 l 636 628 q 600 597 624 615 q 665 557 638 582 l 665 556 q 750 333 750 467 q 550 38 750 122 q 349 0 460 0 m 347 96 q 647 272 600 96 l 647 274 q 654 333 654 301 q 648 399 654 357 q 599 486 642 440 q 438 528 549 528 q 385 525 411 528 l 378 525 q 347 537 363 525 q 332 574 332 549 q 342 604 332 590 q 443 625 358 625 l 461 625 q 569 697 511 643 q 614 814 614 742 q 604 888 614 847 l 604 889 q 574 958 597 933 q 489 996 550 982 q 336 1015 396 1015 q 175 921 199 1015 l 175 919 q 132 668 139 797 q 125 446 125 556 l 125 311 q 124 265 124 289 l 125 208 q 167 138 129 164 q 253 104 204 111 l 254 104 q 347 96 301 96 z "},"г":{"ha":778,"x_min":28,"x_max":750,"o":"m 329 0 q 163 8 240 0 q 103 40 125 13 q 57 147 67 83 q 28 533 28 268 q 39 844 28 694 q 40 876 40 860 q 58 1006 42 944 q 133 1092 74 1068 l 135 1092 q 407 1111 200 1108 q 586 1100 515 1111 q 718 1036 692 1085 l 718 1035 q 750 861 750 969 q 740 733 750 783 q 696 640 731 675 q 542 599 656 599 q 553 467 550 528 q 554 317 554 429 q 547 121 554 206 q 510 47 543 76 q 329 0 444 0 m 335 97 q 451 128 451 103 q 458 274 458 226 l 457 315 l 457 425 q 444 599 457 513 l 332 600 q 298 614 313 600 q 283 649 283 628 q 298 682 283 668 q 332 696 313 696 l 493 694 l 574 696 q 629 710 617 697 q 654 857 654 732 q 653 907 654 867 q 635 988 653 947 q 613 996 633 989 q 542 1009 592 1003 q 400 1015 492 1015 q 163 999 218 1013 q 136 871 143 988 l 135 838 q 124 524 124 697 q 140 225 124 325 q 175 104 157 117 q 308 97 232 97 l 335 97 z "},"д":{"ha":1097,"x_min":28,"x_max":1069,"o":"m 546 454 q 511 468 525 454 q 497 503 497 482 q 499 647 497 568 q 501 788 501 726 q 516 822 501 807 q 550 836 531 836 q 585 822 571 836 q 599 788 599 807 q 597 645 599 724 q 594 503 594 567 q 580 468 594 482 q 546 454 565 454 m 776 0 q 546 43 600 0 q 289 0 463 0 q 96 26 151 0 q 33 96 43 60 q 28 140 28 119 q 29 159 28 150 q 31 176 31 168 q 30 183 31 181 q 29 201 29 186 q 160 371 29 315 l 176 378 q 124 529 124 449 q 139 617 124 569 q 332 993 231 871 q 349 1015 342 1004 q 420 1086 378 1061 q 568 1111 463 1111 q 672 1081 626 1111 q 822 914 740 1033 q 894 800 861 858 q 954 589 954 693 q 906 404 954 496 l 897 385 q 936 371 918 379 q 1067 193 1067 315 q 1068 176 1067 186 q 1069 156 1069 167 l 1068 125 q 901 10 1063 42 q 776 0 847 0 m 778 97 q 971 138 931 97 l 974 147 q 972 167 974 154 q 971 193 971 179 q 953 246 971 219 q 874 291 935 272 q 692 313 813 310 q 658 328 671 314 q 644 363 644 342 q 660 396 646 382 q 694 410 674 410 q 800 403 753 408 q 819 450 808 426 q 857 592 857 524 q 842 683 857 621 q 750 847 826 744 q 568 1015 644 1015 q 454 992 485 1015 q 408 933 440 979 q 232 583 317 822 q 221 528 221 554 q 281 400 221 474 q 401 410 333 407 q 451 363 449 410 q 404 313 451 315 q 125 197 125 306 l 126 172 q 125 150 126 160 l 125 126 q 143 111 128 119 q 329 97 167 97 q 501 129 478 104 l 503 129 l 501 158 q 504 203 501 179 q 554 261 504 261 q 589 247 575 261 q 603 214 603 233 l 601 188 q 599 154 599 168 q 614 114 599 122 q 778 97 654 97 z "},"е":{"ha":778,"x_min":28,"x_max":750,"o":"m 363 582 q 322 604 335 582 q 314 631 314 617 l 315 640 q 322 729 322 682 q 318 803 322 764 q 314 917 314 858 q 329 950 315 938 q 364 963 343 963 q 397 948 385 961 q 410 917 410 935 l 410 913 q 414 810 410 864 q 418 731 418 769 q 410 619 418 675 q 363 582 400 582 m 369 0 q 117 79 217 1 q 44 188 56 132 q 36 265 36 226 l 38 293 q 33 450 38 389 q 28 576 28 511 q 38 764 28 665 l 44 894 q 217 1092 53 1053 l 218 1092 q 392 1111 303 1111 q 457 1108 424 1111 q 669 990 633 1089 l 669 989 q 703 819 703 900 q 650 576 703 714 q 593 474 628 518 l 618 469 q 738 376 708 449 q 750 290 750 333 l 747 229 q 657 65 747 119 q 465 8 588 28 q 369 0 417 0 m 367 96 q 449 103 406 96 q 609 149 567 124 q 651 229 651 175 l 653 289 q 644 346 653 326 q 335 394 624 394 q 301 408 315 394 q 288 442 288 422 q 301 476 288 463 q 335 490 315 490 q 478 486 415 490 q 560 608 539 551 q 607 822 607 736 q 581 951 607 888 q 400 1015 547 1015 q 238 997 322 1015 q 161 958 181 985 q 140 890 142 932 l 133 757 q 124 576 124 660 q 128 455 124 517 q 133 328 133 393 l 132 263 q 138 208 132 235 q 176 154 143 182 q 367 96 253 96 z "},"ж":{"ha":1097,"x_min":28,"x_max":1069,"o":"m 863 0 q 703 51 765 0 q 558 25 638 25 q 415 65 474 25 q 363 22 394 35 q 222 1 310 1 q 36 221 36 1 q 51 349 36 300 q 181 524 83 451 q 81 644 119 557 q 28 878 32 747 l 28 879 q 33 952 28 910 q 62 1033 38 994 q 142 1094 86 1072 q 143 1096 143 1094 q 233 1110 186 1110 q 302 1103 254 1110 q 401 1053 350 1097 q 532 1111 446 1111 q 683 1044 632 1111 q 874 1108 724 1108 q 1061 889 1061 1108 q 1046 761 1061 810 q 917 586 1014 658 q 1017 465 978 553 q 1069 232 1065 363 l 1069 231 q 1065 158 1069 200 q 1035 76 1060 115 q 956 15 1011 38 q 954 14 954 15 q 863 0 910 0 m 861 96 q 964 146 947 96 q 972 217 972 171 q 928 425 972 335 l 928 426 q 880 495 908 474 q 785 533 851 517 q 749 576 753 544 q 799 632 749 618 q 828 646 815 639 l 831 647 q 908 708 874 669 q 953 788 942 747 q 965 892 965 825 q 935 997 965 974 q 933 999 935 999 q 861 1013 911 1013 q 769 997 810 1011 l 768 997 l 758 982 q 732 771 732 929 q 718 732 732 746 q 685 718 704 718 q 650 732 664 718 q 636 771 636 746 q 638 851 636 813 l 636 865 q 621 958 636 919 q 579 1006 606 996 q 531 1015 553 1015 q 463 965 476 1015 l 453 911 q 454 857 454 886 q 451 768 454 815 q 449 719 449 738 q 435 687 449 701 q 401 672 421 672 q 367 687 381 672 q 353 721 353 701 l 354 772 q 357 896 357 817 q 343 974 351 969 q 236 1014 308 1014 q 133 964 150 1014 q 125 893 125 939 q 169 685 125 775 l 169 683 q 217 615 189 636 q 313 576 246 593 q 349 533 344 565 q 299 478 349 492 q 269 464 282 471 l 267 463 q 190 401 224 440 q 144 322 156 363 q 132 218 132 285 q 163 113 132 136 q 164 111 163 111 q 228 99 185 99 q 329 113 288 99 l 339 128 q 365 340 365 181 q 379 378 365 364 q 413 392 393 392 q 447 378 433 392 q 461 340 461 364 q 450 163 461 236 q 560 121 490 121 q 653 136 606 121 q 643 260 643 190 q 646 342 643 299 q 649 390 649 372 q 663 423 649 408 q 696 438 676 438 q 731 423 717 438 q 744 389 744 408 l 743 338 q 740 214 740 294 q 754 136 746 140 q 861 96 789 96 z "},"з":{"ha":778,"x_min":28,"x_max":750,"o":"m 431 0 q 107 79 201 0 q 39 221 39 136 q 94 421 39 374 q 214 468 139 464 q 182 567 182 525 q 201 658 183 621 q 107 704 163 668 q 28 856 28 760 q 71 974 28 922 l 72 975 q 229 1071 126 1031 q 424 1111 332 1111 l 453 1111 q 750 838 750 1111 l 750 767 q 653 579 736 638 q 710 508 685 556 q 736 346 736 461 q 724 224 736 299 q 649 79 713 150 q 431 0 571 0 m 431 96 q 632 261 611 96 q 640 357 640 315 l 640 385 q 604 493 640 458 q 532 522 569 522 l 522 522 q 471 571 471 522 q 485 603 471 588 q 518 619 499 618 q 544 628 526 621 q 653 774 646 664 l 653 838 q 624 956 653 919 q 547 1004 596 993 q 432 1015 499 1015 q 265 982 347 1015 q 142 910 182 949 q 124 856 124 886 q 160 786 124 811 q 235 750 206 756 q 274 746 251 746 q 378 750 336 750 q 411 736 397 750 q 425 701 425 722 q 411 668 425 682 q 378 654 397 654 q 314 651 342 654 q 278 574 278 615 q 338 471 279 522 l 394 471 q 428 456 414 471 q 442 422 442 442 q 428 388 442 403 q 394 374 414 374 l 289 375 q 163 353 193 375 q 135 221 135 326 q 250 117 135 146 q 431 96 332 96 z "},"и":{"ha":778,"x_min":28,"x_max":750,"o":"m 206 0 q 28 175 28 0 l 33 243 l 36 256 q 50 358 43 314 q 65 492 63 425 q 72 801 72 582 l 67 894 q 74 973 67 928 q 135 1064 81 1018 q 263 1111 199 1111 q 335 1097 300 1111 q 407 1031 371 1083 q 576 1108 481 1108 q 647 1097 611 1108 q 743 997 722 1069 q 750 928 750 963 q 747 885 750 907 l 746 854 q 739 738 743 794 q 731 492 731 614 q 725 301 731 407 l 725 258 q 713 149 725 208 q 644 42 700 89 q 533 1 590 1 q 394 92 447 1 q 349 50 374 68 q 206 0 275 0 m 200 96 q 231 99 208 96 q 292 128 253 101 q 367 235 339 163 q 375 256 368 246 q 401 464 401 340 q 415 499 401 485 q 450 513 429 513 q 483 499 469 513 q 497 464 497 485 q 463 218 497 319 q 535 97 467 97 q 585 118 558 97 l 586 118 q 622 184 615 143 q 629 307 629 225 q 633 457 633 388 l 633 492 q 643 743 633 636 q 649 858 647 800 q 654 936 654 921 q 649 978 654 960 q 614 1006 643 997 q 571 1013 600 1013 q 506 989 542 1013 q 458 940 483 976 q 415 833 433 903 q 396 649 396 764 q 382 615 396 629 q 349 601 368 601 q 314 615 328 601 q 300 649 300 629 q 340 917 300 811 q 331 971 340 944 q 265 1014 313 1014 q 194 989 231 1014 q 165 938 169 968 q 164 901 164 922 q 165 856 164 882 q 168 803 167 831 q 146 343 168 469 q 131 244 138 299 l 129 229 q 124 164 124 189 q 128 127 124 146 q 163 101 133 108 l 164 101 q 200 96 178 96 z "},"к":{"ha":778,"x_min":28,"x_max":750,"o":"m 243 97 q 292 115 264 97 q 328 200 328 139 l 326 256 q 329 347 326 299 l 331 393 q 345 428 331 414 q 379 442 360 442 q 413 428 399 442 q 428 393 428 414 q 425 343 428 374 q 424 264 424 306 q 436 147 424 160 q 546 108 471 108 q 606 118 576 108 q 644 156 635 128 q 654 238 654 185 q 610 428 651 346 l 610 429 q 562 497 590 475 q 468 533 533 518 q 432 581 432 546 q 461 625 432 610 l 481 633 q 511 646 497 639 q 513 647 513 646 q 589 707 556 669 q 635 783 622 744 q 647 875 647 829 q 617 988 647 964 l 615 988 q 543 1001 593 1001 q 451 988 492 1001 l 450 986 q 422 906 435 971 q 415 767 415 858 q 401 728 415 743 q 367 714 388 714 q 333 728 347 714 q 319 767 319 743 l 319 788 q 331 942 319 869 q 328 960 328 950 q 267 1015 328 1015 q 193 989 228 1015 q 163 903 163 963 q 165 867 163 885 q 167 832 167 849 l 165 799 q 160 654 160 728 l 160 490 q 144 366 156 425 q 129 251 132 307 l 124 169 q 129 128 124 146 q 161 106 135 111 l 163 106 q 219 97 188 97 l 243 97 m 219 0 q 35 110 65 0 q 28 179 28 144 q 31 222 28 201 q 49 381 39 326 q 65 550 65 464 l 63 664 q 69 808 63 736 l 71 833 q 69 863 71 847 q 68 894 68 878 q 76 975 68 928 q 133 1065 83 1022 q 263 1111 197 1111 q 388 1060 343 1111 q 551 1099 436 1099 q 672 1067 621 1099 q 742 882 742 1015 q 726 757 742 804 q 599 588 696 657 q 697 468 660 554 q 750 240 746 368 q 746 167 750 210 q 636 26 733 65 l 635 26 q 540 13 592 13 q 381 67 447 13 q 219 0 318 0 z "},"л":{"ha":778,"x_min":28,"x_max":750,"o":"m 394 1015 q 363 996 381 1014 q 310 936 351 986 q 171 497 265 896 q 147 335 153 413 q 126 186 142 264 q 124 154 124 175 q 207 97 124 97 l 222 97 q 316 122 283 97 q 349 225 349 146 q 344 472 344 325 q 346 593 344 535 q 361 626 347 614 q 393 639 375 639 q 429 624 415 639 q 443 590 443 610 q 440 458 440 528 q 445 230 442 343 q 550 100 449 117 q 572 97 563 97 q 656 221 656 97 q 643 371 656 293 q 636 429 638 406 q 546 729 625 547 q 496 861 519 794 q 444 964 478 913 q 394 1015 411 1015 m 394 1111 q 528 1015 465 1111 q 586 893 568 947 q 635 767 608 831 q 732 436 721 565 q 738 385 733 417 q 750 225 750 311 q 694 49 750 113 q 574 1 649 1 l 539 4 q 404 75 453 15 q 364 38 388 53 q 208 0 296 0 q 60 58 107 0 q 28 164 28 103 q 32 206 28 188 q 51 343 46 275 q 76 519 57 425 q 235 997 169 922 q 313 1081 286 1057 q 394 1111 346 1110 z "},"м":{"ha":1097,"x_min":28,"x_max":1069,"o":"m 575 0 l 556 0 q 421 38 488 0 q 386 69 401 51 q 238 3 333 3 q 29 136 42 3 l 28 174 q 32 238 28 211 l 39 374 q 101 976 54 822 q 200 1075 124 1038 q 354 1110 271 1110 l 418 1111 q 483 1108 447 1111 q 549 1081 518 1104 q 656 1110 585 1106 q 736 1107 722 1110 q 942 1053 868 1107 q 1011 944 996 1006 q 1028 831 1026 883 l 1029 804 q 1043 633 1035 746 q 1069 179 1069 233 q 1063 110 1069 146 q 876 1 1032 1 q 715 56 781 1 q 575 0 669 1 m 575 97 q 639 114 619 97 q 651 168 651 129 l 651 222 q 656 358 651 282 q 661 497 661 433 q 658 585 661 543 q 671 620 658 604 q 706 636 683 636 q 753 590 749 636 q 758 490 758 544 q 753 350 758 425 q 747 197 747 260 q 885 99 753 99 q 969 133 958 99 q 972 165 972 144 q 965 311 972 186 q 921 910 939 829 q 881 979 911 951 q 683 1014 842 1014 q 607 1004 626 1014 q 596 951 599 985 q 597 886 597 926 q 596 819 597 846 q 547 754 596 754 q 513 768 528 754 q 499 803 499 782 l 499 951 q 486 1007 496 988 q 432 1014 479 1014 l 356 1014 q 247 990 292 1014 q 193 946 201 967 q 135 369 156 822 q 126 204 132 283 l 125 151 q 136 122 125 135 q 246 100 150 100 q 306 125 285 101 q 340 229 340 165 q 347 456 347 300 q 344 586 347 524 q 358 621 344 607 q 390 636 371 635 q 426 623 413 636 q 440 590 440 610 q 443 469 443 532 q 438 225 443 324 q 470 122 438 146 q 561 97 503 97 l 575 97 z "},"н":{"ha":778,"x_min":28,"x_max":750,"o":"m 201 96 l 269 100 q 324 135 308 106 q 340 188 340 164 q 343 203 340 196 q 346 396 346 217 q 360 429 346 415 q 393 443 374 443 q 428 429 414 443 q 442 396 442 415 q 439 186 442 210 q 433 124 433 156 q 435 106 433 114 q 513 100 453 100 q 599 118 593 103 q 607 190 607 140 l 606 224 q 608 304 608 263 q 639 746 608 507 q 654 917 654 856 q 638 1000 654 971 q 529 1015 621 1013 q 422 1000 440 1011 q 419 963 419 986 q 421 921 419 938 q 422 892 422 904 l 421 856 q 429 739 421 765 q 432 721 432 731 q 426 699 432 711 q 382 675 414 675 q 339 707 350 675 q 324 822 324 763 l 326 892 q 325 915 326 901 q 324 942 324 929 q 322 964 324 954 q 282 986 319 985 q 240 985 258 986 q 206 983 221 983 q 142 976 156 983 q 133 939 133 971 l 132 922 q 125 765 125 844 q 133 592 125 679 q 142 390 142 490 q 140 304 142 346 q 139 221 139 263 q 136 185 139 207 q 132 119 132 139 l 133 100 q 201 96 160 96 m 199 0 q 74 19 97 0 q 38 97 40 53 l 36 129 q 42 211 36 163 l 42 221 q 44 307 42 265 q 46 390 46 349 q 36 585 46 486 q 28 758 28 672 q 36 933 28 846 q 49 1008 36 968 q 136 1076 65 1061 q 232 1081 158 1081 q 271 1082 250 1082 q 353 1067 317 1082 q 522 1111 394 1110 q 626 1103 581 1111 q 750 926 750 1082 q 739 776 750 847 l 735 736 q 706 386 713 563 l 706 385 q 704 304 704 346 q 703 219 704 263 l 703 192 q 697 115 703 160 q 657 38 692 71 q 515 3 622 6 q 368 32 403 3 l 364 38 q 281 4 331 11 q 199 0 247 0 z "},"о":{"ha":778,"x_min":28,"x_max":750,"o":"m 383 303 l 382 303 q 349 318 361 304 q 336 349 336 332 l 336 353 q 340 563 340 458 q 346 776 340 668 q 362 809 347 796 q 396 822 376 822 q 442 771 442 817 q 438 603 438 686 l 438 561 q 432 349 438 456 q 417 315 431 328 q 383 303 403 303 m 354 0 q 160 28 231 0 q 40 175 47 78 l 40 176 q 28 424 28 303 q 82 919 28 681 l 82 921 q 372 1111 138 1111 q 424 1108 397 1111 l 442 1108 q 545 1101 493 1108 q 651 1063 597 1093 q 742 944 722 1022 q 750 858 750 900 l 747 785 q 749 647 747 715 q 750 529 750 589 q 747 369 750 450 q 715 163 739 264 q 651 49 700 86 q 354 0 589 0 m 354 96 q 499 104 428 96 q 596 126 575 108 q 621 182 617 144 q 651 375 643 279 q 654 538 654 457 l 653 646 q 651 826 651 714 l 653 867 q 647 927 653 897 q 604 979 640 957 q 519 1007 564 1001 q 418 1013 475 1013 q 372 1015 393 1015 q 175 897 206 1015 q 125 426 125 671 q 136 186 125 308 q 168 133 136 156 q 354 96 218 96 z "},"п":{"ha":778,"x_min":28,"x_max":750,"o":"m 392 1015 q 256 990 325 1015 q 192 951 197 968 q 135 372 151 817 l 126 217 q 124 160 124 185 q 135 122 125 135 q 244 100 153 100 q 304 125 285 101 q 340 231 339 165 q 344 597 344 311 q 343 771 344 708 q 356 805 343 790 q 393 819 369 819 q 424 807 411 819 q 439 774 438 794 q 440 597 440 708 q 436 225 440 313 q 468 122 436 146 q 560 97 500 97 q 636 114 617 97 q 649 163 649 131 l 649 197 q 653 469 653 292 q 626 925 653 842 q 542 993 614 965 q 392 1015 485 1015 m 392 1111 q 696 1003 597 1111 q 750 475 750 949 q 744 194 750 303 l 746 164 q 741 113 746 144 q 704 47 736 82 q 571 0 660 0 l 553 0 q 419 38 486 0 q 385 71 400 51 q 239 3 331 3 q 29 136 42 3 l 28 174 q 32 239 28 211 l 39 376 q 100 982 54 832 q 223 1080 129 1049 q 392 1111 317 1111 z "},"р":{"ha":778,"x_min":28,"x_max":750,"o":"m 375 589 q 339 601 353 589 q 324 633 325 614 q 322 693 322 663 q 326 794 322 743 q 329 893 329 846 q 344 926 329 913 q 378 940 358 940 q 412 926 397 940 q 426 893 426 913 q 422 788 426 842 q 418 693 418 739 l 419 636 q 408 606 419 619 q 375 589 396 592 m 250 0 q 46 144 76 0 q 28 339 28 243 q 31 414 28 376 q 32 526 32 458 l 32 563 q 37 719 32 635 q 69 894 42 804 q 425 1111 135 1111 q 622 1044 549 1111 l 622 1043 q 731 867 708 956 q 750 732 750 794 l 749 693 q 700 519 749 597 q 472 396 631 411 l 472 365 q 475 265 475 315 q 475 207 475 249 q 463 117 475 165 q 380 28 443 57 q 250 0 317 0 m 250 96 q 331 110 297 96 q 369 142 364 125 q 379 242 379 181 q 376 361 379 303 l 375 440 q 388 475 375 461 q 422 489 401 489 q 647 640 619 493 q 653 731 653 678 q 556 974 653 883 q 425 1015 511 1015 q 332 1006 383 1015 q 214 957 250 992 q 128 561 128 871 l 128 526 q 126 413 128 456 q 124 340 124 375 q 139 165 124 250 q 140 164 140 165 q 161 120 143 139 q 233 97 179 101 l 250 96 z "},"с":{"ha":778,"x_min":28,"x_max":750,"o":"m 376 0 q 207 26 279 0 q 50 225 92 75 q 28 428 28 308 q 42 592 28 482 q 80 813 56 703 q 136 985 104 922 q 264 1083 178 1054 q 428 1111 350 1111 q 693 999 604 1111 q 750 838 750 929 q 615 599 750 688 q 656 561 638 585 q 715 339 715 472 q 703 207 715 268 q 536 24 675 74 q 376 0 474 0 m 376 96 q 501 114 456 97 l 503 114 q 582 167 560 136 q 618 342 618 218 q 617 401 618 356 q 578 504 615 446 q 468 532 557 532 q 357 529 421 532 q 324 543 338 529 q 308 576 310 557 q 322 611 308 597 q 356 626 335 625 q 582 693 500 631 q 654 835 654 750 q 620 937 654 886 q 501 1007 586 988 l 500 1007 q 428 1015 467 1015 q 298 994 356 1015 q 221 939 240 972 q 173 789 194 889 q 138 585 151 689 q 124 428 124 481 q 131 307 124 371 q 165 191 139 243 q 244 117 190 139 q 376 96 297 96 z "},"т":{"ha":778,"x_min":28,"x_max":750,"o":"m 399 96 q 519 108 474 96 q 521 110 521 108 q 589 172 572 122 q 606 310 606 222 q 517 599 601 431 l 479 599 q 446 613 460 599 q 432 647 432 626 q 446 681 432 667 q 479 694 460 694 l 582 694 q 622 700 614 697 l 626 701 q 633 733 631 714 q 638 753 636 742 q 654 886 654 832 q 639 967 654 938 q 551 1010 613 1003 q 464 1015 508 1015 l 428 1014 l 324 1015 q 221 1009 278 1015 q 138 967 164 1003 q 125 906 128 954 q 142 753 125 840 l 146 733 q 154 701 150 708 l 172 697 l 233 693 q 254 694 244 693 l 303 694 q 336 681 322 694 q 350 647 350 667 q 336 613 350 626 q 303 599 322 599 l 275 599 q 258 549 269 578 q 174 215 174 299 q 176 190 174 196 q 275 102 204 108 q 399 96 346 96 m 399 0 q 268 7 340 0 q 85 158 135 21 q 78 214 78 182 q 168 579 78 318 q 175 600 171 590 q 86 633 124 601 q 51 714 56 669 l 51 715 l 47 732 q 28 892 28 824 q 56 1017 28 971 q 192 1100 104 1086 q 324 1111 258 1111 l 361 1110 l 463 1111 q 599 1099 524 1111 q 721 1017 674 1086 l 722 1017 q 750 888 750 963 q 732 732 750 814 q 728 715 731 722 l 728 714 q 693 633 724 669 q 621 601 663 606 q 701 290 701 428 q 682 144 701 217 q 544 15 646 40 q 399 0 486 0 z "},"у":{"ha":778,"x_min":28,"x_max":750,"o":"m 310 96 q 508 117 451 97 q 581 195 560 136 q 611 335 601 254 l 617 374 q 633 557 629 463 l 642 686 q 653 889 653 794 q 652 964 653 929 q 650 1002 651 999 q 642 1008 649 1006 q 592 1015 622 1015 q 525 1003 542 1015 l 521 1000 q 479 865 493 972 q 471 685 471 785 q 457 651 471 665 q 424 638 443 638 q 389 651 403 638 q 375 685 375 665 q 388 897 375 813 l 386 906 q 325 982 386 961 q 271 992 294 992 q 225 985 244 992 q 204 967 206 978 q 199 882 199 926 q 213 721 199 818 q 288 557 226 624 l 311 557 q 451 529 432 557 q 461 501 461 517 l 461 494 q 414 454 453 454 l 406 454 q 314 461 353 461 q 178 417 211 461 q 157 372 157 388 q 142 315 150 354 q 125 185 125 243 q 136 125 125 131 q 310 96 167 101 m 321 0 q 78 47 146 0 l 76 49 q 28 188 28 88 q 31 240 28 211 q 65 404 40 335 q 183 535 94 497 q 103 876 103 657 q 108 978 103 928 q 279 1088 132 1088 l 286 1088 q 426 1032 378 1081 q 464 1078 442 1061 q 593 1111 508 1111 q 625 1110 621 1111 l 626 1110 q 749 983 749 1097 l 750 893 q 738 675 750 792 q 729 551 732 617 q 713 360 725 454 l 707 321 q 539 26 685 76 q 321 0 453 0 z "},"ф":{"ha":1097,"x_min":28,"x_max":1069,"o":"m 301 324 q 266 338 279 324 q 253 374 253 353 q 258 758 258 558 q 273 792 258 778 q 307 807 288 807 q 341 792 326 807 q 356 758 356 778 q 350 371 356 556 q 335 337 349 350 q 301 324 321 324 m 797 324 l 796 324 q 763 337 776 324 q 747 371 749 350 q 742 758 742 556 q 756 792 742 778 q 790 807 771 807 q 824 792 810 807 q 839 758 839 778 q 844 374 839 557 q 831 339 844 353 q 797 324 818 325 m 493 0 q 419 8 456 0 l 418 8 q 356 46 381 17 q 347 61 350 53 q 278 51 315 51 l 244 53 q 88 136 164 60 q 33 250 42 185 q 28 336 28 293 q 49 778 28 615 q 174 1024 67 965 q 294 1058 240 1058 q 349 1050 321 1058 q 436 1104 378 1096 q 596 1111 486 1111 q 678 1103 638 1111 l 679 1103 q 749 1053 729 1092 q 800 1058 774 1058 q 926 1022 863 1058 q 1021 909 999 976 q 1049 778 1043 842 q 1068 349 1068 607 l 1069 313 q 1063 229 1069 276 q 944 83 1051 156 q 819 51 896 51 q 749 63 782 51 q 732 39 742 50 q 585 1 690 1 l 533 1 l 493 0 m 569 97 q 663 107 643 97 l 664 110 q 650 188 664 146 q 636 275 636 229 q 652 307 638 294 q 688 319 667 319 q 732 268 732 314 q 743 213 732 253 l 750 188 q 799 149 774 150 l 849 149 q 942 206 888 150 q 974 310 974 239 q 972 347 974 326 q 971 389 971 367 q 965 607 971 499 q 932 874 953 811 q 878 939 917 915 q 803 963 839 963 q 754 953 779 963 l 746 913 q 731 838 733 869 q 717 803 731 817 q 683 790 703 790 q 648 804 661 790 q 635 839 635 818 q 651 936 638 886 q 663 1001 663 981 q 649 1011 663 1008 q 568 1014 636 1014 l 532 1013 l 508 1013 q 444 1008 457 1013 l 435 1004 l 433 994 q 447 925 435 961 q 461 836 461 881 q 446 803 460 815 q 414 792 432 792 q 378 806 390 792 q 365 837 365 821 q 363 868 365 853 q 342 949 350 911 q 294 963 317 963 q 217 938 265 963 q 145 765 164 907 q 126 419 126 622 l 125 375 q 128 272 125 314 q 156 206 132 231 q 249 149 210 150 l 275 147 q 316 151 300 147 q 347 175 332 156 l 351 199 q 367 274 364 242 q 381 307 367 293 q 414 321 394 321 l 415 321 q 463 272 463 318 q 446 175 460 225 q 438 136 440 143 q 435 114 435 122 l 435 104 l 446 100 q 508 97 465 97 l 569 97 z "},"х":{"ha":778,"x_min":28,"x_max":750,"o":"m 500 0 q 379 43 422 0 q 346 19 365 29 l 344 18 q 253 1 307 1 q 90 57 143 1 l 89 58 q 35 211 42 126 q 32 283 32 250 q 36 354 32 322 q 97 568 54 482 q 44 675 54 606 l 38 732 q 28 839 28 785 q 31 900 28 869 q 128 1065 44 1006 q 276 1111 190 1111 q 417 1060 369 1111 q 540 1096 475 1096 l 563 1094 q 732 974 700 1081 q 750 829 750 899 q 681 592 750 685 q 740 274 740 442 q 710 94 740 158 q 597 15 686 44 q 500 0 544 0 m 504 97 q 539 100 518 97 q 625 140 610 114 q 639 201 636 160 q 644 276 644 251 q 604 519 644 396 q 532 483 572 496 q 518 481 525 481 q 472 514 488 481 q 471 531 471 522 q 503 575 471 564 q 588 631 553 593 q 633 706 622 668 l 635 708 q 654 829 654 764 q 608 986 654 963 q 546 999 581 999 q 490 990 515 999 q 457 967 464 981 q 453 960 456 963 l 456 888 q 431 694 456 715 q 394 682 415 682 q 363 698 375 685 q 350 729 350 711 l 350 733 q 358 890 358 843 q 350 990 358 975 q 275 1015 335 1015 q 186 989 222 1015 l 185 988 q 126 889 133 949 q 124 846 124 869 q 133 744 124 801 q 141 683 138 714 q 172 631 144 651 q 254 585 199 610 l 281 571 q 308 529 308 556 q 303 507 308 518 q 260 481 286 481 q 238 486 249 481 q 214 497 226 492 l 213 497 q 178 515 194 506 q 132 343 147 451 q 128 271 128 304 q 165 118 128 171 q 226 99 171 108 l 256 97 q 301 104 288 97 q 325 185 325 114 q 351 374 325 351 q 383 385 365 385 q 419 367 404 385 q 431 336 431 353 l 431 332 q 422 214 422 260 q 436 128 422 160 q 438 124 438 126 q 504 97 453 97 z "},"ц":{"ha":778,"x_min":28,"x_max":750,"o":"m 513 0 l 460 0 q 197 16 276 0 q 75 81 117 32 q 53 132 63 94 q 28 476 28 217 q 38 910 28 683 l 38 940 q 42 996 38 961 q 78 1064 47 1031 q 208 1111 124 1111 l 228 1111 q 361 1074 296 1111 q 396 1042 381 1060 q 540 1108 450 1108 q 749 975 736 1108 l 750 940 q 746 874 750 893 q 742 650 743 808 q 732 249 740 424 q 750 165 750 213 q 743 106 750 139 q 711 44 736 72 q 635 8 682 17 q 513 0 588 0 m 525 97 q 592 99 556 97 q 641 113 628 100 q 654 165 654 125 q 647 204 654 192 q 561 244 626 239 q 488 247 524 247 l 431 247 q 397 261 411 247 q 383 294 383 275 q 397 329 383 315 q 431 343 411 343 l 503 344 q 639 326 571 344 q 646 650 644 483 q 650 879 646 811 l 651 894 q 654 951 654 926 q 643 989 653 976 q 535 1011 625 1011 q 476 986 496 1010 q 440 882 440 944 q 436 654 436 799 q 438 522 436 585 q 424 488 438 501 q 390 472 411 474 q 356 485 371 472 q 342 518 342 497 q 339 639 339 576 q 344 886 339 786 q 313 990 344 965 q 222 1014 281 1014 l 208 1014 q 149 999 164 1014 q 133 932 133 983 l 133 906 q 124 486 124 683 q 144 158 128 222 q 216 110 154 124 q 389 97 278 97 l 525 97 z "},"ч":{"ha":778,"x_min":28,"x_max":750,"o":"m 557 0 q 299 10 354 0 q 197 143 208 24 q 190 414 190 214 q 82 514 125 446 q 28 832 32 588 q 32 1001 28 893 l 32 1004 q 50 1053 32 1025 q 238 1103 83 1103 q 328 1096 289 1103 q 396 1051 367 1089 q 488 1101 433 1092 q 596 1111 542 1111 q 697 1072 657 1111 q 744 933 744 1019 l 743 747 q 746 599 743 668 q 750 301 750 425 q 746 131 750 200 q 661 11 739 38 q 557 0 621 0 m 546 97 q 642 110 631 97 q 654 272 654 124 l 650 596 q 647 849 647 665 l 649 925 q 629 1004 649 981 q 596 1015 624 1015 q 475 994 503 1015 q 432 747 432 961 l 432 713 q 418 678 432 692 q 383 665 404 665 q 350 679 364 665 q 336 713 336 693 l 336 760 q 333 919 336 869 q 314 1000 329 986 q 258 1007 304 1007 q 128 994 144 1007 q 124 833 124 894 q 163 565 131 597 q 243 495 193 515 q 388 475 293 475 q 422 461 407 475 q 436 428 436 447 q 422 393 436 407 q 388 379 407 379 q 286 385 329 379 l 288 306 l 288 282 q 303 110 288 143 q 390 99 313 99 l 418 99 q 504 97 468 99 l 546 97 z "},"ш":{"ha":1097,"x_min":28,"x_max":1069,"o":"m 575 1110 q 708 1063 663 1110 l 715 1054 l 732 1067 q 876 1108 801 1108 q 1063 1000 1033 1108 q 1069 931 1069 965 q 1064 854 1069 914 q 1043 475 1061 749 q 1029 304 1035 361 q 1028 278 1028 292 q 1011 163 1026 225 q 943 54 996 101 q 788 6 886 13 q 603 0 690 0 q 482 1 546 0 l 393 3 q 224 34 318 3 q 101 131 129 65 q 39 735 54 285 l 32 872 q 28 938 28 896 q 29 974 28 956 q 240 1107 42 1107 q 386 1039 332 1107 q 421 1072 401 1058 q 556 1111 488 1111 l 575 1110 m 575 1013 l 561 1013 q 470 988 503 1013 q 438 885 438 964 q 443 639 443 785 q 440 518 443 576 q 426 485 440 499 q 390 472 411 472 q 358 488 371 474 q 344 522 344 501 q 346 654 346 585 q 340 881 346 811 l 333 932 q 246 1010 315 1007 q 136 988 150 1010 q 125 958 125 975 q 125 933 125 942 l 126 893 q 135 739 131 872 q 193 163 156 286 q 257 124 193 147 q 393 99 326 99 l 483 97 q 603 96 543 96 q 881 129 856 96 q 920 197 911 156 q 931 283 929 239 l 933 314 q 960 704 947 451 l 969 894 q 972 944 972 925 q 969 976 972 965 q 939 1004 963 999 l 938 1004 q 885 1013 915 1013 q 747 913 753 1013 q 753 758 747 849 q 758 619 758 683 q 753 518 758 564 q 706 472 749 472 q 671 488 683 472 q 658 522 658 504 l 658 526 q 661 611 661 565 q 656 753 661 676 q 651 888 651 829 l 651 942 q 639 996 651 979 q 575 1013 619 1013 z "},"щ":{"ha":1097,"x_min":28,"x_max":1069,"o":"m 404 0 q 154 58 228 0 q 86 166 101 106 q 69 279 71 226 l 68 304 q 56 476 63 363 q 33 856 36 750 q 28 932 28 915 q 35 1001 28 967 q 219 1108 63 1108 q 267 1107 229 1108 q 365 1068 306 1106 l 382 1056 l 389 1064 q 524 1111 435 1111 l 542 1111 q 676 1074 610 1111 q 711 1040 696 1060 q 857 1108 765 1108 q 1068 975 1056 1108 l 1069 940 q 1065 874 1069 893 l 1058 736 q 1026 283 1047 457 q 1069 164 1069 238 q 1031 67 1069 106 q 909 13 986 25 q 731 1 832 1 l 653 3 q 492 1 535 3 q 404 0 449 0 m 426 96 l 490 97 q 571 100 532 100 q 654 99 614 100 l 704 99 q 854 103 779 99 q 972 164 972 110 q 965 204 972 192 q 879 244 944 239 q 806 247 842 247 l 749 246 q 715 260 729 246 q 700 294 700 275 q 715 328 700 314 q 749 343 729 343 l 814 344 q 935 332 874 344 q 961 740 954 542 q 969 881 965 826 l 969 894 l 971 896 l 972 935 q 972 960 972 943 q 961 989 972 976 q 851 1011 943 1011 q 792 986 811 1010 q 757 883 757 946 q 756 882 757 882 q 751 654 751 801 q 753 524 751 586 q 740 489 753 503 q 707 474 726 475 q 672 486 686 474 q 656 519 657 499 q 654 654 654 585 q 660 886 654 772 q 627 990 660 965 q 536 1014 594 1014 l 515 1014 q 458 997 475 1014 q 446 943 446 981 l 446 889 q 441 753 446 831 q 436 613 436 676 q 439 526 436 565 l 439 522 q 426 490 439 506 q 392 474 414 474 q 344 519 349 474 q 339 621 339 565 q 344 760 339 685 q 350 914 350 850 q 213 1013 344 1013 q 160 1006 182 1013 l 158 1006 q 129 978 135 1000 q 125 940 125 965 q 128 896 125 922 l 129 860 q 138 705 132 814 q 151 483 143 596 l 164 314 q 178 200 172 221 q 217 133 186 160 l 217 132 q 333 99 257 103 q 426 96 379 96 z "},"ъ":{"ha":778,"x_min":28,"x_max":750,"o":"m 469 0 l 322 3 l 261 1 q 160 10 201 1 q 69 94 89 28 q 50 253 50 160 q 124 638 50 479 q 51 696 69 646 q 28 856 28 754 q 79 1050 28 993 q 313 1111 133 1111 l 338 1111 q 547 989 519 1111 l 549 976 q 528 849 549 942 q 503 711 514 781 q 711 596 650 696 q 749 435 749 529 l 750 374 q 729 228 750 310 q 622 60 708 147 l 621 60 q 549 11 582 22 q 469 0 517 0 m 497 97 q 556 129 521 97 q 653 379 653 222 l 653 435 q 650 486 653 456 q 450 618 633 617 q 416 633 429 619 q 403 665 403 647 q 446 931 403 714 q 451 975 451 963 q 379 1013 442 1007 q 310 1014 350 1014 q 139 965 139 1014 q 138 961 138 964 q 124 853 124 913 q 129 772 124 814 q 139 732 133 743 l 150 732 l 197 733 l 233 736 q 266 724 251 736 q 281 688 281 711 q 247 642 281 654 l 243 639 q 157 403 185 589 q 147 244 147 311 q 172 108 147 124 q 257 99 188 99 l 497 97 m 378 164 q 343 178 357 164 q 329 211 329 192 q 325 311 329 260 q 321 413 321 363 q 322 472 321 443 q 339 505 325 493 q 371 517 353 517 q 406 502 393 517 q 418 469 418 488 l 417 417 q 421 316 417 368 q 425 211 425 264 q 411 178 425 192 q 378 164 397 164 z "},"ы":{"ha":1097,"x_min":28,"x_max":1069,"o":"m 378 164 q 344 178 358 164 q 329 211 329 192 q 326 312 329 260 q 322 414 322 364 q 324 474 322 444 q 339 505 325 493 q 371 517 353 517 q 407 502 394 517 q 419 469 419 488 l 418 413 q 422 315 418 367 q 426 211 426 264 q 412 178 426 192 q 378 164 397 164 m 471 96 q 519 102 504 96 q 556 129 533 108 q 653 375 653 221 q 646 465 653 428 q 422 619 619 615 q 388 633 401 619 q 375 667 375 647 l 376 747 q 379 868 379 807 q 369 969 379 929 q 331 1001 364 986 q 250 1015 297 1015 q 164 994 188 1015 q 140 946 144 976 l 140 944 q 124 767 124 858 q 126 696 124 732 q 128 597 128 651 l 128 544 q 161 125 128 251 q 168 111 163 117 q 258 99 181 99 l 324 99 q 426 97 390 99 l 471 96 m 842 1015 q 754 1001 768 1015 q 751 988 751 999 l 751 978 q 756 817 754 906 q 764 624 758 717 q 772 244 772 483 q 776 115 772 131 q 814 97 779 99 q 913 99 890 97 q 946 106 935 100 l 951 108 q 960 150 960 119 q 961 281 960 226 q 963 536 961 450 q 964 665 964 599 l 963 803 q 968 893 964 850 q 971 958 971 929 q 959 1001 971 989 q 906 1014 947 1014 l 842 1015 m 676 124 q 622 60 654 92 q 554 13 586 25 q 471 0 522 0 l 424 1 q 324 3 385 3 q 292 1 307 3 q 183 6 222 1 q 69 96 96 15 q 32 542 32 231 l 32 597 q 30 690 32 650 q 28 768 28 731 q 104 1069 28 1010 q 250 1111 156 1111 q 381 1083 318 1111 q 463 994 443 1054 q 475 844 475 943 q 472 744 475 794 l 472 713 q 667 629 597 700 q 658 814 661 719 l 653 986 q 842 1111 653 1111 l 906 1111 q 1033 1067 993 1111 q 1067 1001 1064 1032 q 1069 953 1069 969 q 1065 885 1069 919 q 1061 803 1061 844 l 1061 710 l 1058 150 q 936 4 1058 15 q 833 0 893 0 q 685 83 707 0 q 676 124 679 104 z "},"ь":{"ha":778,"x_min":28,"x_max":750,"o":"m 471 0 l 424 1 q 324 3 385 3 q 292 1 307 3 q 183 6 222 1 q 69 96 96 15 q 32 542 32 231 l 32 597 q 30 690 32 650 q 28 768 28 731 q 104 1069 28 1010 q 250 1111 156 1111 q 381 1083 318 1111 q 463 994 443 1054 q 475 844 475 943 q 472 744 475 794 l 472 713 q 700 588 631 696 q 749 413 749 510 l 750 374 q 729 229 750 311 q 622 60 708 147 q 554 13 586 25 q 471 0 522 0 m 471 96 q 519 102 504 96 q 556 129 533 108 q 653 375 653 221 q 646 465 653 428 q 422 619 619 615 q 388 633 401 619 q 375 667 375 647 l 376 747 q 379 868 379 807 q 369 969 379 929 q 331 1001 364 986 q 250 1015 297 1015 q 164 994 188 1015 q 140 946 144 976 l 140 944 q 124 767 124 858 q 126 696 124 732 q 128 597 128 651 l 128 544 q 161 125 128 251 q 168 111 163 117 q 258 99 181 99 l 324 99 q 426 97 390 99 l 471 96 m 378 164 q 344 178 358 164 q 329 211 329 192 q 326 312 329 260 q 322 414 322 364 q 324 474 322 444 q 339 505 325 493 q 371 517 353 517 q 407 502 394 517 q 419 469 419 488 l 418 413 q 422 315 418 367 q 426 211 426 264 q 412 178 426 192 q 378 164 397 164 z "},"э":{"ha":778,"x_min":28,"x_max":750,"o":"m 401 0 q 242 24 304 0 q 76 206 101 74 q 74 207 76 207 q 63 303 63 282 q 67 350 63 319 q 122 449 71 381 q 142 469 131 460 q 99 576 99 519 q 117 647 99 617 q 60 726 81 681 q 28 854 28 799 q 53 957 28 913 q 258 1101 114 1069 q 350 1111 301 1111 q 497 1091 407 1111 q 642 985 586 1071 q 719 760 688 894 q 750 540 750 626 q 571 28 750 101 q 401 0 492 0 m 410 97 q 535 117 482 97 q 622 252 590 140 q 653 540 653 364 q 625 738 653 617 q 557 938 597 860 q 444 1004 532 983 q 353 1015 397 1015 q 199 978 263 1015 q 125 854 125 933 q 147 767 125 814 q 174 724 163 733 q 214 715 186 715 q 404 765 283 721 q 419 768 413 768 q 446 761 432 768 q 468 721 468 749 q 436 674 468 688 q 225 619 290 622 q 196 576 196 613 q 216 533 196 554 q 285 510 236 513 l 296 511 q 467 482 386 511 q 497 438 497 469 q 494 419 497 428 q 449 388 482 388 q 432 392 440 388 q 289 415 367 415 q 200 392 211 413 q 158 304 158 335 q 169 226 158 285 q 275 114 181 150 q 410 97 322 97 z "},"ю":{"ha":1097,"x_min":28,"x_max":1069,"o":"m 200 0 q 114 18 154 0 q 28 157 28 63 q 47 607 38 244 q 56 922 53 881 l 56 924 q 133 1078 63 1033 q 247 1111 186 1111 q 410 1049 364 1111 q 563 1103 474 1093 q 688 1110 624 1110 q 861 1101 794 1110 q 971 1063 917 1093 q 1061 944 1042 1022 q 1069 858 1069 900 l 1067 785 q 1063 582 1067 717 q 1035 163 1049 235 q 1015 104 1029 135 q 829 7 976 18 q 650 1 736 1 q 351 61 435 1 q 338 47 346 53 q 200 0 275 0 m 200 96 q 275 121 243 96 q 303 289 290 136 l 310 354 q 363 468 318 436 q 417 488 392 488 q 468 482 468 488 l 478 481 q 513 467 499 481 q 526 432 526 453 q 512 399 526 413 q 478 385 497 385 q 439 390 461 385 l 428 392 q 420 391 422 392 q 415 382 418 390 q 406 343 407 363 l 400 281 l 399 279 q 386 160 393 210 l 394 151 q 436 125 399 140 q 676 97 500 97 q 914 126 881 97 q 941 181 935 144 q 954 335 947 218 q 969 785 969 631 q 971 826 969 806 q 972 867 972 847 q 966 928 972 897 q 924 979 960 958 l 922 979 q 765 1013 854 1013 l 688 1014 q 537 1001 606 1014 q 439 940 468 988 q 436 889 439 914 l 435 856 l 433 833 q 429 765 429 810 l 429 725 q 490 721 457 725 q 533 671 533 715 l 533 667 q 483 625 528 625 l 443 628 q 332 703 338 632 l 332 739 q 336 843 332 792 l 338 860 l 343 942 q 338 983 343 965 q 308 1006 332 1001 q 307 1007 308 1007 q 246 1015 279 1015 q 151 918 156 1013 q 143 599 151 885 q 125 150 133 250 l 125 146 q 131 126 125 138 q 156 106 136 115 q 200 96 176 96 m 703 303 q 669 317 683 303 q 654 350 654 331 q 681 810 654 786 q 715 822 694 822 q 749 806 736 819 q 761 771 761 792 q 751 350 751 601 q 737 317 751 331 q 703 303 722 303 z "},"я":{"ha":778,"x_min":28,"x_max":750,"o":"m 599 0 q 432 42 481 0 q 314 0 396 0 q 180 22 250 0 q 79 94 110 43 q 28 369 28 204 q 161 589 28 536 q 72 775 96 656 q 67 846 67 811 q 83 951 67 901 q 204 1076 119 1046 q 353 1108 289 1106 q 436 1111 417 1111 q 583 1093 517 1111 q 721 987 692 1060 q 750 847 750 914 l 746 176 q 699 39 746 90 q 599 0 658 0 m 599 96 q 649 186 649 96 l 649 453 q 651 835 651 639 q 628 956 651 921 q 433 1015 586 1015 q 175 921 203 1015 q 163 840 163 876 q 225 663 163 738 q 321 613 267 613 q 381 611 335 611 q 414 597 400 611 q 428 563 428 582 q 414 528 428 543 q 381 514 400 514 q 219 506 260 514 q 124 369 124 488 q 129 281 124 346 q 214 111 135 139 q 314 96 254 96 q 360 106 350 96 q 382 226 381 122 l 382 396 q 431 444 386 442 q 464 431 450 444 q 479 396 478 417 l 478 214 q 496 114 478 136 q 599 96 517 96 m 426 661 q 393 675 407 661 q 379 708 379 689 q 377 808 379 764 q 375 904 375 853 q 390 939 375 925 q 424 953 404 953 q 458 939 443 953 q 472 904 472 925 l 475 708 q 461 675 475 689 q 426 661 447 661 z "},"Й":{"ha":778,"x_min":28,"x_max":750,"o":"m 200 96 q 231 99 208 96 q 292 128 253 101 q 367 235 339 163 q 375 256 368 246 q 401 464 401 340 q 415 499 401 485 q 450 513 429 513 q 483 499 469 513 q 497 464 497 485 q 463 218 497 319 q 535 97 467 97 q 585 118 558 97 l 586 118 q 622 184 615 143 q 629 307 629 225 q 633 457 633 388 l 633 492 q 643 743 633 636 q 649 858 647 800 q 654 936 654 921 q 649 978 654 960 q 614 1006 643 997 q 571 1013 600 1013 q 506 989 542 1013 q 458 940 483 976 q 415 833 433 903 q 396 649 396 764 q 382 615 396 629 q 349 601 368 601 q 314 615 328 601 q 300 649 300 629 q 340 917 300 811 q 331 971 340 944 q 265 1014 313 1014 q 194 989 231 1014 q 165 938 169 968 q 164 901 164 922 q 165 856 164 882 q 168 803 167 831 q 146 343 168 469 q 131 244 138 299 l 129 229 q 124 164 124 189 q 128 127 124 146 q 163 101 133 108 l 164 101 q 200 96 178 96 m 621 1104 q 647 1097 635 1101 q 743 997 722 1069 q 750 928 750 963 q 747 885 750 907 l 746 854 q 739 738 743 794 q 731 492 731 614 q 725 301 731 407 l 725 258 q 713 149 725 208 q 644 42 700 89 q 533 1 590 1 q 394 92 447 1 q 349 50 374 68 q 206 0 275 0 q 28 175 28 0 l 33 243 l 36 256 q 50 358 43 314 q 65 492 63 425 q 72 801 72 582 l 67 894 q 74 973 67 928 q 135 1064 81 1018 q 213 1104 174 1093 q 208 1138 208 1118 q 257 1235 208 1203 q 315 1250 283 1250 q 396 1229 353 1250 q 417 1215 408 1222 q 438 1229 425 1222 q 518 1250 481 1250 q 576 1235 549 1250 q 625 1138 625 1203 q 621 1104 625 1118 m 339 1096 q 407 1031 372 1081 q 492 1092 446 1072 q 507 1114 496 1104 q 526 1129 525 1128 q 526 1147 526 1144 q 524 1151 525 1150 q 519 1151 524 1151 q 476 1138 494 1151 l 471 1135 q 417 1110 443 1110 q 386 1117 399 1110 q 357 1138 374 1125 l 351 1142 q 313 1151 329 1151 q 309 1151 310 1151 q 308 1147 308 1150 q 307 1129 307 1144 q 326 1114 308 1128 q 339 1096 335 1106 z "},"й":{"ha":778,"x_min":28,"x_max":750,"o":"m 200 96 q 231 99 208 96 q 292 128 253 101 q 367 235 339 163 q 375 256 368 246 q 401 464 401 340 q 415 499 401 485 q 450 513 429 513 q 483 499 469 513 q 497 464 497 485 q 463 218 497 319 q 535 97 467 97 q 585 118 558 97 l 586 118 q 622 184 615 143 q 629 307 629 225 q 633 457 633 388 l 633 492 q 643 743 633 636 q 649 858 647 800 q 654 936 654 921 q 649 978 654 960 q 614 1006 643 997 q 571 1013 600 1013 q 506 989 542 1013 q 458 940 483 976 q 415 833 433 903 q 396 649 396 764 q 382 615 396 629 q 349 601 368 601 q 314 615 328 601 q 300 649 300 629 q 340 917 300 811 q 331 971 340 944 q 265 1014 313 1014 q 194 989 231 1014 q 165 938 169 968 q 164 901 164 922 q 165 856 164 882 q 168 803 167 831 q 146 343 168 469 q 131 244 138 299 l 129 229 q 124 164 124 189 q 128 127 124 146 q 163 101 133 108 l 164 101 q 200 96 178 96 m 621 1104 q 647 1097 635 1101 q 743 997 722 1069 q 750 928 750 963 q 747 885 750 907 l 746 854 q 739 738 743 794 q 731 492 731 614 q 725 301 731 407 l 725 258 q 713 149 725 208 q 644 42 700 89 q 533 1 590 1 q 394 92 447 1 q 349 50 374 68 q 206 0 275 0 q 28 175 28 0 l 33 243 l 36 256 q 50 358 43 314 q 65 492 63 425 q 72 801 72 582 l 67 894 q 74 973 67 928 q 135 1064 81 1018 q 213 1104 174 1093 q 208 1138 208 1118 q 257 1235 208 1203 q 315 1250 283 1250 q 396 1229 353 1250 q 417 1215 408 1222 q 438 1229 425 1222 q 518 1250 481 1250 q 576 1235 549 1250 q 625 1138 625 1203 q 621 1104 625 1118 m 339 1096 q 407 1031 372 1081 q 492 1092 446 1072 q 507 1114 496 1104 q 526 1129 525 1128 q 526 1147 526 1144 q 524 1151 525 1150 q 519 1151 524 1151 q 476 1138 494 1151 l 471 1135 q 417 1110 443 1110 q 386 1117 399 1110 q 357 1138 374 1125 l 351 1142 q 313 1151 329 1151 q 309 1151 310 1151 q 308 1147 308 1150 q 307 1129 307 1144 q 326 1114 308 1128 q 339 1096 335 1106 z "},"Ё":{"ha":778,"x_min":28,"x_max":750,"o":"m 363 582 q 322 604 335 582 q 314 631 314 617 l 315 640 q 322 729 322 682 q 318 803 322 764 q 314 917 314 858 q 329 950 315 938 q 364 963 343 963 q 397 948 385 961 q 410 917 410 935 l 410 913 q 414 810 410 864 q 418 731 418 769 q 410 619 418 675 q 363 582 400 582 m 367 96 q 449 103 406 96 q 609 149 567 124 q 651 229 651 175 l 653 289 q 644 346 653 326 q 335 394 624 394 q 301 408 315 394 q 288 442 288 422 q 301 476 288 463 q 335 490 315 490 q 478 486 415 490 q 560 608 539 551 q 607 822 607 736 q 581 951 607 888 q 400 1015 547 1015 q 238 997 322 1015 q 161 958 181 985 q 140 890 142 932 l 133 757 q 124 576 124 660 q 128 455 124 517 q 133 328 133 393 l 132 263 q 138 208 132 235 q 176 154 143 182 q 367 96 253 96 m 621 1054 q 669 990 656 1028 l 669 989 q 703 819 703 900 q 650 576 703 714 q 593 474 628 518 l 618 469 q 738 376 708 449 q 750 290 750 333 l 747 229 q 657 65 747 119 q 465 8 588 28 q 369 0 417 0 q 117 79 217 1 q 44 188 56 132 q 36 265 36 226 l 38 293 q 33 450 38 389 q 28 576 28 511 q 38 764 28 665 l 44 894 q 125 1053 50 1000 q 111 1136 111 1081 q 149 1228 111 1204 q 257 1249 181 1249 l 275 1250 q 381 1236 338 1250 q 494 1250 421 1250 q 576 1231 542 1250 q 633 1128 633 1199 q 621 1054 633 1081 m 217 1092 l 218 1092 q 322 1108 269 1104 l 322 1126 q 324 1150 322 1139 l 303 1151 q 208 1149 229 1151 q 211 1101 208 1108 q 217 1092 214 1097 m 422 1111 q 457 1108 439 1110 q 531 1096 497 1104 l 532 1097 q 536 1131 536 1107 q 535 1140 536 1136 q 497 1151 524 1151 q 422 1146 440 1151 q 421 1126 421 1138 q 422 1111 421 1121 z "},"ё":{"ha":778,"x_min":28,"x_max":750,"o":"m 363 582 q 322 604 335 582 q 314 631 314 617 l 315 640 q 322 729 322 682 q 318 803 322 764 q 314 917 314 858 q 329 950 315 938 q 364 963 343 963 q 397 948 385 961 q 410 917 410 935 l 410 913 q 414 810 410 864 q 418 731 418 769 q 410 619 418 675 q 363 582 400 582 m 367 96 q 449 103 406 96 q 609 149 567 124 q 651 229 651 175 l 653 289 q 644 346 653 326 q 335 394 624 394 q 301 408 315 394 q 288 442 288 422 q 301 476 288 463 q 335 490 315 490 q 478 486 415 490 q 560 608 539 551 q 607 822 607 736 q 581 951 607 888 q 400 1015 547 1015 q 238 997 322 1015 q 161 958 181 985 q 140 890 142 932 l 133 757 q 124 576 124 660 q 128 455 124 517 q 133 328 133 393 l 132 263 q 138 208 132 235 q 176 154 143 182 q 367 96 253 96 m 621 1054 q 669 990 656 1028 l 669 989 q 703 819 703 900 q 650 576 703 714 q 593 474 628 518 l 618 469 q 738 376 708 449 q 750 290 750 333 l 747 229 q 657 65 747 119 q 465 8 588 28 q 369 0 417 0 q 117 79 217 1 q 44 188 56 132 q 36 265 36 226 l 38 293 q 33 450 38 389 q 28 576 28 511 q 38 764 28 665 l 44 894 q 125 1053 50 1000 q 111 1136 111 1081 q 149 1228 111 1204 q 257 1249 181 1249 l 275 1250 q 381 1236 338 1250 q 494 1250 421 1250 q 576 1231 542 1250 q 633 1128 633 1199 q 621 1054 633 1081 m 217 1092 l 218 1092 q 322 1108 269 1104 l 322 1126 q 324 1150 322 1139 l 303 1151 q 208 1149 229 1151 q 211 1101 208 1108 q 217 1092 214 1097 m 422 1111 q 457 1108 439 1110 q 531 1096 497 1104 l 532 1097 q 536 1131 536 1107 q 535 1140 536 1136 q 497 1151 524 1151 q 422 1146 440 1151 q 421 1126 421 1138 q 422 1111 421 1121 z "},"Є":{"ha":778,"x_min":28,"x_max":750,"o":"m 376 0 q 207 28 286 0 q 28 540 28 101 q 59 760 28 626 q 136 985 90 894 q 281 1091 192 1071 q 428 1111 371 1111 q 519 1101 476 1111 q 725 957 664 1069 q 750 854 750 913 q 718 726 750 799 q 661 647 697 681 q 679 576 679 617 q 636 469 679 519 q 656 449 647 460 q 711 350 707 381 q 715 303 715 319 q 704 207 715 282 q 701 206 701 207 q 536 24 676 74 q 376 0 474 0 m 368 97 q 503 114 456 97 q 608 226 597 150 q 619 304 619 285 q 578 392 619 335 q 489 415 567 413 q 346 392 411 415 q 329 388 338 388 q 283 419 296 388 q 281 438 281 428 q 311 482 281 469 q 482 511 392 511 l 493 510 q 562 533 542 513 q 582 576 582 554 q 553 619 582 613 q 342 674 488 622 q 310 721 310 688 q 332 761 310 749 q 358 768 346 768 q 374 765 365 768 q 564 715 494 721 q 603 724 592 715 q 631 767 615 733 q 653 854 653 814 q 579 978 653 933 q 425 1015 515 1015 q 333 1004 381 1015 q 221 938 246 983 q 153 738 181 860 q 125 540 125 617 q 156 252 125 364 q 243 117 188 140 q 368 97 296 97 z "},"є":{"ha":778,"x_min":28,"x_max":750,"o":"m 376 0 q 207 28 286 0 q 28 540 28 101 q 59 760 28 626 q 136 985 90 894 q 281 1091 192 1071 q 428 1111 371 1111 q 519 1101 476 1111 q 725 957 664 1069 q 750 854 750 913 q 718 726 750 799 q 661 647 697 681 q 679 576 679 617 q 636 469 679 519 q 656 449 647 460 q 711 350 707 381 q 715 303 715 319 q 704 207 715 282 q 701 206 701 207 q 536 24 676 74 q 376 0 474 0 m 368 97 q 503 114 456 97 q 608 226 597 150 q 619 304 619 285 q 578 392 619 335 q 489 415 567 413 q 346 392 411 415 q 329 388 338 388 q 283 419 296 388 q 281 438 281 428 q 311 482 281 469 q 482 511 392 511 l 493 510 q 562 533 542 513 q 582 576 582 554 q 553 619 582 613 q 342 674 488 622 q 310 721 310 688 q 332 761 310 749 q 358 768 346 768 q 374 765 365 768 q 564 715 494 721 q 603 724 592 715 q 631 767 615 733 q 653 854 653 814 q 579 978 653 933 q 425 1015 515 1015 q 333 1004 381 1015 q 221 938 246 983 q 153 738 181 860 q 125 540 125 617 q 156 252 125 364 q 243 117 188 140 q 368 97 296 97 z "},"Һ":{"ha":778,"x_min":28,"x_max":750,"o":"m 246 1015 q 169 1008 196 1015 q 154 994 158 1006 q 150 960 150 983 q 124 454 124 625 q 125 260 125 371 l 124 186 q 143 107 124 128 q 175 96 150 96 q 290 115 265 96 q 326 294 325 144 l 326 399 q 342 432 328 418 q 375 446 356 446 q 409 432 396 446 q 424 399 422 418 l 424 351 q 426 189 424 240 q 446 104 431 118 q 493 96 457 96 q 613 139 583 96 q 647 283 644 208 q 654 443 653 343 q 646 542 653 514 q 550 628 629 613 q 424 636 500 636 l 381 636 q 346 650 360 636 q 332 683 332 664 q 346 718 332 704 q 381 732 360 732 l 404 732 q 522 729 474 732 q 526 806 526 771 q 483 976 526 924 q 372 1013 450 1013 q 294 1014 329 1013 l 246 1015 m 242 1111 l 296 1110 l 372 1110 q 617 893 589 1110 q 621 803 621 849 q 617 707 621 756 q 717 626 681 682 q 750 419 750 567 q 743 276 750 350 q 697 94 743 192 q 493 0 643 0 q 364 53 403 0 q 276 9 328 18 q 175 0 225 0 q 75 39 114 0 q 28 178 28 92 l 29 364 q 28 453 29 415 q 54 967 28 628 q 139 1100 54 1071 q 242 1111 179 1111 z "},"һ":{"ha":778,"x_min":28,"x_max":750,"o":"m 246 1015 q 169 1008 196 1015 q 154 994 158 1006 q 150 960 150 983 q 124 454 124 625 q 125 260 125 371 l 124 186 q 143 107 124 128 q 175 96 150 96 q 290 115 265 96 q 326 294 325 144 l 326 399 q 342 432 328 418 q 375 446 356 446 q 409 432 396 446 q 424 399 422 418 l 424 351 q 426 189 424 240 q 446 104 431 118 q 493 96 457 96 q 613 139 583 96 q 647 283 644 208 q 654 443 653 343 q 646 542 653 514 q 550 628 629 613 q 424 636 500 636 l 381 636 q 346 650 360 636 q 332 683 332 664 q 346 718 332 704 q 381 732 360 732 l 404 732 q 522 729 474 732 q 526 806 526 771 q 483 976 526 924 q 372 1013 450 1013 q 294 1014 329 1013 l 246 1015 m 242 1111 l 296 1110 l 372 1110 q 617 893 589 1110 q 621 803 621 849 q 617 707 621 756 q 717 626 681 682 q 750 419 750 567 q 743 276 750 350 q 697 94 743 192 q 493 0 643 0 q 364 53 403 0 q 276 9 328 18 q 175 0 225 0 q 75 39 114 0 q 28 178 28 92 l 29 364 q 28 453 29 415 q 54 967 28 628 q 139 1100 54 1071 q 242 1111 179 1111 z "},"Ѕ":{"ha":778,"x_min":28,"x_max":750,"o":"m 349 0 q 110 64 194 0 q 42 199 49 114 l 42 217 q 100 354 42 294 q 28 607 28 479 l 28 646 q 35 792 28 717 q 82 944 42 867 q 269 1096 140 1054 q 371 1111 322 1111 q 647 864 597 1111 q 654 786 654 824 q 622 639 654 706 q 726 518 696 601 q 750 378 750 449 q 715 203 750 292 q 461 7 651 28 q 349 0 414 1 m 347 96 l 449 103 q 626 238 583 113 l 628 239 q 654 378 654 310 q 638 485 654 432 q 490 575 607 571 l 488 575 q 386 582 433 582 q 286 574 332 582 l 278 574 q 249 582 263 574 q 228 621 228 594 q 238 650 228 636 q 393 678 256 678 q 529 668 474 678 q 558 783 558 717 q 551 846 558 814 q 372 1015 518 1015 q 297 1003 336 1015 q 167 901 207 974 q 129 768 136 838 q 125 653 125 713 l 125 624 q 188 397 125 503 q 354 417 272 417 l 404 417 q 438 402 425 417 q 451 368 451 388 q 438 333 451 347 q 404 319 425 319 l 350 319 q 250 314 307 319 q 138 215 138 301 q 347 96 138 96 z "},"ѕ":{"ha":778,"x_min":28,"x_max":750,"o":"m 349 0 q 110 64 194 0 q 42 199 49 114 l 42 217 q 100 354 42 294 q 28 607 28 479 l 28 646 q 35 792 28 717 q 82 944 42 867 q 269 1096 140 1054 q 371 1111 322 1111 q 647 864 597 1111 q 654 786 654 824 q 622 639 654 706 q 726 518 696 601 q 750 378 750 449 q 715 203 750 292 q 461 7 651 28 q 349 0 414 1 m 347 96 l 449 103 q 626 238 583 113 l 628 239 q 654 378 654 310 q 638 485 654 432 q 490 575 607 571 l 488 575 q 386 582 433 582 q 286 574 332 582 l 278 574 q 249 582 263 574 q 228 621 228 594 q 238 650 228 636 q 393 678 256 678 q 529 668 474 678 q 558 783 558 717 q 551 846 558 814 q 372 1015 518 1015 q 297 1003 336 1015 q 167 901 207 974 q 129 768 136 838 q 125 653 125 713 l 125 624 q 188 397 125 503 q 354 417 272 417 l 404 417 q 438 402 425 417 q 451 368 451 388 q 438 333 451 347 q 404 319 425 319 l 350 319 q 250 314 307 319 q 138 215 138 301 q 347 96 138 96 z "},"І":{"ha":472,"x_min":28,"x_max":444,"o":"m 217 0 q 35 110 63 4 q 28 179 28 144 q 30 221 28 201 q 33 256 32 240 q 47 379 36 319 q 63 493 58 439 l 63 604 l 61 664 q 68 808 61 736 l 69 833 q 68 863 69 847 q 67 894 67 878 q 74 974 67 928 q 131 1064 82 1021 q 269 1111 193 1111 q 403 1061 349 1111 q 444 954 444 1019 q 425 506 435 867 q 417 189 419 233 q 392 93 413 128 q 217 0 336 0 m 217 96 q 286 115 264 96 q 319 193 319 144 q 328 513 319 226 q 346 961 338 861 q 333 993 346 981 q 269 1015 310 1015 q 193 990 226 1015 l 193 989 q 164 901 164 964 l 167 832 l 165 799 q 160 654 160 728 l 160 490 q 144 366 156 425 q 131 251 133 307 q 128 215 131 233 l 126 171 q 131 128 126 146 q 160 106 136 110 l 161 104 q 217 96 189 96 z "},"і":{"ha":472,"x_min":28,"x_max":444,"o":"m 217 0 q 35 110 63 4 q 28 179 28 144 q 30 221 28 201 q 33 256 32 240 q 47 379 36 319 q 63 493 58 439 l 63 604 l 61 664 q 68 808 61 736 l 69 833 q 68 863 69 847 q 67 894 67 878 q 74 974 67 928 q 131 1064 82 1021 q 269 1111 193 1111 q 403 1061 349 1111 q 444 954 444 1019 q 425 506 435 867 q 417 189 419 233 q 392 93 413 128 q 217 0 336 0 m 217 96 q 286 115 264 96 q 319 193 319 144 q 328 513 319 226 q 346 961 338 861 q 333 993 346 981 q 269 1015 310 1015 q 193 990 226 1015 l 193 989 q 164 901 164 964 l 167 832 l 165 799 q 160 654 160 728 l 160 490 q 144 366 156 425 q 131 251 133 307 q 128 215 131 233 l 126 171 q 131 128 126 146 q 160 106 136 110 l 161 104 q 217 96 189 96 z "},"Ј":{"ha":778,"x_min":28,"x_max":750,"o":"m 297 96 q 378 97 321 97 q 457 102 436 97 q 513 133 478 107 q 567 202 547 158 q 592 278 586 246 l 600 321 q 631 515 619 415 q 654 813 654 725 q 644 972 654 889 q 638 1001 642 993 q 554 1015 628 1015 q 463 1003 483 1013 q 438 750 443 993 q 433 440 433 621 q 418 406 432 419 q 385 393 404 393 q 351 407 364 393 q 336 440 338 421 l 336 532 q 289 725 333 693 q 246 739 269 739 q 133 679 169 739 q 125 588 125 667 q 132 443 125 533 q 178 168 151 253 l 178 167 q 208 119 185 142 q 297 96 231 96 m 392 0 l 299 0 q 86 139 133 0 q 58 265 72 183 q 28 596 28 444 q 50 728 28 699 q 238 835 117 835 l 243 835 q 343 807 304 835 q 356 994 347 910 q 543 1111 369 1111 q 683 1086 635 1111 q 740 983 731 1061 q 750 814 750 894 q 746 711 750 781 q 694 303 733 494 l 686 261 q 652 156 681 218 q 568 53 624 94 l 567 53 q 484 10 518 19 q 392 0 450 0 z "},"ј":{"ha":778,"x_min":28,"x_max":750,"o":"m 297 96 q 378 97 321 97 q 457 102 436 97 q 513 133 478 107 q 567 202 547 158 q 592 278 586 246 l 600 321 q 631 515 619 415 q 654 813 654 725 q 644 972 654 889 q 638 1001 642 993 q 554 1015 628 1015 q 463 1003 483 1013 q 438 750 443 993 q 433 440 433 621 q 418 406 432 419 q 385 393 404 393 q 351 407 364 393 q 336 440 338 421 l 336 532 q 289 725 333 693 q 246 739 269 739 q 133 679 169 739 q 125 588 125 667 q 132 443 125 533 q 178 168 151 253 l 178 167 q 208 119 185 142 q 297 96 231 96 m 392 0 l 299 0 q 86 139 133 0 q 58 265 72 183 q 28 596 28 444 q 50 728 28 699 q 238 835 117 835 l 243 835 q 343 807 304 835 q 356 994 347 910 q 543 1111 369 1111 q 683 1086 635 1111 q 740 983 731 1061 q 750 814 750 894 q 746 711 750 781 q 694 303 733 494 l 686 261 q 652 156 681 218 q 568 53 624 94 l 567 53 q 484 10 518 19 q 392 0 450 0 z "}}}
